<svg viewBox="0 0 1920 957" id="svg-728532" fill="none" preserveAspectRatio="xMinYMid slice" xmlns="http://www.w3.org/2000/svg" xmlns:xlink="http://www.w3.org/1999/xlink" >
<style>
* { transform-box: fill-box; } text { font-size:0.65em; }
#svg-728532 {
  --c0:  #00000000; 
  --c1:  #a053b60d;  --c2:  #ef30f647;  --c3:  #b57d5f5e;  --c4:  #6c4b7917;  --c5:  #78226630;
  --c6:  #c91e2d0c;  --c7:  #a269742e;  --c8:  #b7221d0f;  --c9:  #ae068539;  --c10: #6c42f200;
  --c11: #7b56147c;  --c12: #ee53cb68;  --c13: #d4734864;  --c14: #6c35bb35;  --c15: #84634b66;
  --c16: #7871a07b;  --c17: #917a8244;  --c18: #e25edc64;  --c19: #7a1e3a75;  --c20: #cb694235;
  --c21: #cd751262;  --c22: #6a0ff55b;  --c23: #a47af428;  --c24: #cc4b7614;  --c25: #be21a717;
  --c26: #c510831c;  --c27: #ff50e677;  --c28: #7e437074;  --c29: #6825d84f;  --c30: #a55ca741;
  --c31: #e05e8c00;  --c32: #90671270;  --c33: #bb014f13;  --c34: #765bbc57;  --c35: #c1121459;
  --c36: #871f7b0c;  --c37: #975fa22d;  --c38: #7f34190f;  --c39: #a00aa102;  --c40: #e053057b;
  --c41: #a70ff615;  --c42: #9545a263;  --c43: #b074cf2f;  --c44: #ec4c8472;  --c45: #c30f3329;
  --c46: #f87ace32;  --c47: #f969e728;  --c48: #f308221c;  --c49: #671e6057;  --c50: #cc6afc4b;
  --c51: #752de400;  --c52: #926a670c;  --c53: #7c549e34;  --c54: #95788763;  --c55: #7e4afa0f;
  --c56: #9e3e1106;  --c57: #ba09ed2e;  --c58: #e72e7419;  --c59: #6a01d935;  --c60: #c379553f;
  --c61: #ab48123f;  --c62: #e27f4e4b;  --c63: #b51c6874;  --c64: #d75e8065;  --c65: #760e2c78;
  --c66: #d63e8d4f;  --c67: #bb187a4e;  --c68: #d9661424;  --c69: #9874e628;  --c70: #af45227a;
  --c71: #c730306a;  --c72: #ba2c6f58;  --c73: #da480b1e;  --c74: #b316ec32;  --c75: #af717d09;
  --c76: #db0ae35f;  --c77: #73018964;  --c78: #d14b3f36;  --c79: #c3133639;  --c80: #f7509756;
  --c81: #fc5b7b7f;  --c82: #cc5a296d;  --c83: #6c567929;  --c84: #b6383c05;  --c85: #8710845d;
  --c86: #815af610;  --c87: #6e53bb00;  --c88: #7351a816;  --c89: #d034136d;  --c90: #85662957;
  --c91: #9863be36;  --c92: #e400f446;  --c93: #e552b375;  --c94: #da1bb35b;  --c95: #6a7c7263;
  --c96: #8779dc20;  --c97: #7621d035;  --c98: #af3c701d;  --c99: #c73ee928;  --c100: #ce060e5d;
  --c-count: 100;
}
</style>
<defs>
  <radialGradient id="corner-tlc" gradientUnits="userSpaceOnUse" cx="0" cy="0" r="957">
    <stop offset="0.00" stop-opacity="0.50" stop-color="#ca536a7a"/>
    <stop offset="0.25" stop-opacity="0.33" stop-color="#ca536a7a"/>
    <stop offset="0.75" stop-opacity="0.15" stop-color="#ada8d424"/>
    <stop offset="1.00" stop-opacity="0.0"  stop-color="#7f2f4404"/>
  </radialGradient>
  <radialGradient id="corner-trc" gradientUnits="userSpaceOnUse" cx="1920" cy="0" r="957">
    <stop offset="0.00" stop-opacity="0.50" stop-color="#a0547f91"/>
    <stop offset="0.25" stop-opacity="0.33" stop-color="#a0547f91"/>
    <stop offset="0.75" stop-opacity="0.15" stop-color="#856f684b"/>
    <stop offset="1.00" stop-opacity="0.0"  stop-color="#7f3c491c"/>
  </radialGradient>
  <radialGradient id="corner-blc" gradientUnits="userSpaceOnUse" cx="0" cy="957" r="957">
    <stop offset="0.00" stop-opacity="0.50" stop-color="#7a4b94c6"/>
    <stop offset="0.25" stop-opacity="0.33" stop-color="#7a4b94c6"/>
    <stop offset="0.75" stop-opacity="0.15" stop-color="#40a97a40"/>
    <stop offset="1.00" stop-opacity="0.0"  stop-color="#6124433a"/>
  </radialGradient>
  <radialGradient id="corner-brc" gradientUnits="userSpaceOnUse" cx="1920" cy="957" r="957">
    <stop offset="0.00" stop-opacity="0.50" stop-color="#c44bd5aa"/>
    <stop offset="0.25" stop-opacity="0.33" stop-color="#c44bd5aa"/>
    <stop offset="0.75" stop-opacity="0.15" stop-color="#42a8555c"/>
    <stop offset="1.00" stop-opacity="0.0"  stop-color="#50753b03"/>
  </radialGradient>
  <linearGradient id="grad-728532-1" gradientUnits="userSpaceOnUse" x1="180" y1="250" x2="1920" y2="957">
    <stop offset="0.00" stop-color="var(--c83)"/>
    <stop offset="0.25" stop-color="var(--c29)"/>
    <stop offset="0.50" stop-color="var(--c35)"/>
    <stop offset="0.75" stop-color="var(--c21)"/>
    <stop offset="1.00" stop-color="var(--c14)"/>
  </linearGradient>
  <radialGradient id="grad-728532-2" gradientUnits="userSpaceOnUse" cx="660" cy="160" r="1290">
    <stop offset="0.00" stop-color="var(--c32)"/>
    <stop offset="0.25" stop-color="var(--c88)"/>
    <stop offset="0.50" stop-color="var(--c72)"/>
    <stop offset="0.75" stop-color="var(--c22)"/>
    <stop offset="1.00" stop-color="var(--c61)"/>
  </radialGradient>
  <linearGradient id="grad-728532-3" gradientUnits="userSpaceOnUse" x1="420" y1="160" x2="1920" y2="957">
    <stop offset="0.00" stop-color="var(--c65)"/>
    <stop offset="0.25" stop-color="var(--c60)"/>
    <stop offset="0.50" stop-color="var(--c44)"/>
    <stop offset="0.75" stop-color="var(--c42)"/>
    <stop offset="1.00" stop-color="var(--c95)"/>
  </linearGradient>
  <radialGradient id="grad-728532-4" gradientUnits="userSpaceOnUse" cx="1640" cy="100" r="1210">
    <stop offset="0.00" stop-color="var(--c60)"/>
    <stop offset="0.25" stop-color="var(--c85)"/>
    <stop offset="0.50" stop-color="var(--c80)"/>
    <stop offset="0.75" stop-color="var(--c63)"/>
    <stop offset="1.00" stop-color="var(--c38)"/>
  </radialGradient>
  <linearGradient id="grad-728532-5" gradientUnits="userSpaceOnUse" x1="310" y1="270" x2="1920" y2="957">
    <stop offset="0.00" stop-color="var(--c40)"/>
    <stop offset="0.25" stop-color="var(--c41)"/>
    <stop offset="0.50" stop-color="var(--c52)"/>
    <stop offset="0.75" stop-color="var(--c43)"/>
    <stop offset="1.00" stop-color="var(--c98)"/>
  </linearGradient>
</defs>
<rect x="0" y="0" id="box-728532"  width="1920" height="957"   fill="#333F" ></rect>
  <path id="728532-1" class="corner tlc"  fill="url(#corner-tlc)"  d="M 0,0
  L 0,0 1920,0
  Q 1267,803 0,957
  L 0,957 0,0
  Z">
  </path>

  <path id="728532-2" class="corner trc"  fill="url(#corner-trc)"  d="M 1920,0
  L 1920,0 0,0
  Q 653,803 1920,957
  L 1920,957 1920,0
  Z">
  </path>

  <path id="728532-3" class="corner blc"  fill="url(#corner-blc)"  d="M 0,957
  L 0,957 0,0
  Q 1267,154 1920,957
  L 1920,957 0,957
  Z">
  </path>

  <path id="728532-4" class="corner brc"  fill="url(#corner-brc)"  d="M 1920,957
  L 1920,957 1920,0
  Q 653,154 0,957
  L 0,957 1920,957
  Z">
  </path>

<g id="728532-5" class="nautilus p61"  onclick="this.style.fill = randomColor()" >
  <path  fill="#8857da56" d="
  M 919,14
  Q 772.25,11.25 682,127
  L 682,127 1260,660
  Q 1227,771.5 1118,812
  L 1118,812 919,14
  Z">
  </path>

  <path  fill="#f740ab67" d="
  M 682,127
  Q 562.5,202.25 551,343
  L 551,343 1294,465
  Q 1325.75,571 1260,660
  L 1260,660 682,127
  Z">
  </path>

  <path  fill="#ab44e14d" d="
  M 551,343
  Q 494.25,466.5 559,586
  L 559,586 1220,292
  Q 1300.25,360 1294,465
  L 1294,465 551,343
  Z">
  </path>

  <path  fill="#bc1c0f20" d="
  M 559,586
  Q 579.25,715.5 695,777
  L 695,777 1069,193
  Q 1169.25,204.75 1220,292
  L 1220,292 559,586
  Z">
  </path>

  <path  fill="#696ec066" d="
  M 695,777
  Q 779.25,871 905,860
  L 905,860 898,193
  Q 983.5,150.25 1069,193
  L 1069,193 695,777
  Z">
  </path>

  <path  fill="#e6048230" d="
  M 905,860
  Q 1023.5,889.25 1118,812
  L 1118,812 763,285
  Q 807.5,205.25 898,193
  L 898,193 905,860
  Z">
  </path>

  <path  fill="#f834255b" d="
  M 1118,812
  Q 1227,771.5 1260,660
  L 1260,660 707,429
  Q 699,343 763,285
  L 763,285 1118,812
  Z">
  </path>

  <path  fill="#9f264114" d="
  M 1260,660
  Q 1325.75,571 1294,465
  L 1294,465 738,569
  Q 687.5,506.75 707,429
  L 707,429 1260,660
  Z">
  </path>

  <path  fill="#f830346b" d="
  M 1294,465
  Q 1300.25,360 1220,292
  L 1220,292 833,663
  Q 762,639.75 738,569
  L 738,569 1294,465
  Z">
  </path>

  <path  fill="#651b2a64" d="
  M 1220,292
  Q 1169.25,204.75 1069,193
  L 1069,193 957,688
  Q 888.75,706.5 833,663
  L 833,663 1220,292
  Z">
  </path>

  <path  fill="#d26caa1f" d="
  M 1069,193
  Q 983.5,150.25 898,193
  L 898,193 1065,643
  Q 1022.25,692.5 957,688
  L 957,688 1069,193
  Z">
  </path>

  <path  fill="#ae31275c" d="
  M 898,193
  Q 807.5,205.25 763,285
  L 763,285 1124,551
  Q 1117.5,611.75 1065,643
  L 1065,643 898,193
  Z">
  </path>

  <path  fill="#ef772319" d="
  M 763,285
  Q 699,343 707,429
  L 707,429 1119,451
  Q 1146.5,499.75 1124,551
  L 1124,551 763,285
  Z">
  </path>

  <path  fill="#f62a491a" d="
  M 707,429
  Q 687.5,506.75 738,569
  L 738,569 1066,379
  Q 1110.5,401.75 1119,451
  L 1119,451 707,429
  Z">
  </path>

  <path  fill="#e711a46d" d="
  M 738,569
  Q 762,639.75 833,663
  L 833,663 990,352
  Q 1034.75,346.5 1066,379
  L 1066,379 738,569
  Z">
  </path>

  <path  fill="#fc5c6059" d="
  M 833,663
  Q 888.75,706.5 957,688
  L 957,688 921,369
  Q 951.25,343.25 990,352
  L 990,352 833,663
  Z">
  </path>

  <path  fill="#eb31ca75" d="
  M 957,688
  Q 1022.25,692.5 1065,643
  L 1065,643 878,416
  Q 887.75,381.75 921,369
  L 921,369 957,688
  Z">
  </path>

  <path  fill="#bc19924a" d="
  M 1065,643
  Q 1117.5,611.75 1124,551
  L 1124,551 874,472
  Q 862,443 878,416
  L 878,416 1065,643
  Z">
  </path>

  <path  fill="#ad48bc42" d="
  M 1124,551
  Q 1146.5,499.75 1119,451
  L 1119,451 901,511
  Q 877.75,498.25 874,472
  L 874,472 1124,551
  Z">
  </path>

  <path  fill="#c90a2d1b" d="
  M 1119,451
  Q 1110.5,401.75 1066,379
  L 1066,379 937,522
  Q 916.25,525.5 901,511
  L 901,511 1119,451
  Z">
  </path>

  <path  fill="#9a7c5b1c" d="
  M 1066,379
  Q 1034.75,346.5 990,352
  L 990,352 963,512
  Q 952.5,523.5 937,522
  L 937,522 1066,379
  Z">
  </path>

  <path  fill="#7c6dfe0f" d="
  M 990,352
  Q 951.25,343.25 921,369
  L 921,369 973,493
  Q 972.75,505 963,512
  L 963,512 990,352
  Z">
  </path>

  <path  fill="#83392171" d="
  M 921,369
  Q 887.75,381.75 878,416
  L 878,416 966,479
  Q 973,484.25 973,493
  L 973,493 921,369
  Z">
  </path>

  <path  fill="#7b6fda3f" d="
  M 878,416
  Q 862,443 874,472
  L 874,472 960,478
  Q 963.25,477 966,479
  L 966,479 878,416
  Z">
  </path>
</g>
</svg>
