<svg viewBox="0 0 1920 957" id="svg-743174" fill="none" preserveAspectRatio="xMinYMid slice" xmlns="http://www.w3.org/2000/svg" xmlns:xlink="http://www.w3.org/1999/xlink" >
<style>
text { font-size:0.65em; }
#svg-743174 {
  --c0:  #00000000; 
  --c1:  #7679bd78;  --c2:  #dd846394;  --c3:  #5d1bd8d8;  --c4:  #a202ebf8;  --c5:  #1e3905de;
  --c6:  #5d352b43;  --c7:  #64d7555f;  --c8:  #59644e08;  --c9:  #0cf01e69;  --c10: #19020e55;
  --c11: #747b2e0d;  --c12: #3fefdc9f;  --c13: #9e4475b1;  --c14: #8bb18bf5;  --c15: #86694c9c;
  --c16: #91db80fe;  --c17: #1a274d4b;  --c18: #b761e50b;  --c19: #f10005ae;  --c20: #f0c73349;
  --c21: #64c0502f;  --c22: #b9bb9fb1;  --c23: #5988e733;  --c24: #6723f96e;  --c25: #034a6ec2;
  --c26: #86a17c2e;  --c27: #4778109c;  --c28: #ae52159c;  --c29: #60d5dd7d;  --c30: #6a2f3580;
  --c31: #caa5136a;  --c32: #4c0fcd73;  --c33: #c1fe41aa;  --c34: #91e8216b;  --c35: #4462bbd0;
  --c36: #08f60e23;  --c37: #052d4a79;  --c38: #de4a93b4;  --c39: #89f6512f;  --c40: #86b05e04;
  --c41: #334ad4d9;  --c42: #be04daca;  --c43: #494aa7d4;  --c44: #efaf3c55;  --c45: #b79f41b1;
  --c46: #b4800577;  --c47: #ee83b503;  --c48: #4d70df73;  --c49: #080104a1;  --c50: #bcaf469c;
  --c51: #261b8163;  --c52: #ac151cdd;  --c53: #e3ecda85;  --c54: #334712a2;  --c55: #b4315f6f;
  --c56: #c93f14f8;  --c57: #44865e2c;  --c58: #15203742;  --c59: #0a00b15b;  --c60: #7fd4404e;
  --c61: #109464ac;  --c62: #be9e6408;  --c63: #721fb8d1;  --c64: #60826f83;  --c65: #b66d165c;
  --c66: #57dfe5c7;  --c67: #9b522393;  --c68: #0e9350eb;  --c69: #ebea27cd;  --c70: #cd4b9103;
  --c71: #4383bb63;  --c72: #94e47c0f;  --c73: #7f20f97e;  --c74: #b720fa55;  --c75: #36e1914c;
  --c76: #0e153979;  --c77: #a803c793;  --c78: #abdf8664;  --c79: #fcd02965;  --c80: #da618776;
  --c81: #0a469007;  --c82: #a78cc7af;  --c83: #da9c8fb9;  --c84: #5e6c990c;  --c85: #19cda609;
  --c86: #0d4dcdb1;  --c87: #f97e41b6;  --c88: #eb0549ff;  --c89: #2dd1f9f2;  --c90: #45e7e7ce;
  --c91: #76176b44;  --c92: #111e8338;  --c93: #74b8cfab;  --c94: #a7581d68;  --c95: #af37f0cc;
  --c96: #2ed4828b;  --c97: #ac9961f3;  --c98: #ca7d4742;  --c99: #ca7e2f4b;  --c100: #eb07d4a8;
  --c-count: 100;
}
</style>
<defs>
  <linearGradient id="grad-743174-1" gradientUnits="userSpaceOnUse" x1="120" y1="250" x2="1920" y2="957">
    <stop offset="0.00" stop-color="var(--c32)"/>
    <stop offset="0.25" stop-color="var(--c98)"/>
    <stop offset="0.50" stop-color="var(--c72)"/>
    <stop offset="0.75" stop-color="var(--c86)"/>
    <stop offset="1.00" stop-color="var(--c34)"/>
  </linearGradient>
  <radialGradient id="grad-743174-2" gradientUnits="userSpaceOnUse" cx="790" cy="250" r="1010">
    <stop offset="0.00" stop-color="var(--c20)"/>
    <stop offset="0.25" stop-color="var(--c38)"/>
    <stop offset="0.50" stop-color="var(--c34)"/>
    <stop offset="0.75" stop-color="var(--c2)"/>
    <stop offset="1.00" stop-color="var(--c24)"/>
  </radialGradient>
  <linearGradient id="grad-743174-3" gradientUnits="userSpaceOnUse" x1="290" y1="270" x2="1920" y2="957">
    <stop offset="0.00" stop-color="var(--c85)"/>
    <stop offset="0.25" stop-color="var(--c91)"/>
    <stop offset="0.50" stop-color="var(--c89)"/>
    <stop offset="0.75" stop-color="var(--c94)"/>
    <stop offset="1.00" stop-color="var(--c73)"/>
  </linearGradient>
  <radialGradient id="grad-743174-4" gradientUnits="userSpaceOnUse" cx="270" cy="320" r="1390">
    <stop offset="0.00" stop-color="var(--c97)"/>
    <stop offset="0.25" stop-color="var(--c38)"/>
    <stop offset="0.50" stop-color="var(--c30)"/>
    <stop offset="0.75" stop-color="var(--c52)"/>
    <stop offset="1.00" stop-color="var(--c11)"/>
  </radialGradient>
  <linearGradient id="grad-743174-5" gradientUnits="userSpaceOnUse" x1="450" y1="140" x2="1920" y2="957">
    <stop offset="0.00" stop-color="var(--c58)"/>
    <stop offset="0.25" stop-color="var(--c2)"/>
    <stop offset="0.50" stop-color="var(--c40)"/>
    <stop offset="0.75" stop-color="var(--c66)"/>
    <stop offset="1.00" stop-color="var(--c30)"/>
  </linearGradient>
  <radialGradient id="grad-743174-6" gradientUnits="userSpaceOnUse" cx="1530" cy="220" r="1250">
    <stop offset="0.00" stop-color="var(--c90)"/>
    <stop offset="0.25" stop-color="var(--c6)"/>
    <stop offset="0.50" stop-color="var(--c26)"/>
    <stop offset="0.75" stop-color="var(--c57)"/>
    <stop offset="1.00" stop-color="var(--c72)"/>
  </radialGradient>
  <linearGradient id="grad-743174-7" gradientUnits="userSpaceOnUse" x1="730" y1="120" x2="1920" y2="957">
    <stop offset="0.00" stop-color="var(--c47)"/>
    <stop offset="0.25" stop-color="var(--c39)"/>
    <stop offset="0.50" stop-color="var(--c43)"/>
    <stop offset="0.75" stop-color="var(--c36)"/>
    <stop offset="1.00" stop-color="var(--c29)"/>
  </linearGradient>
  <radialGradient id="grad-743174-8" gradientUnits="userSpaceOnUse" cx="1100" cy="380" r="1700">
    <stop offset="0.00" stop-color="var(--c11)"/>
    <stop offset="0.25" stop-color="var(--c77)"/>
    <stop offset="0.50" stop-color="var(--c21)"/>
    <stop offset="0.75" stop-color="var(--c90)"/>
    <stop offset="1.00" stop-color="var(--c92)"/>
  </radialGradient>
  <linearGradient id="grad-743174-9" gradientUnits="userSpaceOnUse" x1="490" y1="130" x2="1920" y2="957">
    <stop offset="0.00" stop-color="var(--c35)"/>
    <stop offset="0.25" stop-color="var(--c62)"/>
    <stop offset="0.50" stop-color="var(--c86)"/>
    <stop offset="0.75" stop-color="var(--c46)"/>
    <stop offset="1.00" stop-color="var(--c85)"/>
  </linearGradient>
  <radialGradient id="grad-743174-10" gradientUnits="userSpaceOnUse" cx="320" cy="120" r="1290">
    <stop offset="0.00" stop-color="var(--c74)"/>
    <stop offset="0.25" stop-color="var(--c85)"/>
    <stop offset="0.50" stop-color="var(--c3)"/>
    <stop offset="0.75" stop-color="var(--c78)"/>
    <stop offset="1.00" stop-color="var(--c35)"/>
  </radialGradient>
  <linearGradient id="grad-743174-11" gradientUnits="userSpaceOnUse" x1="590" y1="100" x2="1920" y2="957">
    <stop offset="0.00" stop-color="var(--c42)"/>
    <stop offset="0.25" stop-color="var(--c7)"/>
    <stop offset="0.50" stop-color="var(--c32)"/>
    <stop offset="0.75" stop-color="var(--c37)"/>
    <stop offset="1.00" stop-color="var(--c62)"/>
  </linearGradient>
<filter id="gaussianblur">
  <feGaussianBlur in="SourceGraphic" stdDeviation="17 3" edgeMode="duplicate" color-interpolation-filters="sRGB" />
</filter>
<filter id="glow">
  <feDropShadow in="FillPaint" dx="0" dy="0" stdDeviation="12" flood-color="var(--c51)" />
</filter>
<filter id="dance" color-interpolation-filters="linearRGB" filterUnits="objectBoundingBox" primitiveUnits="userSpaceOnUse">
  <feMorphology operator="dilate" radius="8 8" in="SourceAlpha" result="morphology"/>
  <feFlood flood-color="#000000" flood-opacity="0.5" result="flood"/>
  <feComposite in="flood" in2="morphology" operator="in" result="composite"/>
  <feComposite in="composite" in2="SourceAlpha" operator="out" result="composite1"/>
  <feTurbulence type="fractalNoise" baseFrequency="0.01 0.02" numOctaves="1" seed="0" stitchTiles="stitch" result="turbulence"/>
  <feDisplacementMap in="composite1" in2="turbulence" scale="17" xChannelSelector="A" yChannelSelector="A" result="displacementMap"/>
  <feMerge result="merge">
    <feMergeNode in="SourceGraphic" result="mergeNode"/>
    <feMergeNode in="displacementMap" result="mergeNode1"/>
  </feMerge>
</filter>
</defs>
<rect x="0" y="0" id="box-743174"  width="1920" height="957"   fill="#333" ></rect>
  <polygon id="oddagon-743174-1-5" class="oddagon poly5" fill="url(#grad-743174-1)"  filter="url(#gaussianblur)"  onclick="this.style.opacity = 0.5"  points="1579,200 1379,475 1055,370 1055,29 1379,-75 ">
  </polygon>

<circle id="circ-743174-2"  r="487" cx="122" cy="419"  fill="url(#grad-743174-2)"  filter="url(#gaussianblur)"  onclick="this.style.opacity = 0.5"></circle>
<path   id="cloud-743174-3-a" class="cloud arc"   onclick="this.style.opacity = 0.5"  fill="url(#grad-743174-3)"  stroke="#FFFFFF33" stroke-width="74" stroke-linecap="round" stroke-linejoin="round"  filter="url(#glow)"  d="
  M 1065 210 
  A 45,45 0,0,1 1335,300
  A 45,45 0,0,1 1945,165
  A 45,45 0,0,1 1880,595
  A 45,45 0,0,1 1935,760
  A 45,45 0,0,1 1455,800
  A 45,45 0,0,1 860,705
  A 45,45 0,0,1 875,575
  A 45,45 0,0,1 1065,210
  Z" >
</path>
<g id="flower-743174-4" class="flower"  fill="url(#grad-743174-4)"  filter="url(#glow)" >
  <path id="petal-743174-4-1" class="flower petal" fill="url(#grad-743174-4)"  filter="url(#glow)"  onclick="this.style.opacity = 0.5"   d="
    M 910 800 
    L 1079,800
    A 45,45 0,0,1 962,961
    L 910,800
    Z">
  </path>
  <path id="petal-743174-4-2" class="flower petal" fill="url(#grad-743174-4)"  filter="url(#glow)"  onclick="this.style.opacity = 0.5"   d="
    M 910 800 
    L 962,961
    A 45,45 0,0,1 772,899
    L 910,800
    Z">
  </path>
  <path id="petal-743174-4-3" class="flower petal" fill="url(#grad-743174-4)"  filter="url(#glow)"  onclick="this.style.opacity = 0.5"   d="
    M 910 800 
    L 772,899
    A 45,45 0,0,1 772,699
    L 910,800
    Z">
  </path>
  <path id="petal-743174-4-4" class="flower petal" fill="url(#grad-743174-4)"  filter="url(#glow)"  onclick="this.style.opacity = 0.5"   d="
    M 910 800 
    L 772,699
    A 45,45 0,0,1 962,638
    L 910,800
    Z">
  </path>
  <path id="petal-743174-4-5" class="flower petal" fill="url(#grad-743174-4)"  filter="url(#glow)"  onclick="this.style.opacity = 0.5"   d="
    M 910 800 
    L 962,638
    A 45,45 0,0,1 1079,800
    L 910,800
    Z">
  </path>
</g>
<circle id="circ-743174-6"  r="248" cx="192" cy="23"  fill="url(#grad-743174-6)"  stroke="#99CC9999" stroke-width="52" stroke-linecap="round" stroke-linejoin="round" stroke-opacity="0.1"  filter="url(#gaussianblur)"  onclick="this.style.opacity = 0.5"></circle>
<circle id="circ-743174-7"  r="209" cx="174" cy="572"  fill="url(#grad-743174-7)"  filter="url(#dance)"  onclick="this.style.opacity = 0.5"></circle>
<circle id="circ-743174-8"  r="188" cx="409" cy="35"  fill="url(#grad-743174-8)"  filter="url(#glow)"  onclick="this.style.opacity = 0.5"></circle>
<rect   id="rect-743174-9" x="137" y="108" width="393" height="393"  fill="url(#grad-743174-9)"  stroke="#00000099" stroke-width="1" stroke-linecap="round" stroke-linejoin="round" stroke-opacity="0.5"  filter="url(#glow)"  onclick="this.style.opacity = 0.5" class="square" ></rect>
<circle id="circ-743174-10"  r="260" cx="252" cy="420"  fill="url(#grad-743174-10)"  stroke="#99CC9999" stroke-width="45" stroke-linecap="round" stroke-linejoin="round" stroke-opacity="0.1"  filter="url(#pointlighting)"  onclick="this.style.opacity = 0.5"></circle>
  <polygon id="triangle-743174-11-6" class="triangle" fill="url(#grad-743174-11)"  filter="url(#glow)"  onclick="this.style.opacity = 0.5"  points="889,190 559,380 560,0 ">
  </polygon>

<path d=" M 986,533 L 994,525 M 994,533 L 986,525" stroke="#FFF3" class="grid" />
<path d=" M 986,533 L 994,525 M 994,533 L 986,525" stroke="#FFF3" class="grid" />
<text fill="#FF06" x="986" y="543">1</text><path d=" M 916,551 L 924,543 M 924,551 L 916,543" stroke="#FFF3" class="grid" />
<path d=" M 916,551 L 924,543 M 924,551 L 916,543" stroke="#FFF3" class="grid" />
<text fill="#FF06" x="916" y="561">2</text><path d=" M 855,482 L 863,474 M 863,482 L 855,474" stroke="#FFF3" class="grid" />
<path d=" M 855,482 L 863,474 M 863,482 L 855,474" stroke="#FFF3" class="grid" />
<text fill="#FF06" x="855" y="492">3</text><path d=" M 894,375 L 902,367 M 902,375 L 894,367" stroke="#FFF3" class="grid" />
<path d=" M 894,375 L 902,367 M 902,375 L 894,367" stroke="#FFF3" class="grid" />
<text fill="#FF06" x="894" y="385">4</text><path d=" M 1029,355 L 1037,347 M 1037,355 L 1029,347" stroke="#FFF3" class="grid" />
<path d=" M 1029,355 L 1037,347 M 1037,355 L 1029,347" stroke="#FFF3" class="grid" />
<text fill="#FF06" x="1029" y="365">5</text><path d=" M 1126,481 L 1134,473 M 1134,481 L 1126,473" stroke="#FFF3" class="grid" />
<path d=" M 1126,481 L 1134,473 M 1134,481 L 1126,473" stroke="#FFF3" class="grid" />
<text fill="#FF06" x="1126" y="491">6</text><path d=" M 1083,702 L 1091,694 M 1091,702 L 1083,694" stroke="#FFF3" class="grid" />
<path d=" M 1083,702 L 1091,694 M 1091,702 L 1083,694" stroke="#FFF3" class="grid" />
<text fill="#FF06" x="1083" y="712">7</text><path d=" M 818,720 L 826,712 M 826,720 L 818,712" stroke="#FFF3" class="grid" />
<path d=" M 818,720 L 826,712 M 826,720 L 818,712" stroke="#FFF3" class="grid" />
<text fill="#FF06" x="818" y="730">8</text><path d=" M 660,482 L 668,474 M 668,482 L 660,474" stroke="#FFF3" class="grid" />
<path d=" M 660,482 L 668,474 M 668,482 L 660,474" stroke="#FFF3" class="grid" />
<text fill="#FF06" x="660" y="492">9</text><path d=" M 797,206 L 805,198 M 805,206 L 797,198" stroke="#FFF3" class="grid" />
<path d=" M 797,206 L 805,198 M 805,206 L 797,198" stroke="#FFF3" class="grid" />
<text fill="#FF06" x="797" y="216">10</text><path d=" M 1126,186 L 1134,178 M 1134,186 L 1126,178" stroke="#FFF3" class="grid" />
<path d=" M 1126,186 L 1134,178 M 1134,186 L 1126,178" stroke="#FFF3" class="grid" />
<text fill="#FF06" x="1126" y="196">11</text><path d=" M 1321,482 L 1329,474 M 1329,482 L 1321,474" stroke="#FFF3" class="grid" />
<path d=" M 1321,482 L 1329,474 M 1329,482 L 1321,474" stroke="#FFF3" class="grid" />
<text fill="#FF06" x="1321" y="492">12</text><path d=" M 1180,871 L 1188,863 M 1188,871 L 1180,863" stroke="#FFF3" class="grid" />
<path d=" M 1180,871 L 1188,863 M 1188,871 L 1180,863" stroke="#FFF3" class="grid" />
<text fill="#FF06" x="1180" y="881">13</text><path d=" M 720,889 L 728,881 M 728,889 L 720,881" stroke="#FFF3" class="grid" />
<path d=" M 720,889 L 728,881 M 728,889 L 720,881" stroke="#FFF3" class="grid" />
<text fill="#FF06" x="720" y="899">14</text><path d=" M 465,481 L 473,473 M 473,481 L 465,473" stroke="#FFF3" class="grid" />
<path d=" M 465,481 L 473,473 M 473,481 L 465,473" stroke="#FFF3" class="grid" />
<text fill="#FF06" x="465" y="491">15</text><path d=" M 699,37 L 707,29 M 707,37 L 699,29" stroke="#FFF3" class="grid" />
<path d=" M 699,37 L 707,29 M 707,37 L 699,29" stroke="#FFF3" class="grid" />
<text fill="#FF06" x="699" y="47">16</text><path d=" M 1224,17 L 1232,9 M 1232,17 L 1224,9" stroke="#FFF3" class="grid" />
<path d=" M 1224,17 L 1232,9 M 1232,17 L 1224,9" stroke="#FFF3" class="grid" />
<text fill="#FF06" x="1224" y="27">17</text><path d=" M 1516,481 L 1524,473 M 1524,481 L 1516,473" stroke="#FFF3" class="grid" />
<path d=" M 1516,481 L 1524,473 M 1524,481 L 1516,473" stroke="#FFF3" class="grid" />
<text fill="#FF06" x="1516" y="491">18</text><path d=" M 270,482 L 278,474 M 278,482 L 270,474" stroke="#FFF3" class="grid" />
<path d=" M 270,482 L 278,474 M 278,482 L 270,474" stroke="#FFF3" class="grid" />
<text fill="#FF06" x="270" y="492">19</text><path d=" M 1711,481 L 1719,473 M 1719,481 L 1711,473" stroke="#FFF3" class="grid" />
<path d=" M 1711,481 L 1719,473 M 1719,481 L 1711,473" stroke="#FFF3" class="grid" />
<text fill="#FF06" x="1711" y="491">20</text><path d=" M 75,482 L 83,474 M 83,482 L 75,474" stroke="#FFF3" class="grid" />
<path d=" M 75,482 L 83,474 M 83,482 L 75,474" stroke="#FFF3" class="grid" />
<text fill="#FF06" x="75" y="492">21</text><path d=" M 1906,481 L 1914,473 M 1914,481 L 1906,473" stroke="#FFF3" class="grid" />
<path d=" M 1906,481 L 1914,473 M 1914,481 L 1906,473" stroke="#FFF3" class="grid" />
<text fill="#FF06" x="1906" y="491">22</text></svg>
