<svg viewBox="0 0 1920 957" id="svg-fa9637" fill="none" xmlns="http://www.w3.org/2000/svg" xmlns:xlink="http://www.w3.org/1999/xlink" >
<style>
#svg-fa9637 {
  --c0:  #00000000; 
  --c1:  #f06a3ba4;  --c2:  #f0634bbd;  --c3:  #812482d3;  --c4:  #870150bc;  --c5:  #70eb004a;
  --c6:  #33add6fa;  --c7:  #7f2b62a6;  --c8:  #6f3d2c30;  --c9:  #dc44eda4;  --c10: #41891b6a;
  --c11: #bdc21051;  --c12: #30808317;  --c13: #8a8b5c4a;  --c14: #30723ee1;  --c15: #6b65db8f;
  --c16: #55f1e4ff;  --c17: #40b9562b;  --c18: #801c34f0;  --c19: #16e11c05;  --c20: #70741f94;
  --c21: #9eca0c87;  --c22: #88f88b15;  --c23: #8cf2451a;  --c24: #8c201225;  --c25: #bc95f8c6;
  --c26: #3cb3a882;  --c27: #6a24c0c9;  --c28: #a4217481;  --c29: #e8cac286;  --c30: #88e78601;
  --c31: #545b8b23;  --c32: #ef421c4c;  --c33: #607d976d;  --c34: #6f1e8cda;  --c35: #cadd036c;
  --c36: #b6516d5a;  --c37: #ff3944d4;  --c38: #c79ecd4c;  --c39: #6ad71f1a;  --c40: #1ef35903;
  --c41: #59e33491;  --c42: #fa3eee4d;  --c43: #22b43ac3;  --c44: #c3491814;  --c45: #74c4903c;
  --c46: #2ca7d0ef;  --c47: #d6081275;  --c48: #0e499023;  --c49: #d4e135d1;  --c50: #dbe35278;
  --c51: #4549e178;  --c52: #adef5069;  --c53: #4697c033;  --c54: #127dad2e;  --c55: #230c2044;
  --c56: #83430b3c;  --c57: #0eb21332;  --c58: #47453472;  --c59: #dc962745;  --c60: #b4f63c4e;
  --c61: #7e68742b;  --c62: #98a46b44;  --c63: #4c3f3f11;  --c64: #03b5e250;  --c65: #1100615a;
  --c66: #953e1831;  --c67: #8b2e011f;  --c68: #eae647d0;  --c69: #9eecb52f;  --c70: #552b1c76;
  --c71: #a7570d7b;  --c72: #8028f32c;  --c73: #9fa74ce0;  --c74: #c7f702ec;  --c75: #7fa56137;
  --c76: #ce1a22da;  --c77: #fb3b4227;  --c78: #82515025;  --c79: #fc41b355;  --c80: #7daf52cc;
  --c81: #f16373c0;  --c82: #6cf271bc;  --c83: #ff17703f;  --c84: #9342a20c;  --c85: #a144b93e;
  --c86: #55d0a231;  --c87: #fd160597;  --c88: #adef2d6c;  --c89: #ab928842;  --c90: #d604df82;
  --c91: #06144ad5;  --c92: #4f5a2766;  --c93: #95ee269c;  --c94: #900ac01e;  --c95: #c93556ac;
  --c96: #38e97e98;  --c97: #d5b39266;  --c98: #75e703f2;  --c99: #5fd8a353;  --c100: #a4fc71e9;
  --c-count: 100;
}
</style>
<defs>
  <linearGradient id="grad-fa9637-1" gradientUnits="userSpaceOnUse" x1="440" y1="130" x2="1920" y2="957">
    <stop offset="0.00" stop-color="var(--c79)"/>
    <stop offset="0.33" stop-color="var(--c70)"/>
    <stop offset="0.66" stop-color="var(--c46)"/>
    <stop offset="1.00" stop-color="var(--c33)"/>
  </linearGradient>
  <radialGradient id="grad-fa9637-2" gradientUnits="userSpaceOnUse" cx="260" cy="500" r="1350">
    <stop offset="0.00" stop-color="var(--c91)"/>
    <stop offset="0.33" stop-color="var(--c85)"/>
    <stop offset="0.66" stop-color="var(--c38)"/>
    <stop offset="1.00" stop-color="var(--c42)"/>
  </radialGradient>
  <linearGradient id="grad-fa9637-3" gradientUnits="userSpaceOnUse" x1="340" y1="110" x2="1920" y2="957">
    <stop offset="0.00" stop-color="var(--c89)"/>
    <stop offset="0.33" stop-color="var(--c78)"/>
    <stop offset="0.66" stop-color="var(--c4)"/>
    <stop offset="1.00" stop-color="var(--c45)"/>
  </linearGradient>
  <radialGradient id="grad-fa9637-4" gradientUnits="userSpaceOnUse" cx="1440" cy="680" r="1270">
    <stop offset="0.00" stop-color="var(--c22)"/>
    <stop offset="0.33" stop-color="var(--c73)"/>
    <stop offset="0.66" stop-color="var(--c2)"/>
    <stop offset="1.00" stop-color="var(--c36)"/>
  </radialGradient>
  <linearGradient id="grad-fa9637-5" gradientUnits="userSpaceOnUse" x1="240" y1="150" x2="1920" y2="957">
    <stop offset="0.00" stop-color="var(--c57)"/>
    <stop offset="0.33" stop-color="var(--c35)"/>
    <stop offset="0.66" stop-color="var(--c58)"/>
    <stop offset="1.00" stop-color="var(--c26)"/>
  </linearGradient>
  <radialGradient id="grad-fa9637-6" gradientUnits="userSpaceOnUse" cx="340" cy="440" r="1360">
    <stop offset="0.00" stop-color="var(--c36)"/>
    <stop offset="0.33" stop-color="var(--c6)"/>
    <stop offset="0.66" stop-color="var(--c43)"/>
    <stop offset="1.00" stop-color="var(--c22)"/>
  </radialGradient>
  <linearGradient id="grad-fa9637-7" gradientUnits="userSpaceOnUse" x1="790" y1="230" x2="1920" y2="957">
    <stop offset="0.00" stop-color="var(--c54)"/>
    <stop offset="0.33" stop-color="var(--c44)"/>
    <stop offset="0.66" stop-color="var(--c96)"/>
    <stop offset="1.00" stop-color="var(--c16)"/>
  </linearGradient>
  <radialGradient id="grad-fa9637-8" gradientUnits="userSpaceOnUse" cx="480" cy="400" r="1210">
    <stop offset="0.00" stop-color="var(--c64)"/>
    <stop offset="0.33" stop-color="var(--c42)"/>
    <stop offset="0.66" stop-color="var(--c67)"/>
    <stop offset="1.00" stop-color="var(--c79)"/>
  </radialGradient>
  <linearGradient id="grad-fa9637-9" gradientUnits="userSpaceOnUse" x1="840" y1="190" x2="1920" y2="957">
    <stop offset="0.00" stop-color="var(--c75)"/>
    <stop offset="0.33" stop-color="var(--c9)"/>
    <stop offset="0.66" stop-color="var(--c2)"/>
    <stop offset="1.00" stop-color="var(--c77)"/>
  </linearGradient>
  <radialGradient id="grad-fa9637-10" gradientUnits="userSpaceOnUse" cx="460" cy="730" r="1360">
    <stop offset="0.00" stop-color="var(--c89)"/>
    <stop offset="0.33" stop-color="var(--c36)"/>
    <stop offset="0.66" stop-color="var(--c69)"/>
    <stop offset="1.00" stop-color="var(--c5)"/>
  </radialGradient>
  <linearGradient id="grad-fa9637-11" gradientUnits="userSpaceOnUse" x1="480" y1="180" x2="1920" y2="957">
    <stop offset="0.00" stop-color="var(--c30)"/>
    <stop offset="0.33" stop-color="var(--c76)"/>
    <stop offset="0.66" stop-color="var(--c52)"/>
    <stop offset="1.00" stop-color="var(--c64)"/>
  </linearGradient>
  <radialGradient id="grad-fa9637-12" gradientUnits="userSpaceOnUse" cx="380" cy="260" r="1310">
    <stop offset="0.00" stop-color="var(--c81)"/>
    <stop offset="0.33" stop-color="var(--c91)"/>
    <stop offset="0.66" stop-color="var(--c71)"/>
    <stop offset="1.00" stop-color="var(--c1)"/>
  </radialGradient>
  <linearGradient id="grad-fa9637-13" gradientUnits="userSpaceOnUse" x1="230" y1="120" x2="1920" y2="957">
    <stop offset="0.00" stop-color="var(--c40)"/>
    <stop offset="0.33" stop-color="var(--c38)"/>
    <stop offset="0.66" stop-color="var(--c60)"/>
    <stop offset="1.00" stop-color="var(--c74)"/>
  </linearGradient>
  <radialGradient id="grad-fa9637-14" gradientUnits="userSpaceOnUse" cx="910" cy="510" r="1760">
    <stop offset="0.00" stop-color="var(--c85)"/>
    <stop offset="0.33" stop-color="var(--c95)"/>
    <stop offset="0.66" stop-color="var(--c99)"/>
    <stop offset="1.00" stop-color="var(--c29)"/>
  </radialGradient>
  <linearGradient id="grad-fa9637-15" gradientUnits="userSpaceOnUse" x1="610" y1="110" x2="1920" y2="957">
    <stop offset="0.00" stop-color="var(--c50)"/>
    <stop offset="0.33" stop-color="var(--c85)"/>
    <stop offset="0.66" stop-color="var(--c74)"/>
    <stop offset="1.00" stop-color="var(--c96)"/>
  </linearGradient>
</defs>
<filter id="displacement">
  <feTurbulence baseFrequency="0.018" seed="101" result="turbulence" />
  <feDisplacementMap in2="turbulence" in="SourceGraphic" scale="98" xChannelSelector="R" yChannelSelector="G" />
</filter>
<filter id="gaussianblur">
  <feGaussianBlur in="SourceGraphic" stdDeviation="2 30" edgeMode="duplicate" color-interpolation-filters="sRGB" />
</filter>
<filter id="glow">
  <feDropShadow in="FillPaint" dx="0" dy="0" stdDeviation="8" flood-color="var(--c3)" />
</filter>
<filter id="dance" color-interpolation-filters="linearRGB" filterUnits="objectBoundingBox" primitiveUnits="userSpaceOnUse">
  <feMorphology operator="dilate" radius="8 8" in="SourceAlpha" result="morphology"/>
  <feFlood flood-color="#000000" flood-opacity="0.5" result="flood"/>
  <feComposite in="flood" in2="morphology" operator="in" result="composite"/>
  <feComposite in="composite" in2="SourceAlpha" operator="out" result="composite1"/>
  <feTurbulence type="fractalNoise" baseFrequency="0.01 0.02" numOctaves="1" seed="0" stitchTiles="stitch" result="turbulence"/>
  <feDisplacementMap in="composite1" in2="turbulence" scale="17" xChannelSelector="A" yChannelSelector="A" result="displacementMap"/>
  <feMerge result="merge">
    <feMergeNode in="SourceGraphic" result="mergeNode"/>
    <feMergeNode in="displacementMap" result="mergeNode1"/>
  </feMerge>
</filter>
<rect x="0" y="0" id="box-fa9637"  width="1920" height="957"   fill="currentColor" ></rect>
<circle id="circ-fa9637-1" fill="url(#grad-fa9637-1)" cx="1273" cy="48" r="350" filter="url(#motionblurY)"></circle>
<rect   id="rect-fa9637-2" fill="url(#grad-fa9637-2)" x="474" y="95" width="582" height="582" class="square" filter="url(#motionblurY)"></rect>
<path   id="cloud-fa9637-3-c" class="cloud cube" fill="url(#grad-fa9637-3)" d="
  M 845 455 
  C 845,455 1212.5,67.5 1600,435
  C 1600,435 1850,170 2115,420
  C 2115,420 2210,735 1895,830
  C 1895,830 2062.5,852.5 2040,1020
  C 2040,1020 1845,1210 1655,1015
  C 1655,1015 1230,1420 825,995
  C 825,995 730,855 870,760
  C 870,760 705,620 845,455
  Z" >
</path>
<circle id="circ-fa9637-4" fill="url(#grad-fa9637-4)" cx="1727" cy="4" r="487" filter="url(#gaussianblur)"></circle>
<circle id="circ-fa9637-5" fill="url(#grad-fa9637-5)" cx="254" cy="268" r="384" filter="url(#glow)"></circle>
<path   id="cloud-fa9637-6-c" class="cloud cube" fill="url(#grad-fa9637-6)" d="
  M 675 295 
  C 675,295 1160,-170 1625,315
  C 1625,315 1850,410 1755,635
  C 1755,635 1442.5,1127.5 950,815
  C 950,815 552.5,692.5 675,295
  Z" >
</path>
<path   id="cloud-fa9637-7-c" class="cloud cube" fill="url(#grad-fa9637-7)" d="
  M 1060 105 
  C 1060,105 1342.5,-182.5 1630,100
  C 1630,100 1827.5,-137.5 2065,60
  C 2065,60 2262.5,162.5 2160,360
  C 2160,360 2310,470 2200,620
  C 2200,620 1857.5,922.5 1555,580
  C 1555,580 1355,895 1040,695
  C 1040,695 827.5,492.5 1030,280
  C 1030,280 957.5,177.5 1060,105
  Z" >
</path>
<rect   id="rect-fa9637-8" fill="url(#grad-fa9637-8)" x="387" y="535" width="626" height="626" class="square" filter="url(#glow)"></rect>
<g id="flower-fa9637-9" class="flower" fill="url(#grad-fa9637-9)" filter="url(#pointlighting)">
  <path id="petal-fa9637-9-1" class="flower petal" fill="url(#grad-fa9637-9)"  d="
    M 1320 140 
    L 1579,140
    A 45,45 0,0,1 1481,343
    L 1320,140
    Z">
  </path>
  <path id="petal-fa9637-9-2" class="flower petal" fill="url(#grad-fa9637-9)"  d="
    M 1320 140 
    L 1481,343
    A 45,45 0,0,1 1261,393
    L 1320,140
    Z">
  </path>
  <path id="petal-fa9637-9-3" class="flower petal" fill="url(#grad-fa9637-9)"  d="
    M 1320 140 
    L 1261,393
    A 45,45 0,0,1 1085,252
    L 1320,140
    Z">
  </path>
  <path id="petal-fa9637-9-4" class="flower petal" fill="url(#grad-fa9637-9)"  d="
    M 1320 140 
    L 1085,252
    A 45,45 0,0,1 1085,26
    L 1320,140
    Z">
  </path>
  <path id="petal-fa9637-9-5" class="flower petal" fill="url(#grad-fa9637-9)"  d="
    M 1320 140 
    L 1085,26
    A 45,45 0,0,1 1262,-113
    L 1320,140
    Z">
  </path>
  <path id="petal-fa9637-9-6" class="flower petal" fill="url(#grad-fa9637-9)"  d="
    M 1320 140 
    L 1262,-113
    A 45,45 0,0,1 1482,-63
    L 1320,140
    Z">
  </path>
  <path id="petal-fa9637-9-7" class="flower petal" fill="url(#grad-fa9637-9)"  d="
    M 1320 140 
    L 1482,-63
    A 45,45 0,0,1 1579,140
    L 1320,140
    Z">
  </path>
</g>
<circle id="circ-fa9637-10" fill="url(#grad-fa9637-10)" cx="629" cy="296" r="276" filter="url(#motionblurX)"></circle>
<circle id="circ-fa9637-11" fill="url(#grad-fa9637-11)" cx="1229" cy="94" r="562" filter="url(#pointlighting)"></circle>
<g id="flower-fa9637-12" class="flower" fill="url(#grad-fa9637-12)" filter="url(#pointlighting)">
  <path id="petal-fa9637-12-1" class="flower petal" fill="url(#grad-fa9637-12)"  d="
    M 110 780 
    L 369,780
    A 45,45 0,0,1 190,1027
    L 110,780
    Z">
  </path>
  <path id="petal-fa9637-12-2" class="flower petal" fill="url(#grad-fa9637-12)"  d="
    M 110 780 
    L 190,1027
    A 45,45 0,0,1 -100,932
    L 110,780
    Z">
  </path>
  <path id="petal-fa9637-12-3" class="flower petal" fill="url(#grad-fa9637-12)"  d="
    M 110 780 
    L -100,932
    A 45,45 0,0,1 -100,626
    L 110,780
    Z">
  </path>
  <path id="petal-fa9637-12-4" class="flower petal" fill="url(#grad-fa9637-12)"  d="
    M 110 780 
    L -100,626
    A 45,45 0,0,1 190,532
    L 110,780
    Z">
  </path>
  <path id="petal-fa9637-12-5" class="flower petal" fill="url(#grad-fa9637-12)"  d="
    M 110 780 
    L 190,532
    A 45,45 0,0,1 369,780
    L 110,780
    Z">
  </path>
</g>
<circle id="circ-fa9637-13" fill="url(#grad-fa9637-13)" cx="436" cy="4" r="131" filter="url(#glow)"></circle>
<circle id="circ-fa9637-14" fill="url(#grad-fa9637-14)" cx="694" cy="16" r="278" filter="url(#watercolor)"></circle>
<circle id="circ-fa9637-15" fill="url(#grad-fa9637-15)" cx="178" cy="1" r="497" filter="url(#dance)"></circle>
</svg>
