<svg viewBox="0 0 1920 957" id="svg-37f278" fill="none" preserveAspectRatio="xMinYMid slice" xmlns="http://www.w3.org/2000/svg" xmlns:xlink="http://www.w3.org/1999/xlink" >
<style>
* { transform-box: fill-box; } text { font-size:0.65em; }
#svg-37f278 {
  --c0:  #00000000; 
  --c1:  #a17d440f;  --c2:  #b565425c;  --c3:  #65678507;  --c4:  #705e4733;  --c5:  #f907971a;
  --c6:  #8a28e860;  --c7:  #eb39350c;  --c8:  #fa24047b;  --c9:  #b8526b6e;  --c10: #f86b2f2b;
  --c11: #d44e673b;  --c12: #fc5a9e2c;  --c13: #e327365e;  --c14: #6454fa06;  --c15: #76113008;
  --c16: #b47e1056;  --c17: #e40f3d66;  --c18: #e45e4a2d;  --c19: #8815f87d;  --c20: #c94af719;
  --c21: #c335d17d;  --c22: #6d27550b;  --c23: #ca311f7b;  --c24: #6d4e4373;  --c25: #a013ab5d;
  --c26: #8248563a;  --c27: #6b725625;  --c28: #6f76222e;  --c29: #fd74bf50;  --c30: #d66c2542;
  --c31: #b9286d28;  --c32: #fd76eb40;  --c33: #b01eed00;  --c34: #b5453a5a;  --c35: #b364cf14;
  --c36: #d87ce733;  --c37: #fe213247;  --c38: #b85aed00;  --c39: #bf144f23;  --c40: #dd76577d;
  --c41: #7b23c911;  --c42: #9123b427;  --c43: #cb4d3e68;  --c44: #9c1b084f;  --c45: #8c61f24f;
  --c46: #a87e4d4e;  --c47: #ae4a4a6d;  --c48: #eb64ba1e;  --c49: #6e720026;  --c50: #8c722a32;
  --c51: #7100996e;  --c52: #a4405135;  --c53: #686fc108;  --c54: #ec74241e;  --c55: #a2376823;
  --c56: #8768db0f;  --c57: #957ca435;  --c58: #c354bc0e;  --c59: #83189f2d;  --c60: #d05a3311;
  --c61: #a0765142;  --c62: #9f45ea41;  --c63: #ad000772;  --c64: #6969e438;  --c65: #a42fb734;
  --c66: #8f0ae013;  --c67: #ea5ed32c;  --c68: #f5541317;  --c69: #914df64e;  --c70: #b0172a51;
  --c71: #7f17da3c;  --c72: #c7564776;  --c73: #f879b87f;  --c74: #d53df855;  --c75: #ef467819;
  --c76: #e57cd232;  --c77: #dd6be007;  --c78: #8f5f3c44;  --c79: #6c2aa824;  --c80: #8b06c25f;
  --c81: #df56475e;  --c82: #f3059e18;  --c83: #7f160373;  --c84: #81274a7c;  --c85: #d626cc5a;
  --c86: #9e16883f;  --c87: #664db366;  --c88: #be6dd501;  --c89: #d6302977;  --c90: #cb4f3038;
  --c91: #dd183f62;  --c92: #c750d17b;  --c93: #e549ef59;  --c94: #e6052823;  --c95: #ff35b47d;
  --c96: #f7191d16;  --c97: #8143040f;  --c98: #976e7404;  --c99: #df5e9713;  --c100: #aa5f481b;
  --c-count: 100;
}
</style>
<defs>
  <radialGradient id="corner-tlc" gradientUnits="userSpaceOnUse" cx="0" cy="0" r="957">
    <stop offset="0.00" stop-opacity="0.50" stop-color="#db62d2c6"/>
    <stop offset="0.25" stop-opacity="0.33" stop-color="#db62d2c6"/>
    <stop offset="0.75" stop-opacity="0.15" stop-color="#a06f7733"/>
    <stop offset="1.00" stop-opacity="0.0"  stop-color="#32567816"/>
  </radialGradient>
  <radialGradient id="corner-trc" gradientUnits="userSpaceOnUse" cx="1920" cy="0" r="957">
    <stop offset="0.00" stop-opacity="0.50" stop-color="#ba6db46a"/>
    <stop offset="0.25" stop-opacity="0.33" stop-color="#ba6db46a"/>
    <stop offset="0.75" stop-opacity="0.15" stop-color="#9185885b"/>
    <stop offset="1.00" stop-opacity="0.0"  stop-color="#2865382c"/>
  </radialGradient>
  <radialGradient id="corner-blc" gradientUnits="userSpaceOnUse" cx="0" cy="957" r="957">
    <stop offset="0.00" stop-opacity="0.50" stop-color="#8b4f8b6e"/>
    <stop offset="0.25" stop-opacity="0.33" stop-color="#8b4f8b6e"/>
    <stop offset="0.75" stop-opacity="0.15" stop-color="#61966753"/>
    <stop offset="1.00" stop-opacity="0.0"  stop-color="#3f215c10"/>
  </radialGradient>
  <radialGradient id="corner-brc" gradientUnits="userSpaceOnUse" cx="1920" cy="957" r="957">
    <stop offset="0.00" stop-opacity="0.50" stop-color="#d662d79a"/>
    <stop offset="0.25" stop-opacity="0.33" stop-color="#d662d79a"/>
    <stop offset="0.75" stop-opacity="0.15" stop-color="#554ec426"/>
    <stop offset="1.00" stop-opacity="0.0"  stop-color="#4e51642b"/>
  </radialGradient>
  <linearGradient id="grad-37f278-1" gradientUnits="userSpaceOnUse" x1="300" y1="270" x2="1920" y2="957">
    <stop offset="0.00" stop-color="var(--c49)"/>
    <stop offset="0.25" stop-color="var(--c95)"/>
    <stop offset="0.50" stop-color="var(--c82)"/>
    <stop offset="0.75" stop-color="var(--c50)"/>
    <stop offset="1.00" stop-color="var(--c32)"/>
  </linearGradient>
  <radialGradient id="grad-37f278-2" gradientUnits="userSpaceOnUse" cx="1510" cy="650" r="1910">
    <stop offset="0.00" stop-color="var(--c46)"/>
    <stop offset="0.25" stop-color="var(--c17)"/>
    <stop offset="0.50" stop-color="var(--c90)"/>
    <stop offset="0.75" stop-color="var(--c21)"/>
    <stop offset="1.00" stop-color="var(--c48)"/>
  </radialGradient>
  <linearGradient id="grad-37f278-3" gradientUnits="userSpaceOnUse" x1="430" y1="240" x2="1920" y2="957">
    <stop offset="0.00" stop-color="var(--c49)"/>
    <stop offset="0.25" stop-color="var(--c50)"/>
    <stop offset="0.50" stop-color="var(--c37)"/>
    <stop offset="0.75" stop-color="var(--c49)"/>
    <stop offset="1.00" stop-color="var(--c69)"/>
  </linearGradient>
  <radialGradient id="grad-37f278-4" gradientUnits="userSpaceOnUse" cx="1600" cy="390" r="1710">
    <stop offset="0.00" stop-color="var(--c30)"/>
    <stop offset="0.25" stop-color="var(--c80)"/>
    <stop offset="0.50" stop-color="var(--c10)"/>
    <stop offset="0.75" stop-color="var(--c55)"/>
    <stop offset="1.00" stop-color="var(--c23)"/>
  </radialGradient>
  <linearGradient id="grad-37f278-5" gradientUnits="userSpaceOnUse" x1="420" y1="240" x2="1920" y2="957">
    <stop offset="0.00" stop-color="var(--c28)"/>
    <stop offset="0.25" stop-color="var(--c89)"/>
    <stop offset="0.50" stop-color="var(--c77)"/>
    <stop offset="0.75" stop-color="var(--c57)"/>
    <stop offset="1.00" stop-color="var(--c85)"/>
  </linearGradient>
</defs>
<rect x="0" y="0" id="box-37f278"  width="1920" height="957"   fill="#333F" ></rect>
  <path id="37f278-1" class="corner tlc"  fill="url(#corner-tlc)"  d="M 0,0
  L 0,0 1920,0
  Q 1267,803 0,957
  L 0,957 0,0
  Z">
  </path>

  <path id="37f278-2" class="corner trc"  fill="url(#corner-trc)"  d="M 1920,0
  L 1920,0 0,0
  Q 653,803 1920,957
  L 1920,957 1920,0
  Z">
  </path>

  <path id="37f278-3" class="corner blc"  fill="url(#corner-blc)"  d="M 0,957
  L 0,957 0,0
  Q 1267,154 1920,957
  L 1920,957 0,957
  Z">
  </path>

  <path id="37f278-4" class="corner brc"  fill="url(#corner-brc)"  d="M 1920,957
  L 1920,957 1920,0
  Q 653,154 0,957
  L 0,957 1920,957
  Z">
  </path>

<g id="37f278-5" class="nautilus p217"  onclick="this.style.fill = randomColor()" >
  <path  fill="#f809ea07" d="
  M 244,718
  Q 280.75,943.25 483,1049
  L 483,1049 1307,-124
  Q 1508.5,-57.25 1576,144
  L 1576,144 244,718
  Z">
  </path>

  <path  fill="#9b65db5a" d="
  M 483,1049
  Q 630.5,1219 855,1203
  L 855,1203 939,-211
  Q 1144.75,-259.5 1307,-124
  L 1307,-124 483,1049
  Z">
  </path>

  <path  fill="#e528df22" d="
  M 855,1203
  Q 1067,1270.25 1248,1141
  L 1248,1141 583,-95
  Q 732,-242 939,-211
  L 939,-211 855,1203
  Z">
  </path>

  <path  fill="#f7159918" d="
  M 1248,1141
  Q 1460.5,1088.5 1546,887
  L 1546,887 342,189
  Q 391.5,-13.25 583,-95
  L 583,-95 1248,1141
  Z">
  </path>

  <path  fill="#715ef132" d="
  M 1546,887
  Q 1698.25,732.5 1666,518
  L 1666,518 285,556
  Q 221.75,358.25 342,189
  L 342,189 1546,887
  Z">
  </path>

  <path  fill="#d3029232" d="
  M 1666,518
  Q 1714.5,308.5 1576,144
  L 1576,144 433,893
  Q 274.75,761.5 285,556
  L 285,556 1666,518
  Z">
  </path>

  <path  fill="#d825cc1e" d="
  M 1576,144
  Q 1508.5,-57.25 1307,-124
  L 1307,-124 733,1096
  Q 532.25,1069.5 433,893
  L 433,893 1576,144
  Z">
  </path>

  <path  fill="#7d75e110" d="
  M 1307,-124
  Q 1144.75,-259.5 939,-211
  L 939,-211 1089,1113
  Q 906.75,1193.5 733,1096
  L 733,1096 1307,-124
  Z">
  </path>

  <path  fill="#6d7e8450" d="
  M 939,-211
  Q 732,-242 583,-95
  L 583,-95 1397,944
  Q 1285.25,1105.5 1089,1113
  L 1089,1113 939,-211
  Z">
  </path>

  <path  fill="#a2686509" d="
  M 583,-95
  Q 391.5,-13.25 342,189
  L 342,189 1568,643
  Q 1557.75,836.25 1397,944
  L 1397,944 583,-95
  Z">
  </path>

  <path  fill="#8f74ae0a" d="
  M 342,189
  Q 221.75,358.25 285,556
  L 285,556 1557,301
  Q 1648,469.25 1568,643
  L 1568,643 342,189
  Z">
  </path>

  <path  fill="#a9097c7f" d="
  M 285,556
  Q 274.75,761.5 433,893
  L 433,893 1371,19
  Q 1534.5,113.5 1557,301
  L 1557,301 285,556
  Z">
  </path>

  <path  fill="#76479662" d="
  M 433,893
  Q 532.25,1069.5 733,1096
  L 733,1096 1068,-122
  Q 1254.75,-127.25 1371,19
  L 1371,19 433,893
  Z">
  </path>

  <path  fill="#f16d2a01" d="
  M 733,1096
  Q 906.75,1193.5 1089,1113
  L 1089,1113 739,-86
  Q 894.5,-186.25 1068,-122
  L 1068,-122 733,1096
  Z">
  </path>

  <path  fill="#f87e193b" d="
  M 1089,1113
  Q 1285.25,1105.5 1397,944
  L 1397,944 479,116
  Q 558.5,-50 739,-86
  L 739,-86 1089,1113
  Z">
  </path>

  <path  fill="#bf57e750" d="
  M 1397,944
  Q 1557.75,836.25 1568,643
  L 1568,643 365,422
  Q 345.5,240.5 479,116
  L 479,116 1397,944
  Z">
  </path>

  <path  fill="#ac361f29" d="
  M 1568,643
  Q 1648,469.25 1557,301
  L 1557,301 427,741
  Q 316.25,597 365,422
  L 365,422 1568,643
  Z">
  </path>

  <path  fill="#d34b2e57" d="
  M 1557,301
  Q 1534.5,113.5 1371,19
  L 1371,19 648,974
  Q 479.25,912.75 427,741
  L 427,741 1557,301
  Z">
  </path>

  <path  fill="#7c5b8205" d="
  M 1371,19
  Q 1254.75,-127.25 1068,-122
  L 1068,-122 955,1052
  Q 782,1089.75 648,974
  L 648,974 1371,19
  Z">
  </path>

  <path  fill="#793f2e0f" d="
  M 1068,-122
  Q 894.5,-186.25 739,-86
  L 739,-86 1252,960
  Q 1126.5,1080.25 955,1052
  L 955,1052 1068,-122
  Z">
  </path>

  <path  fill="#d820573b" d="
  M 739,-86
  Q 558.5,-50 479,116
  L 479,116 1453,730
  Q 1410,895.25 1252,960
  L 1252,960 739,-86
  Z">
  </path>

  <path  fill="#6c00c774" d="
  M 479,116
  Q 345.5,240.5 365,422
  L 365,422 1504,435
  Q 1552.25,595.25 1453,730
  L 1453,730 479,116
  Z">
  </path>

  <path  fill="#6f2ed93a" d="
  M 365,422
  Q 316.25,597 427,741
  L 427,741 1394,160
  Q 1517.75,270 1504,435
  L 1504,435 365,422
  Z">
  </path>

  <path  fill="#9b11677b" d="
  M 427,741
  Q 479.25,912.75 648,974
  L 648,974 1161,-14
  Q 1321,14.75 1394,160
  L 1394,160 427,741
  Z">
  </path>

  <path  fill="#bb74310f" d="
  M 648,974
  Q 782,1089.75 955,1052
  L 955,1052 873,-41
  Q 1023.75,-99.5 1161,-14
  L 1161,-14 648,974
  Z">
  </path>

  <path  fill="#c841a226" d="
  M 955,1052
  Q 1126.5,1080.25 1252,960
  L 1252,960 617,85
  Q 713.5,-42 873,-41
  L 873,-41 955,1052
  Z">
  </path>

  <path  fill="#d6422856" d="
  M 1252,960
  Q 1410,895.25 1453,730
  L 1453,730 466,324
  Q 481.75,166.75 617,85
  L 617,85 1252,960
  Z">
  </path>

  <path  fill="#ef743401" d="
  M 1453,730
  Q 1552.25,595.25 1504,435
  L 1504,435 463,605
  Q 394.25,463.75 466,324
  L 466,324 1453,730
  Z">
  </path>

  <path  fill="#9c008942" d="
  M 1504,435
  Q 1517.75,270 1394,160
  L 1394,160 606,844
  Q 474.75,760.25 463,605
  L 463,605 1504,435
  Z">
  </path>

  <path  fill="#e76a616d" d="
  M 1394,160
  Q 1321,14.75 1161,-14
  L 1161,-14 852,967
  Q 698.25,967 606,844
  L 606,844 1394,160
  Z">
  </path>

  <path  fill="#bf3d2e5a" d="
  M 1161,-14
  Q 1023.75,-99.5 873,-41
  L 873,-41 1121,940
  Q 993.25,1020.75 852,967
  L 852,967 1161,-14
  Z">
  </path>

  <path  fill="#b0012514" d="
  M 873,-41
  Q 713.5,-42 617,85
  L 617,85 1332,780
  Q 1266.5,912.75 1121,940
  L 1121,940 873,-41
  Z">
  </path>

  <path  fill="#86157647" d="
  M 617,85
  Q 481.75,166.75 466,324
  L 466,324 1425,538
  Q 1439,682.25 1332,780
  L 1332,780 617,85
  Z">
  </path>

  <path  fill="#9164ad6f" d="
  M 466,324
  Q 394.25,463.75 463,605
  L 463,605 1380,288
  Q 1465,401.75 1425,538
  L 1425,538 466,324
  Z">
  </path>

  <path  fill="#bf252708" d="
  M 463,605
  Q 474.75,760.25 606,844
  L 606,844 1214,102
  Q 1343.5,153.5 1380,288
  L 1380,288 463,605
  Z">
  </path>

  <path  fill="#9408ba38" d="
  M 606,844
  Q 698.25,967 852,967
  L 852,967 979,31
  Q 1114.25,7.75 1214,102
  L 1214,102 606,844
  Z">
  </path>

  <path  fill="#e423ca55" d="
  M 852,967
  Q 993.25,1020.75 1121,940
  L 1121,940 745,92
  Q 846.75,3 979,31
  L 979,31 852,967
  Z">
  </path>

  <path  fill="#7d163e59" d="
  M 1121,940
  Q 1266.5,912.75 1332,780
  L 1332,780 579,264
  Q 619,136.5 745,92
  L 745,92 1121,940
  Z">
  </path>

  <path  fill="#6d4f3164" d="
  M 1332,780
  Q 1439,682.25 1425,538
  L 1425,538 528,496
  Q 495.5,367.25 579,264
  L 579,264 1332,780
  Z">
  </path>

  <path  fill="#c16e9e0b" d="
  M 1425,538
  Q 1465,401.75 1380,288
  L 1380,288 605,717
  Q 511.25,625.75 528,496
  L 528,496 1425,538
  Z">
  </path>

  <path  fill="#f23b6f69" d="
  M 1380,288
  Q 1343.5,153.5 1214,102
  L 1214,102 785,865
  Q 658,836 605,717
  L 605,717 1380,288
  Z">
  </path>

  <path  fill="#7274b05f" d="
  M 1214,102
  Q 1114.25,7.75 979,31
  L 979,31 1013,891
  Q 892.5,935 785,865
  L 785,865 1214,102
  Z">
  </path>

  <path  fill="#c1684d33" d="
  M 979,31
  Q 846.75,3 745,92
  L 745,92 1214,792
  Q 1138.25,891.75 1013,891
  L 1013,891 979,31
  Z">
  </path>

  <path  fill="#a41ad538" d="
  M 745,92
  Q 619,136.5 579,264
  L 579,264 1332,608
  Q 1319,729.5 1214,792
  L 1214,792 745,92
  Z">
  </path>

  <path  fill="#8f652601" d="
  M 579,264
  Q 495.5,367.25 528,496
  L 528,496 1336,396
  Q 1387,503 1332,608
  L 1332,608 579,264
  Z">
  </path>

  <path  fill="#f561ad72" d="
  M 528,496
  Q 511.25,625.75 605,717
  L 605,717 1231,216
  Q 1328.5,279.75 1336,396
  L 1336,396 528,496
  Z">
  </path>

  <path  fill="#8b1f2575" d="
  M 605,717
  Q 658,836 785,865
  L 785,865 1052,120
  Q 1165.5,123.25 1231,216
  L 1231,216 605,717
  Z">
  </path>

  <path  fill="#9c24c230" d="
  M 785,865
  Q 892.5,935 1013,891
  L 1013,891 852,131
  Q 949.25,75.5 1052,120
  L 1052,120 785,865
  Z">
  </path>

  <path  fill="#9b46de2b" d="
  M 1013,891
  Q 1138.25,891.75 1214,792
  L 1214,792 691,243
  Q 743.5,146.75 852,131
  L 852,131 1013,891
  Z">
  </path>

  <path  fill="#dc7dab2e" d="
  M 1214,792
  Q 1319,729.5 1332,608
  L 1332,608 612,419
  Q 607.5,311.25 691,243
  L 691,243 1214,792
  Z">
  </path>

  <path  fill="#c1697d0e" d="
  M 1332,608
  Q 1387,503 1336,396
  L 1336,396 638,608
  Q 577.75,520 612,419
  L 612,419 1332,608
  Z">
  </path>

  <path  fill="#666adc6f" d="
  M 1336,396
  Q 1328.5,279.75 1231,216
  L 1231,216 756,755
  Q 660.25,711 638,608
  L 638,608 1336,396
  Z">
  </path>

  <path  fill="#6026b367" d="
  M 1231,216
  Q 1165.5,123.25 1052,120
  L 1052,120 932,816
  Q 828.75,829.5 756,755
  L 756,755 1231,216
  Z">
  </path>

  <path  fill="#af06050e" d="
  M 1052,120
  Q 949.25,75.5 852,131
  L 852,131 1110,773
  Q 1031.75,839 932,816
  L 932,816 1052,120
  Z">
  </path>

  <path  fill="#853cb70d" d="
  M 852,131
  Q 743.5,146.75 691,243
  L 691,243 1233,644
  Q 1203.75,739.25 1110,773
  L 1110,773 852,131
  Z">
  </path>

  <path  fill="#fe49a075" d="
  M 691,243
  Q 607.5,311.25 612,419
  L 612,419 1269,476
  Q 1293,569 1233,644
  L 1233,644 691,243
  Z">
  </path>

  <path  fill="#de604059" d="
  M 612,419
  Q 577.75,520 638,608
  L 638,608 1215,318
  Q 1281.5,383.5 1269,476
  L 1269,476 612,419
  Z">
  </path>

  <path  fill="#6402e022" d="
  M 638,608
  Q 660.25,711 756,755
  L 756,755 1089,216
  Q 1177.5,235.5 1215,318
  L 1215,318 638,608
  Z">
  </path>

  <path  fill="#f4228967" d="
  M 756,755
  Q 828.75,829.5 932,816
  L 932,816 933,194
  Q 1016.5,166 1089,216
  L 1089,216 756,755
  Z">
  </path>

  <path  fill="#a0361028" d="
  M 932,816
  Q 1031.75,839 1110,773
  L 1110,773 793,255
  Q 847.75,189.5 933,194
  L 933,194 932,816
  Z">
  </path>

  <path  fill="#8c30fb08" d="
  M 1110,773
  Q 1203.75,739.25 1233,644
  L 1233,644 706,378
  Q 718.75,294.75 793,255
  L 793,255 1110,773
  Z">
  </path>

  <path  fill="#c524a873" d="
  M 1233,644
  Q 1293,569 1269,476
  L 1269,476 696,525
  Q 664.25,449 706,378
  L 706,378 1233,644
  Z">
  </path>

  <path  fill="#fe534f0c" d="
  M 1269,476
  Q 1281.5,383.5 1215,318
  L 1215,318 764,653
  Q 698,606 696,525
  L 696,525 1269,476
  Z">
  </path>

  <path  fill="#7222ea62" d="
  M 1215,318
  Q 1177.5,235.5 1089,216
  L 1089,216 886,726
  Q 806.75,720 764,653
  L 764,653 1215,318
  Z">
  </path>

  <path  fill="#ff7f4853" d="
  M 1089,216
  Q 1016.5,166 933,194
  L 933,194 1026,724
  Q 956.5,760 886,726
  L 886,726 1089,216
  Z">
  </path>

  <path  fill="#712dbd7f" d="
  M 933,194
  Q 847.75,189.5 793,255
  L 793,255 1140,647
  Q 1102.25,714 1026,724
  L 1026,724 933,194
  Z">
  </path>

  <path  fill="#ac4d530c" d="
  M 793,255
  Q 718.75,294.75 706,378
  L 706,378 1191,525
  Q 1196,598.75 1140,647
  L 1140,647 793,255
  Z">
  </path>

  <path  fill="#b3793d3f" d="
  M 706,378
  Q 664.25,449 696,525
  L 696,525 1171,400
  Q 1212.25,457.5 1191,525
  L 1191,525 706,378
  Z">
  </path>

  <path  fill="#97146972" d="
  M 696,525
  Q 698,606 764,653
  L 764,653 1093,308
  Q 1155,334.5 1171,400
  L 1171,400 696,525
  Z">
  </path>

  <path  fill="#6643536e" d="
  M 764,653
  Q 806.75,720 886,726
  L 886,726 984,271
  Q 1047.75,262.25 1093,308
  L 1093,308 764,653
  Z">
  </path>

  <path  fill="#fc6fa04a" d="
  M 886,726
  Q 956.5,760 1026,724
  L 1026,724 875,296
  Q 923.25,256.25 984,271
  L 984,271 886,726
  Z">
  </path>

  <path  fill="#f7796211" d="
  M 1026,724
  Q 1102.25,714 1140,647
  L 1140,647 798,371
  Q 817.75,314.25 875,296
  L 875,296 1026,724
  Z">
  </path>

  <path  fill="#73430d03" d="
  M 1140,647
  Q 1196,598.75 1191,525
  L 1191,525 772,472
  Q 759.75,415 798,371
  L 798,371 1140,647
  Z">
  </path>

  <path  fill="#a308c976" d="
  M 1191,525
  Q 1212.25,457.5 1171,400
  L 1171,400 801,568
  Q 762.5,527.25 772,472
  L 772,472 1191,525
  Z">
  </path>

  <path  fill="#e92f064f" d="
  M 1171,400
  Q 1155,334.5 1093,308
  L 1093,308 874,634
  Q 821,619.25 801,568
  L 801,568 1171,400
  Z">
  </path>

  <path  fill="#8562d037" d="
  M 1093,308
  Q 1047.75,262.25 984,271
  L 984,271 969,652
  Q 917,666.75 874,634
  L 874,634 1093,308
  Z">
  </path>

  <path  fill="#9020a140" d="
  M 984,271
  Q 923.25,256.25 875,296
  L 875,296 1057,618
  Q 1021.5,657 969,652
  L 969,652 984,271
  Z">
  </path>

  <path  fill="#ed1fd26d" d="
  M 875,296
  Q 817.75,314.25 798,371
  L 798,371 1109,543
  Q 1101.75,593.5 1057,618
  L 1057,618 875,296
  Z">
  </path>

  <path  fill="#b6425645" d="
  M 798,371
  Q 759.75,415 772,472
  L 772,472 1109,456
  Q 1130.75,499.5 1109,543
  L 1109,543 798,371
  Z">
  </path>

  <path  fill="#e40dfa26" d="
  M 772,472
  Q 762.5,527.25 801,568
  L 801,568 1068,388
  Q 1105.5,411.75 1109,456
  L 1109,456 772,472
  Z">
  </path>

  <path  fill="#c91a1d3b" d="
  M 801,568
  Q 821,619.25 874,634
  L 874,634 1002,353
  Q 1043.75,354 1068,388
  L 1068,388 801,568
  Z">
  </path>

  <path  fill="#9e495148" d="
  M 874,634
  Q 917,666.75 969,652
  L 969,652 932,358
  Q 965.75,338 1002,353
  L 1002,353 874,634
  Z">
  </path>

  <path  fill="#7b55bb5a" d="
  M 969,652
  Q 1021.5,657 1057,618
  L 1057,618 878,395
  Q 895.75,363 932,358
  L 932,358 969,652
  Z">
  </path>

  <path  fill="#a82aaf53" d="
  M 1057,618
  Q 1101.75,593.5 1109,543
  L 1109,543 854,452
  Q 851.75,417.5 878,395
  L 878,395 1057,618
  Z">
  </path>

  <path  fill="#7539c15f" d="
  M 1109,543
  Q 1130.75,499.5 1109,456
  L 1109,456 861,509
  Q 843.25,482.25 854,452
  L 854,452 1109,543
  Z">
  </path>

  <path  fill="#8b057f5b" d="
  M 1109,456
  Q 1105.5,411.75 1068,388
  L 1068,388 896,552
  Q 867.75,539.25 861,509
  L 861,509 1109,456
  Z">
  </path>

  <path  fill="#b772e428" d="
  M 1068,388
  Q 1043.75,354 1002,353
  L 1002,353 945,570
  Q 916,573.25 896,552
  L 896,552 1068,388
  Z">
  </path>

  <path  fill="#66278f2b" d="
  M 1002,353
  Q 965.75,338 932,358
  L 932,358 994,560
  Q 972,577.25 945,570
  L 945,570 1002,353
  Z">
  </path>

  <path  fill="#893de85b" d="
  M 932,358
  Q 895.75,363 878,395
  L 878,395 1030,528
  Q 1020,553 994,560
  L 994,560 932,358
  Z">
  </path>

  <path  fill="#a823044b" d="
  M 878,395
  Q 851.75,417.5 854,452
  L 854,452 1038,483
  Q 1045.25,507.5 1030,528
  L 1030,528 878,395
  Z">
  </path>

  <path  fill="#63701e72" d="
  M 854,452
  Q 843.25,482.25 861,509
  L 861,509 1019,446
  Q 1037.75,459.75 1038,483
  L 1038,483 854,452
  Z">
  </path>

  <path  fill="#e60b0c7c" d="
  M 861,509
  Q 867.75,539.25 896,552
  L 896,552 988,429
  Q 1007.75,429.75 1019,446
  L 1019,446 861,509
  Z">
  </path>

  <path  fill="#8470224a" d="
  M 896,552
  Q 916,573.25 945,570
  L 945,570 959,431
  Q 973,422.75 988,429
  L 988,429 896,552
  Z">
  </path>

  <path  fill="#6978d269" d="
  M 945,570
  Q 972,577.25 994,560
  L 994,560 939,445
  Q 945.5,433 959,431
  L 959,431 945,570
  Z">
  </path>

  <path  fill="#b84b584a" d="
  M 994,560
  Q 1020,553 1030,528
  L 1030,528 932,464
  Q 930.75,452.75 939,445
  L 939,445 994,560
  Z">
  </path>

  <path  fill="#67302767" d="
  M 1030,528
  Q 1045.25,507.5 1038,483
  L 1038,483 935,480
  Q 929.5,472.75 932,464
  L 932,464 1030,528
  Z">
  </path>

  <path  fill="#e77cc464" d="
  M 1038,483
  Q 1037.75,459.75 1019,446
  L 1019,446 945,489
  Q 937.75,487 935,480
  L 935,480 1038,483
  Z">
  </path>

  <path  fill="#b747022b" d="
  M 1019,446
  Q 1007.75,429.75 988,429
  L 988,429 955,490
  Q 949.75,492 945,489
  L 945,489 1019,446
  Z">
  </path>

  <path  fill="#945b2464" d="
  M 988,429
  Q 973,422.75 959,431
  L 959,431 961,486
  Q 959,489.5 955,490
  L 955,490 988,429
  Z">
  </path>

  <path  fill="#fb5acd50" d="
  M 959,431
  Q 945.5,433 939,445
  L 939,445 963,481
  Q 963.25,484 961,486
  L 961,486 959,431
  Z">
  </path>

  <path  fill="#d81f0d38" d="
  M 939,445
  Q 930.75,452.75 932,464
  L 932,464 961,478
  Q 962.75,479 963,481
  L 963,481 939,445
  Z">
  </path>

  <path  fill="#9f6a4c21" d="
  M 932,464
  Q 929.5,472.75 935,480
  L 935,480 960,478
  Q 960.5,477.75 961,478
  L 961,478 932,464
  Z">
  </path>

</g>
</svg>
