<svg viewBox="0 0 1920 957" id="svg-13a245" fill="none" xmlns="http://www.w3.org/2000/svg" xmlns:xlink="http://www.w3.org/1999/xlink" >
preserveAspectRatio="slice" <style>
#svg-13a245 {
  --c0:  #00000000; 
  --c1:  #00955ea8;  --c2:  #6451f807;  --c3:  #2c96910b;  --c4:  #fba492ef;  --c5:  #fbf02ece;
  --c6:  #ca68c65f;  --c7:  #443e0ad8;  --c8:  #334ed4d8;  --c9:  #0c6187cd;  --c10: #756826de;
  --c11: #7fd0c130;  --c12: #41e1c074;  --c13: #61693d12;  --c14: #e83923ec;  --c15: #fcfc345a;
  --c16: #8c2cc4f2;  --c17: #f052b595;  --c18: #4ca26f5c;  --c19: #fcdef78c;  --c20: #09fb672e;
  --c21: #c9a3a83b;  --c22: #278ce948;  --c23: #cafc5b70;  --c24: #b1d3f4c0;  --c25: #bd104960;
  --c26: #b3c02562;  --c27: #7d3b0eb3;  --c28: #3732f429;  --c29: #4c68c6d4;  --c30: #8bea4b6d;
  --c31: #e7d03509;  --c32: #15369986;  --c33: #58fed1bc;  --c34: #3ff34271;  --c35: #dc89024c;
  --c36: #efb80254;  --c37: #35f763bc;  --c38: #7bd0a488;  --c39: #f896ae46;  --c40: #f01c93a2;
  --c41: #058c49d6;  --c42: #8e3ecda3;  --c43: #005f8739;  --c44: #880e0242;  --c45: #24e1f5ef;
  --c46: #508dee39;  --c47: #e13eba80;  --c48: #41b3cc1e;  --c49: #9d3eb8d1;  --c50: #3c1fd1d8;
  --c51: #f6f47cf4;  --c52: #03769ce4;  --c53: #abcee6ba;  --c54: #9bac316f;  --c55: #93921b29;
  --c56: #5a480be4;  --c57: #44d1f41f;  --c58: #c40d5575;  --c59: #0e3b7bcf;  --c60: #6d6a4fd4;
  --c61: #673befbb;  --c62: #274194e7;  --c63: #0a9d65cc;  --c64: #b5c333a6;  --c65: #e7b8410f;
  --c66: #4180d3c2;  --c67: #eeca3568;  --c68: #fc4f68b9;  --c69: #60ef39a6;  --c70: #365f50ca;
  --c71: #cb8311e0;  --c72: #38c1e245;  --c73: #364c5a51;  --c74: #9fd87cb6;  --c75: #2d6dd66d;
  --c76: #de75150a;  --c77: #db72ec22;  --c78: #f755d635;  --c79: #afeff1fe;  --c80: #3b8b0ce5;
  --c81: #8727ba37;  --c82: #b56e4cd4;  --c83: #7d655d57;  --c84: #3d714cfd;  --c85: #fc7739b7;
  --c86: #9730ab40;  --c87: #e0e364c2;  --c88: #22889050;  --c89: #7d2beb20;  --c90: #7a8311f5;
  --c91: #30d8dc5f;  --c92: #2577f14b;  --c93: #98f63f51;  --c94: #9e60f7eb;  --c95: #e46eb389;
  --c96: #3c05e4f1;  --c97: #79eba6f6;  --c98: #8157f0c5;  --c99: #b6453edd;  --c100: #ec339013;
  --c-count: 100;
}
</style>
<defs>
  <linearGradient id="grad-13a245-1" gradientUnits="userSpaceOnUse" x1="650" y1="100" x2="1920" y2="957">
    <stop offset="0.00" stop-color="var(--c89)"/>
    <stop offset="0.50" stop-color="var(--c86)"/>
    <stop offset="1.00" stop-color="var(--c69)"/>
  </linearGradient>
  <radialGradient id="grad-13a245-2" gradientUnits="userSpaceOnUse" cx="1090" cy="710" r="1720">
    <stop offset="0.00" stop-color="var(--c20)"/>
    <stop offset="0.50" stop-color="var(--c13)"/>
    <stop offset="1.00" stop-color="var(--c81)"/>
  </radialGradient>
  <linearGradient id="grad-13a245-3" gradientUnits="userSpaceOnUse" x1="930" y1="270" x2="1920" y2="957">
    <stop offset="0.00" stop-color="var(--c46)"/>
    <stop offset="0.50" stop-color="var(--c82)"/>
    <stop offset="1.00" stop-color="var(--c68)"/>
  </linearGradient>
  <radialGradient id="grad-13a245-4" gradientUnits="userSpaceOnUse" cx="1220" cy="200" r="1800">
    <stop offset="0.00" stop-color="var(--c88)"/>
    <stop offset="0.50" stop-color="var(--c25)"/>
    <stop offset="1.00" stop-color="var(--c56)"/>
  </radialGradient>
  <linearGradient id="grad-13a245-5" gradientUnits="userSpaceOnUse" x1="100" y1="140" x2="1920" y2="957">
    <stop offset="0.00" stop-color="var(--c45)"/>
    <stop offset="0.50" stop-color="var(--c46)"/>
    <stop offset="1.00" stop-color="var(--c21)"/>
  </linearGradient>
  <radialGradient id="grad-13a245-6" gradientUnits="userSpaceOnUse" cx="1190" cy="570" r="1030">
    <stop offset="0.00" stop-color="var(--c83)"/>
    <stop offset="0.50" stop-color="var(--c75)"/>
    <stop offset="1.00" stop-color="var(--c2)"/>
  </radialGradient>
  <linearGradient id="grad-13a245-7" gradientUnits="userSpaceOnUse" x1="780" y1="270" x2="1920" y2="957">
    <stop offset="0.00" stop-color="var(--c42)"/>
    <stop offset="0.50" stop-color="var(--c11)"/>
    <stop offset="1.00" stop-color="var(--c85)"/>
  </linearGradient>
  <radialGradient id="grad-13a245-8" gradientUnits="userSpaceOnUse" cx="1280" cy="130" r="1000">
    <stop offset="0.00" stop-color="var(--c2)"/>
    <stop offset="0.50" stop-color="var(--c95)"/>
    <stop offset="1.00" stop-color="var(--c84)"/>
  </radialGradient>
  <linearGradient id="grad-13a245-9" gradientUnits="userSpaceOnUse" x1="680" y1="120" x2="1920" y2="957">
    <stop offset="0.00" stop-color="var(--c61)"/>
    <stop offset="0.50" stop-color="var(--c22)"/>
    <stop offset="1.00" stop-color="var(--c19)"/>
  </linearGradient>
  <radialGradient id="grad-13a245-10" gradientUnits="userSpaceOnUse" cx="820" cy="640" r="1800">
    <stop offset="0.00" stop-color="var(--c92)"/>
    <stop offset="0.50" stop-color="var(--c16)"/>
    <stop offset="1.00" stop-color="var(--c34)"/>
  </radialGradient>
  <linearGradient id="grad-13a245-11" gradientUnits="userSpaceOnUse" x1="180" y1="170" x2="1920" y2="957">
    <stop offset="0.00" stop-color="var(--c2)"/>
    <stop offset="0.50" stop-color="var(--c32)"/>
    <stop offset="1.00" stop-color="var(--c90)"/>
  </linearGradient>
  <radialGradient id="grad-13a245-12" gradientUnits="userSpaceOnUse" cx="900" cy="490" r="1540">
    <stop offset="0.00" stop-color="var(--c19)"/>
    <stop offset="0.50" stop-color="var(--c33)"/>
    <stop offset="1.00" stop-color="var(--c92)"/>
  </radialGradient>
  <linearGradient id="grad-13a245-13" gradientUnits="userSpaceOnUse" x1="100" y1="240" x2="1920" y2="957">
    <stop offset="0.00" stop-color="var(--c43)"/>
    <stop offset="0.50" stop-color="var(--c81)"/>
    <stop offset="1.00" stop-color="var(--c88)"/>
  </linearGradient>
  <radialGradient id="grad-13a245-14" gradientUnits="userSpaceOnUse" cx="200" cy="640" r="1220">
    <stop offset="0.00" stop-color="var(--c98)"/>
    <stop offset="0.50" stop-color="var(--c87)"/>
    <stop offset="1.00" stop-color="var(--c6)"/>
  </radialGradient>
</defs>
<filter id="displacement">
  <feTurbulence baseFrequency="0.023" seed="683" result="turbulence" />
  <feDisplacementMap in2="turbulence" in="SourceGraphic" scale="52" xChannelSelector="R" yChannelSelector="G" />
</filter>
<filter id="gaussianblur">
  <feGaussianBlur in="SourceGraphic" stdDeviation="10 30" edgeMode="duplicate" color-interpolation-filters="sRGB" />
</filter>
<filter id="glow">
  <feDropShadow in="FillPaint" dx="0" dy="0" stdDeviation="22" flood-color="var(--c9)" />
</filter>
<filter id="dance" color-interpolation-filters="linearRGB" filterUnits="objectBoundingBox" primitiveUnits="userSpaceOnUse">
  <feMorphology operator="dilate" radius="8 8" in="SourceAlpha" result="morphology"/>
  <feFlood flood-color="#000000" flood-opacity="0.5" result="flood"/>
  <feComposite in="flood" in2="morphology" operator="in" result="composite"/>
  <feComposite in="composite" in2="SourceAlpha" operator="out" result="composite1"/>
  <feTurbulence type="fractalNoise" baseFrequency="0.01 0.02" numOctaves="1" seed="0" stitchTiles="stitch" result="turbulence"/>
  <feDisplacementMap in="composite1" in2="turbulence" scale="17" xChannelSelector="A" yChannelSelector="A" result="displacementMap"/>
  <feMerge result="merge">
    <feMergeNode in="SourceGraphic" result="mergeNode"/>
    <feMergeNode in="displacementMap" result="mergeNode1"/>
  </feMerge>
</filter>
<rect x="0" y="0" id="box-13a245"  width="1920" height="957"   fill="currentColor" ></rect>
  <polygon id="triangle-13a245-1-3" class="triangle" fill="url(#grad-13a245-1)"  filter="url(#glow)"  points="1259,120 974,284 975,-44 " stroke-width="40" stroke="#00000033">
  </polygon>

<g id="flower-13a245-2" class="flower"  fill="url(#grad-13a245-2)"  filter="url(#glow)" >
  <path id="petal-13a245-2-1" class="flower petal" fill="url(#grad-13a245-2)"  filter="url(#glow)" stroke-width="0" stroke="#99999966"  d="
    M 170 450 
    L 449,450
    A 45,45 0,0,1 309,692
    L 170,450
    Z">
  </path>
  <path id="petal-13a245-2-2" class="flower petal" fill="url(#grad-13a245-2)"  filter="url(#glow)" stroke-width="0" stroke="#99999966"  d="
    M 170 450 
    L 309,692
    A 45,45 0,0,1 29,692
    L 170,450
    Z">
  </path>
  <path id="petal-13a245-2-3" class="flower petal" fill="url(#grad-13a245-2)"  filter="url(#glow)" stroke-width="0" stroke="#99999966"  d="
    M 170 450 
    L 29,692
    A 45,45 0,0,1 -109,449
    L 170,450
    Z">
  </path>
  <path id="petal-13a245-2-4" class="flower petal" fill="url(#grad-13a245-2)"  filter="url(#glow)" stroke-width="0" stroke="#99999966"  d="
    M 170 450 
    L -109,449
    A 45,45 0,0,1 30,207
    L 170,450
    Z">
  </path>
  <path id="petal-13a245-2-5" class="flower petal" fill="url(#grad-13a245-2)"  filter="url(#glow)" stroke-width="0" stroke="#99999966"  d="
    M 170 450 
    L 30,207
    A 45,45 0,0,1 310,207
    L 170,450
    Z">
  </path>
  <path id="petal-13a245-2-6" class="flower petal" fill="url(#grad-13a245-2)"  filter="url(#glow)" stroke-width="0" stroke="#99999966"  d="
    M 170 450 
    L 310,207
    A 45,45 0,0,1 449,450
    L 170,450
    Z">
  </path>
</g>
  <polygon id="oddagon-13a245-3-7" class="oddagon poly11" fill="url(#grad-13a245-3)"  filter="url(#dance)"  points="1059,400 1025,519 931,600 808,617 695,566 628,461 628,337 696,233 808,182 931,199 1025,281 " stroke-width="2" stroke="#33993366">
  </polygon>

<circle id="circ-13a245-4"  r="91" cx="1528" cy="96"  fill="url(#grad-13a245-4)" stroke-width="100" stroke="#99CC9933"  filter="url(#dance)"></circle>
<g id="flower-13a245-5" class="flower"  fill="url(#grad-13a245-5)"  filter="url(#glow)" >
  <path id="petal-13a245-5-1" class="flower petal" fill="url(#grad-13a245-5)"  filter="url(#glow)" stroke-width="0" stroke="#99999966"  d="
    M 1610 350 
    L 1789,350
    A 45,45 0,0,1 1699,505
    L 1610,350
    Z">
  </path>
  <path id="petal-13a245-5-2" class="flower petal" fill="url(#grad-13a245-5)"  filter="url(#glow)" stroke-width="0" stroke="#99999966"  d="
    M 1610 350 
    L 1699,505
    A 45,45 0,0,1 1519,505
    L 1610,350
    Z">
  </path>
  <path id="petal-13a245-5-3" class="flower petal" fill="url(#grad-13a245-5)"  filter="url(#glow)" stroke-width="0" stroke="#99999966"  d="
    M 1610 350 
    L 1519,505
    A 45,45 0,0,1 1430,349
    L 1610,350
    Z">
  </path>
  <path id="petal-13a245-5-4" class="flower petal" fill="url(#grad-13a245-5)"  filter="url(#glow)" stroke-width="0" stroke="#99999966"  d="
    M 1610 350 
    L 1430,349
    A 45,45 0,0,1 1520,194
    L 1610,350
    Z">
  </path>
  <path id="petal-13a245-5-5" class="flower petal" fill="url(#grad-13a245-5)"  filter="url(#glow)" stroke-width="0" stroke="#99999966"  d="
    M 1610 350 
    L 1520,194
    A 45,45 0,0,1 1700,194
    L 1610,350
    Z">
  </path>
  <path id="petal-13a245-5-6" class="flower petal" fill="url(#grad-13a245-5)"  filter="url(#glow)" stroke-width="0" stroke="#99999966"  d="
    M 1610 350 
    L 1700,194
    A 45,45 0,0,1 1789,350
    L 1610,350
    Z">
  </path>
</g>
<circle id="circ-13a245-6"  r="418" cx="453" cy="1034"  fill="url(#grad-13a245-6)" stroke-width="100" stroke="#99CC9933"  filter="url(#pointlighting)"></circle>
<circle id="circ-13a245-7"  r="274" cx="690" cy="111"  fill="url(#grad-13a245-7)" stroke-width="100" stroke="#99CC9933"  filter="url(#gaussianblur)"></circle>
<path   id="cloud-13a245-8-c" class="cloud cube"  fill="url(#grad-13a245-8)"  filter="url(#glow)"  d="
  M 325 240 
  C 325,240 487.5,27.5 700,190
  C 700,190 1060,-50 1300,310
  C 1300,310 1325,390 1245,415
  C 1245,415 1542.5,482.5 1475,780
  C 1475,780 1125,1125 780,775
  C 780,775 557.5,1027.5 305,805
  C 305,805 70,630 245,395
  C 245,395 207.5,277.5 325,240
  Z"  stroke-width="2"  stroke="#FFFFFF33">
</path>
<circle id="circ-13a245-9"  r="671" cx="515" cy="902"  fill="url(#grad-13a245-9)" stroke-width="100" stroke="#99CC9933"  filter="url(#glow)"></circle>
<circle id="circ-13a245-10"  r="663" cx="36" cy="361"  fill="url(#grad-13a245-10)" stroke-width="100" stroke="#99CC9933"  filter="url(#displacement)"></circle>
  <polygon id="randogon-13a245-11-9" class="randogon poly14" fill="url(#grad-13a245-11)"  filter="url(#glow)"  points="1719,590 1708,642 1674,683 1626,707 1573,706 1525,683 1491,642 1480,589 1491,537 1525,496 1573,472 1626,473 1674,496 1708,537 " stroke-width="0" stroke="#CCCC0066">
  </polygon>

  <polygon id="triangle-13a245-12-15" class="triangle" fill="url(#grad-13a245-12)"  filter="url(#glow)"  points="499,510 49,769 50,249 " stroke-width="40" stroke="#00000033">
  </polygon>

<rect   id="rect-13a245-13" x="136" y="299" width="706" height="706" class="square"  fill="url(#grad-13a245-13)" stroke-width="1" stroke="#00000099"  filter="url(#glow)" ></rect>
<path   id="cloud-13a245-14-c" class="cloud cube"  fill="url(#grad-13a245-14)"  filter="url(#displacement)"  d="
  M 1090 290 
  C 1090,290 1357.5,87.5 1560,355
  C 1560,355 1827.5,367.5 1815,635
  C 1815,635 1432.5,957.5 1110,575
  C 1110,575 957.5,442.5 1090,290
  Z"  stroke-width="2"  stroke="#FFFFFF33">
</path>
</svg>
