<svg viewBox="0 0 1920 957" id="svg-493379" fill="none" preserveAspectRatio="xMinYMid slice" xmlns="http://www.w3.org/2000/svg" xmlns:xlink="http://www.w3.org/1999/xlink" >
<style>
text { font-size:0.65em; }
#svg-493379 {
  --c0:  #00000000; 
  --c1:  #a7a96686;  --c2:  #b696ea84;  --c3:  #3516d5ca;  --c4:  #93fc9e61;  --c5:  #a238e5c2;
  --c6:  #152f09f5;  --c7:  #a4b92d04;  --c8:  #a82aba4d;  --c9:  #b624fda9;  --c10: #d8d67a23;
  --c11: #f10648ab;  --c12: #76ce76cb;  --c13: #97e7e353;  --c14: #dcae6e58;  --c15: #ee19e59c;
  --c16: #6cc7a18a;  --c17: #12d83e94;  --c18: #519372c2;  --c19: #019fed75;  --c20: #136e0201;
  --c21: #b0b89e90;  --c22: #024b4112;  --c23: #a41e788c;  --c24: #5757eb49;  --c25: #9e565ad6;
  --c26: #9622527d;  --c27: #fc507d58;  --c28: #898eac39;  --c29: #5055bff0;  --c30: #20fb966a;
  --c31: #5652d25e;  --c32: #75e9dadd;  --c33: #9dcd1761;  --c34: #04cad0c9;  --c35: #aab0e24c;
  --c36: #db2ed657;  --c37: #575c402a;  --c38: #a59439d4;  --c39: #d58a7a17;  --c40: #c9794503;
  --c41: #b2f412e0;  --c42: #1e7709cc;  --c43: #1ac727f9;  --c44: #758a66ad;  --c45: #58c15c1f;
  --c46: #9fdceb14;  --c47: #71149e28;  --c48: #1d26a81e;  --c49: #bba5ba0d;  --c50: #af2342b0;
  --c51: #26e5d1d9;  --c52: #f67c7429;  --c53: #2c2edfa2;  --c54: #83afebde;  --c55: #10d68393;
  --c56: #8c3f3e6b;  --c57: #9d91bac5;  --c58: #f711b5d6;  --c59: #30b3b9ad;  --c60: #e6a90afc;
  --c61: #ddd03af9;  --c62: #0ce493b5;  --c63: #9ab6106a;  --c64: #c7b23148;  --c65: #72dc0431;
  --c66: #b8a2e962;  --c67: #356c0506;  --c68: #9f9e1974;  --c69: #72c418a0;  --c70: #ce63717f;
  --c71: #a75323c2;  --c72: #9080f73a;  --c73: #e8441f98;  --c74: #f5a5bf22;  --c75: #02677a36;
  --c76: #b9251267;  --c77: #acc2bccc;  --c78: #6a0383b6;  --c79: #2c41906d;  --c80: #062eadf2;
  --c81: #843801ff;  --c82: #0c1bf5ab;  --c83: #003d2d48;  --c84: #307b9317;  --c85: #3a6b6618;
  --c86: #45b3ce04;  --c87: #101ea6a8;  --c88: #109544e7;  --c89: #991ee3a9;  --c90: #f9d61fee;
  --c91: #e21e2c6b;  --c92: #a856365e;  --c93: #4b43b622;  --c94: #0a94fae5;  --c95: #0ef0052e;
  --c96: #d15803b2;  --c97: #b80f25f1;  --c98: #866d6fbf;  --c99: #2072303d;  --c100: #c30a0119;
  --c-count: 100;
}
</style>
<defs>
  <linearGradient id="grad-493379-1" gradientUnits="userSpaceOnUse" x1="540" y1="180" x2="1920" y2="957">
    <stop offset="0.00" stop-color="var(--c24)"/>
    <stop offset="0.25" stop-color="var(--c53)"/>
    <stop offset="0.50" stop-color="var(--c57)"/>
    <stop offset="0.75" stop-color="var(--c36)"/>
    <stop offset="1.00" stop-color="var(--c20)"/>
  </linearGradient>
  <radialGradient id="grad-493379-2" gradientUnits="userSpaceOnUse" cx="470" cy="110" r="1430">
    <stop offset="0.00" stop-color="var(--c53)"/>
    <stop offset="0.25" stop-color="var(--c42)"/>
    <stop offset="0.50" stop-color="var(--c58)"/>
    <stop offset="0.75" stop-color="var(--c67)"/>
    <stop offset="1.00" stop-color="var(--c23)"/>
  </radialGradient>
  <linearGradient id="grad-493379-3" gradientUnits="userSpaceOnUse" x1="320" y1="180" x2="1920" y2="957">
    <stop offset="0.00" stop-color="var(--c40)"/>
    <stop offset="0.25" stop-color="var(--c60)"/>
    <stop offset="0.50" stop-color="var(--c99)"/>
    <stop offset="0.75" stop-color="var(--c21)"/>
    <stop offset="1.00" stop-color="var(--c97)"/>
  </linearGradient>
  <radialGradient id="grad-493379-4" gradientUnits="userSpaceOnUse" cx="520" cy="360" r="1420">
    <stop offset="0.00" stop-color="var(--c25)"/>
    <stop offset="0.25" stop-color="var(--c17)"/>
    <stop offset="0.50" stop-color="var(--c64)"/>
    <stop offset="0.75" stop-color="var(--c40)"/>
    <stop offset="1.00" stop-color="var(--c65)"/>
  </radialGradient>
  <linearGradient id="grad-493379-5" gradientUnits="userSpaceOnUse" x1="220" y1="280" x2="1920" y2="957">
    <stop offset="0.00" stop-color="var(--c38)"/>
    <stop offset="0.25" stop-color="var(--c89)"/>
    <stop offset="0.50" stop-color="var(--c11)"/>
    <stop offset="0.75" stop-color="var(--c13)"/>
    <stop offset="1.00" stop-color="var(--c9)"/>
  </linearGradient>
  <radialGradient id="grad-493379-6" gradientUnits="userSpaceOnUse" cx="1090" cy="830" r="1680">
    <stop offset="0.00" stop-color="var(--c18)"/>
    <stop offset="0.25" stop-color="var(--c69)"/>
    <stop offset="0.50" stop-color="var(--c27)"/>
    <stop offset="0.75" stop-color="var(--c76)"/>
    <stop offset="1.00" stop-color="var(--c19)"/>
  </radialGradient>
  <linearGradient id="grad-493379-7" gradientUnits="userSpaceOnUse" x1="170" y1="160" x2="1920" y2="957">
    <stop offset="0.00" stop-color="var(--c24)"/>
    <stop offset="0.25" stop-color="var(--c96)"/>
    <stop offset="0.50" stop-color="var(--c44)"/>
    <stop offset="0.75" stop-color="var(--c91)"/>
    <stop offset="1.00" stop-color="var(--c8)"/>
  </linearGradient>
  <radialGradient id="grad-493379-8" gradientUnits="userSpaceOnUse" cx="140" cy="270" r="1880">
    <stop offset="0.00" stop-color="var(--c40)"/>
    <stop offset="0.25" stop-color="var(--c24)"/>
    <stop offset="0.50" stop-color="var(--c28)"/>
    <stop offset="0.75" stop-color="var(--c42)"/>
    <stop offset="1.00" stop-color="var(--c92)"/>
  </radialGradient>
  <linearGradient id="grad-493379-9" gradientUnits="userSpaceOnUse" x1="830" y1="160" x2="1920" y2="957">
    <stop offset="0.00" stop-color="var(--c36)"/>
    <stop offset="0.25" stop-color="var(--c75)"/>
    <stop offset="0.50" stop-color="var(--c16)"/>
    <stop offset="0.75" stop-color="var(--c18)"/>
    <stop offset="1.00" stop-color="var(--c51)"/>
  </linearGradient>
  <radialGradient id="grad-493379-10" gradientUnits="userSpaceOnUse" cx="560" cy="540" r="1620">
    <stop offset="0.00" stop-color="var(--c41)"/>
    <stop offset="0.25" stop-color="var(--c19)"/>
    <stop offset="0.50" stop-color="var(--c68)"/>
    <stop offset="0.75" stop-color="var(--c34)"/>
    <stop offset="1.00" stop-color="var(--c89)"/>
  </radialGradient>
  <linearGradient id="grad-493379-11" gradientUnits="userSpaceOnUse" x1="850" y1="180" x2="1920" y2="957">
    <stop offset="0.00" stop-color="var(--c30)"/>
    <stop offset="0.25" stop-color="var(--c52)"/>
    <stop offset="0.50" stop-color="var(--c14)"/>
    <stop offset="0.75" stop-color="var(--c63)"/>
    <stop offset="1.00" stop-color="var(--c77)"/>
  </linearGradient>
  <radialGradient id="grad-493379-12" gradientUnits="userSpaceOnUse" cx="1510" cy="490" r="1690">
    <stop offset="0.00" stop-color="var(--c10)"/>
    <stop offset="0.25" stop-color="var(--c4)"/>
    <stop offset="0.50" stop-color="var(--c38)"/>
    <stop offset="0.75" stop-color="var(--c78)"/>
    <stop offset="1.00" stop-color="var(--c45)"/>
  </radialGradient>
  <linearGradient id="grad-493379-13" gradientUnits="userSpaceOnUse" x1="460" y1="270" x2="1920" y2="957">
    <stop offset="0.00" stop-color="var(--c52)"/>
    <stop offset="0.25" stop-color="var(--c47)"/>
    <stop offset="0.50" stop-color="var(--c31)"/>
    <stop offset="0.75" stop-color="var(--c5)"/>
    <stop offset="1.00" stop-color="var(--c65)"/>
  </linearGradient>
  <radialGradient id="grad-493379-14" gradientUnits="userSpaceOnUse" cx="780" cy="380" r="1570">
    <stop offset="0.00" stop-color="var(--c40)"/>
    <stop offset="0.25" stop-color="var(--c39)"/>
    <stop offset="0.50" stop-color="var(--c54)"/>
    <stop offset="0.75" stop-color="var(--c8)"/>
    <stop offset="1.00" stop-color="var(--c87)"/>
  </radialGradient>
  <linearGradient id="grad-493379-15" gradientUnits="userSpaceOnUse" x1="700" y1="110" x2="1920" y2="957">
    <stop offset="0.00" stop-color="var(--c49)"/>
    <stop offset="0.25" stop-color="var(--c70)"/>
    <stop offset="0.50" stop-color="var(--c78)"/>
    <stop offset="0.75" stop-color="var(--c47)"/>
    <stop offset="1.00" stop-color="var(--c73)"/>
  </linearGradient>
<filter id="gaussianblur">
  <feGaussianBlur in="SourceGraphic" stdDeviation="14 11" edgeMode="duplicate" color-interpolation-filters="sRGB" />
</filter>
<filter id="motionblurx">
  <feGaussianBlur in="SourceGraphic" stdDeviation="41 0" edgeMode="duplicate" color-interpolation-filters="sRGB" />
</filter>
<filter id="motionblury">
  <feGaussianBlur in="SourceGraphic" stdDeviation="0 176" edgeMode="duplicate" color-interpolation-filters="sRGB" />
</filter>
<filter id="glow">
  <feDropShadow in="FillPaint" dx="0" dy="0" stdDeviation="13" flood-color="var(--c82)" />
</filter>
<filter id="pointlighting">
  <feDiffuseLighting in="SourceGraphic" result="light" lighting-color="var(--c6)">
    <fePointLight x="1517" y="330" z="401" />
  </feDiffuseLighting>
  <feComposite in="SourceGraphic" in2="light" operator="arithmetic" k1="1" k2="0" k3="0" k4="0" />
</filter>
<filter id="dance" color-interpolation-filters="linearRGB" filterUnits="objectBoundingBox" primitiveUnits="userSpaceOnUse">
  <feMorphology operator="dilate" radius="8 8" in="SourceAlpha" result="morphology"/>
  <feFlood flood-color="#000000" flood-opacity="0.5" result="flood"/>
  <feComposite in="flood" in2="morphology" operator="in" result="composite"/>
  <feComposite in="composite" in2="SourceAlpha" operator="out" result="composite1"/>
  <feTurbulence type="fractalNoise" baseFrequency="0.01 0.02" numOctaves="1" seed="0" stitchTiles="stitch" result="turbulence"/>
  <feDisplacementMap in="composite1" in2="turbulence" scale="17" xChannelSelector="A" yChannelSelector="A" result="displacementMap"/>
  <feMerge result="merge">
    <feMergeNode in="SourceGraphic" result="mergeNode"/>
    <feMergeNode in="displacementMap" result="mergeNode1"/>
  </feMerge>
</filter>
</defs>
<rect x="0" y="0" id="box-493379"  width="1920" height="957"   fill="#333F" ></rect>
<rect   id="rect-493379-1" x="1329" y="382" width="193" height="483"  fill="url(#grad-493379-1)"  filter="url(#motionblury)"  onclick="this.style.fill = randomColor()" class="rectangle" ></rect>
  <polygon id="oddagon-493379-2-5" class="oddagon poly11" fill="url(#grad-493379-2)"  filter="url(#dance)"  onclick="this.style.fill = randomColor()"  points="1469,220 1450,284 1399,329 1332,338 1271,310 1234,253 1234,186 1271,129 1332,101 1399,110 1450,155 ">
  </polygon>

  <polygon id="triangle-493379-3-12" class="triangle" fill="url(#grad-493379-3)"  filter="url(#glow)"  onclick="this.style.fill = randomColor()"  points="1029,120 624,353 625,-114 ">
  </polygon>

<circle id="circ-493379-4"  r="107" cx="1380" cy="331"  fill="url(#grad-493379-4)"  stroke="#d30ea108" stroke-width="88" stroke-linecap="round" stroke-linejoin="round" stroke-opacity="0.1"  filter="url(#motionblury)"  onclick="this.style.fill = randomColor()"></circle>
<circle id="circ-493379-5"  r="317" cx="1075" cy="60"  fill="url(#grad-493379-5)"  stroke="#d30ea108" stroke-width="78" stroke-linecap="round" stroke-linejoin="round" stroke-opacity="0.1"  filter="url(#pointlighting)"  onclick="this.style.fill = randomColor()"></circle>
<circle id="circ-493379-6"  r="376" cx="292" cy="193"  fill="url(#grad-493379-6)"  filter="url(#pointlighting)"  onclick="this.style.fill = randomColor()"></circle>
  <polygon id="hexagon-493379-7-4" class="hexagon" fill="url(#grad-493379-7)"  filter="url(#pointlighting)"  onclick="this.style.fill = randomColor()"  points="1999,350 1874,566 1624,566 1500,349 1625,133 1875,133 ">
  </polygon>

  <polygon id="dexagon-493379-8-7" class="dexagon" fill="url(#grad-493379-8)"  filter="url(#motionblury)"  onclick="this.style.fill = randomColor()"  points="1629,370 1599,464 1519,522 1420,522 1340,463 1310,369 1340,275 1420,217 1519,217 1599,276 ">
  </polygon>

<circle id="circ-493379-9"  r="360" cx="1081" cy="175"  fill="url(#grad-493379-9)"  stroke="#d30ea108" stroke-width="43" stroke-linecap="round" stroke-linejoin="round" stroke-opacity="0.1"  filter="url(#motionblurx)"  onclick="this.style.fill = randomColor()"></circle>
<rect   id="rect-493379-10" x="750" y="111" width="512" height="512"  fill="var(--c11)"  stroke="#b36f3185" stroke-width="1" stroke-linecap="round" stroke-linejoin="round" stroke-opacity="0.33"  filter="url(#motionblurx)"  onclick="this.style.fill = randomColor()" class="square" ></rect>
  <polygon id="triangle-493379-11-11" class="triangle" fill="url(#grad-493379-11)"  filter="url(#glow)"  onclick="this.style.fill = randomColor()"  points="1779,340 1434,538 1435,140 ">
  </polygon>

<g id="flower-493379-12" class="flower"  fill="url(#grad-493379-12)"  filter="url(#glow)" >
  <path id="petal-493379-12-1" class="flower petal" fill="url(#grad-493379-12)"  filter="url(#glow)"  onclick="this.style.fill = randomColor()"   d="
    M 390 850 
    L 509,850
    A 45,45 0,0,1 426,964
    L 390,850
    Z">
  </path>
  <path id="petal-493379-12-2" class="flower petal" fill="url(#grad-493379-12)"  filter="url(#glow)"  onclick="this.style.fill = randomColor()"   d="
    M 390 850 
    L 426,964
    A 45,45 0,0,1 292,920
    L 390,850
    Z">
  </path>
  <path id="petal-493379-12-3" class="flower petal" fill="url(#grad-493379-12)"  filter="url(#glow)"  onclick="this.style.fill = randomColor()"   d="
    M 390 850 
    L 292,920
    A 45,45 0,0,1 293,779
    L 390,850
    Z">
  </path>
  <path id="petal-493379-12-4" class="flower petal" fill="url(#grad-493379-12)"  filter="url(#glow)"  onclick="this.style.fill = randomColor()"   d="
    M 390 850 
    L 293,779
    A 45,45 0,0,1 427,735
    L 390,850
    Z">
  </path>
  <path id="petal-493379-12-5" class="flower petal" fill="url(#grad-493379-12)"  filter="url(#glow)"  onclick="this.style.fill = randomColor()"   d="
    M 390 850 
    L 427,735
    A 45,45 0,0,1 509,850
    L 390,850
    Z">
  </path>
</g>
<circle id="circ-493379-13"  r="597" cx="815" cy="147"  fill="url(#grad-493379-13)"  stroke="#d30ea108" stroke-width="60" stroke-linecap="round" stroke-linejoin="round" stroke-opacity="0.1"  filter="url(#pointlighting)"  onclick="this.style.fill = randomColor()"></circle>
  <polygon id="triangle-493379-14-6" class="triangle" fill="url(#grad-493379-14)"  stroke="#1d7d844d" stroke-width="17" stroke-linecap="round" stroke-linejoin="round" stroke-opacity="0.33"  filter="url(#glow)"  onclick="this.style.fill = randomColor()"  points="1069,210 649,452 650,-32 ">
  </polygon>

<path   id="cloud-493379-15-a" class="cloud arc"   onclick="this.style.fill = randomColor()"  fill="url(#grad-493379-15)"  stroke="#e8749efa" stroke-width="49" stroke-linecap="round" stroke-linejoin="round" stroke-opacity="0.33"  filter="url(#dance)"  d="
  M 1055 190 
  A 45,45 0,0,1 1800,210
  A 45,45 0,0,1 1710,645
  A 45,45 0,0,1 1065,660
  A 45,45 0,0,1 1055,190
  Z" >
</path>
<path d=" M 956,482 L 964,474 M 964,482 L 956,474" stroke="#FFF3" class="grid" />
<path d=" M 956,482 L 964,474 M 964,482 L 956,474" stroke="#FFF3" class="grid" />
<text fill="0" x="956" y="492">1</text><circle cx="960" cy="478" r="6" stroke="#96ecd739" class="point" /> 
<path d=" M 952,489 L 960,481 M 960,489 L 952,481" stroke="#FFF3" class="grid" />
<path d=" M 952,489 L 960,481 M 960,489 L 952,481" stroke="#FFF3" class="grid" />
<text fill="0" x="952" y="499">2</text><circle cx="956" cy="485" r="6" stroke="#b2d8e6bc" class="point" /> 
<path d=" M 945,468 L 953,460 M 953,468 L 945,460" stroke="#FFF3" class="grid" />
<path d=" M 945,468 L 953,460 M 953,468 L 945,460" stroke="#FFF3" class="grid" />
<text fill="0" x="945" y="478">3</text><circle cx="949" cy="464" r="6" stroke="#d68afe55" class="point" /> 
<path d=" M 980,476 L 988,468 M 988,476 L 980,468" stroke="#FFF3" class="grid" />
<path d=" M 980,476 L 988,468 M 988,476 L 980,468" stroke="#FFF3" class="grid" />
<text fill="0" x="980" y="486">4</text><circle cx="984" cy="472" r="6" stroke="#da62a3e8" class="point" /> 
<path d=" M 948,515 L 956,507 M 956,515 L 948,507" stroke="#FFF3" class="grid" />
<path d=" M 948,515 L 956,507 M 956,515 L 948,507" stroke="#FFF3" class="grid" />
<text fill="0" x="948" y="525">5</text><circle cx="952" cy="511" r="6" stroke="#cbfea73b" class="point" /> 
<path d=" M 922,455 L 930,447 M 930,455 L 922,447" stroke="#FFF3" class="grid" />
<path d=" M 922,455 L 930,447 M 930,455 L 922,447" stroke="#FFF3" class="grid" />
<text fill="0" x="922" y="465">6</text><circle cx="926" cy="451" r="6" stroke="#cf835ffb" class="point" /> 
<path d=" M 1002,458 L 1010,450 M 1010,458 L 1002,450" stroke="#FFF3" class="grid" />
<path d=" M 1002,458 L 1010,450 M 1010,458 L 1002,450" stroke="#FFF3" class="grid" />
<text fill="0" x="1002" y="468">7</text><circle cx="1006" cy="454" r="6" stroke="#fe72a84c" class="point" /> 
<path d=" M 956,543 L 964,535 M 964,543 L 956,535" stroke="#FFF3" class="grid" />
<path d=" M 956,543 L 964,535 M 964,543 L 956,535" stroke="#FFF3" class="grid" />
<text fill="0" x="956" y="553">8</text><circle cx="960" cy="539" r="6" stroke="#e6f066d0" class="point" /> 
<path d=" M 890,451 L 898,443 M 898,451 L 890,443" stroke="#FFF3" class="grid" />
<path d=" M 890,451 L 898,443 M 898,451 L 890,443" stroke="#FFF3" class="grid" />
<text fill="0" x="890" y="461">9</text><circle cx="894" cy="447" r="6" stroke="#7bc1a855" class="point" /> 
<path d=" M 1019,429 L 1027,421 M 1027,429 L 1019,421" stroke="#FFF3" class="grid" />
<path d=" M 1019,429 L 1027,421 M 1027,429 L 1019,421" stroke="#FFF3" class="grid" />
<text fill="0" x="1019" y="439">10</text><circle cx="1023" cy="425" r="6" stroke="#c184609d" class="point" /> 
<path d=" M 978,571 L 986,563 M 986,571 L 978,563" stroke="#FFF3" class="grid" />
<path d=" M 978,571 L 986,563 M 986,571 L 978,563" stroke="#FFF3" class="grid" />
<text fill="0" x="978" y="581">11</text><circle cx="982" cy="567" r="6" stroke="#cad8e347" class="point" /> 
<path d=" M 854,460 L 862,452 M 862,460 L 854,452" stroke="#FFF3" class="grid" />
<path d=" M 854,460 L 862,452 M 862,460 L 854,452" stroke="#FFF3" class="grid" />
<text fill="0" x="854" y="470">12</text><circle cx="858" cy="456" r="6" stroke="#a1d860b8" class="point" /> 
<path d=" M 1025,390 L 1033,382 M 1033,390 L 1025,382" stroke="#FFF3" class="grid" />
<path d=" M 1025,390 L 1033,382 M 1033,390 L 1025,382" stroke="#FFF3" class="grid" />
<text fill="0" x="1025" y="400">13</text><circle cx="1029" cy="386" r="6" stroke="#e6d8dbb5" class="point" /> 
<path d=" M 1012,591 L 1020,583 M 1020,591 L 1012,583" stroke="#FFF3" class="grid" />
<path d=" M 1012,591 L 1020,583 M 1020,591 L 1012,583" stroke="#FFF3" class="grid" />
<text fill="0" x="1012" y="601">14</text><circle cx="1016" cy="587" r="6" stroke="#98c9b68d" class="point" /> 
<path d=" M 824,485 L 832,477 M 832,485 L 824,477" stroke="#FFF3" class="grid" />
<path d=" M 824,485 L 832,477 M 832,485 L 824,477" stroke="#FFF3" class="grid" />
<text fill="0" x="824" y="495">15</text><circle cx="828" cy="481" r="6" stroke="#8570af3d" class="point" /> 
<path d=" M 1013,354 L 1021,346 M 1021,354 L 1013,346" stroke="#FFF3" class="grid" />
<path d=" M 1013,354 L 1021,346 M 1021,354 L 1013,346" stroke="#FFF3" class="grid" />
<text fill="0" x="1013" y="364">16</text><circle cx="1017" cy="350" r="6" stroke="#c2c67c5f" class="point" /> 
<path d=" M 1052,595 L 1060,587 M 1060,595 L 1052,587" stroke="#FFF3" class="grid" />
<path d=" M 1052,595 L 1060,587 M 1060,595 L 1052,587" stroke="#FFF3" class="grid" />
<text fill="0" x="1052" y="605">17</text><circle cx="1056" cy="591" r="6" stroke="#745d5bc3" class="point" /> 
<path d=" M 803,521 L 811,513 M 811,521 L 803,513" stroke="#FFF3" class="grid" />
<path d=" M 803,521 L 811,513 M 811,521 L 803,513" stroke="#FFF3" class="grid" />
<text fill="0" x="803" y="531">18</text><circle cx="807" cy="517" r="6" stroke="#e8a4faa4" class="point" /> 
<path d=" M 988,317 L 996,309 M 996,317 L 988,309" stroke="#FFF3" class="grid" />
<path d=" M 988,317 L 996,309 M 996,317 L 988,309" stroke="#FFF3" class="grid" />
<text fill="0" x="988" y="327">19</text><circle cx="992" cy="313" r="6" stroke="#80b9b2e1" class="point" /> 
<path d=" M 1097,587 L 1105,579 M 1105,587 L 1097,579" stroke="#FFF3" class="grid" />
<path d=" M 1097,587 L 1105,579 M 1105,587 L 1097,579" stroke="#FFF3" class="grid" />
<text fill="0" x="1097" y="597">20</text><circle cx="1101" cy="583" r="6" stroke="#e0bade8d" class="point" /> 
<path d=" M 790,568 L 798,560 M 798,568 L 790,560" stroke="#FFF3" class="grid" />
<path d=" M 790,568 L 798,560 M 798,568 L 790,560" stroke="#FFF3" class="grid" />
<text fill="0" x="790" y="578">21</text><circle cx="794" cy="564" r="6" stroke="#90b5d9a6" class="point" /> 
<path d=" M 948,285 L 956,277 M 956,285 L 948,277" stroke="#FFF3" class="grid" />
<path d=" M 948,285 L 956,277 M 956,285 L 948,277" stroke="#FFF3" class="grid" />
<text fill="0" x="948" y="295">22</text><circle cx="952" cy="281" r="6" stroke="#bf9fc4f6" class="point" /> 
<path d=" M 1146,564 L 1154,556 M 1154,564 L 1146,556" stroke="#FFF3" class="grid" />
<path d=" M 1146,564 L 1154,556 M 1154,564 L 1146,556" stroke="#FFF3" class="grid" />
<text fill="0" x="1146" y="574">23</text><circle cx="1150" cy="560" r="6" stroke="#8beae4fc" class="point" /> 
<path d=" M 790,625 L 798,617 M 798,625 L 790,617" stroke="#FFF3" class="grid" />
<path d=" M 790,625 L 798,617 M 798,625 L 790,617" stroke="#FFF3" class="grid" />
<text fill="0" x="790" y="635">24</text><circle cx="794" cy="621" r="6" stroke="#8c60fb72" class="point" /> 
<path d=" M 895,260 L 903,252 M 903,260 L 895,252" stroke="#FFF3" class="grid" />
<path d=" M 895,260 L 903,252 M 903,260 L 895,252" stroke="#FFF3" class="grid" />
<text fill="0" x="895" y="270">25</text><circle cx="899" cy="256" r="6" stroke="#a9df7bce" class="point" /> 
<path d=" M 1190,524 L 1198,516 M 1198,524 L 1190,516" stroke="#FFF3" class="grid" />
<path d=" M 1190,524 L 1198,516 M 1198,524 L 1190,516" stroke="#FFF3" class="grid" />
<text fill="0" x="1190" y="534">26</text><circle cx="1194" cy="520" r="6" stroke="#715d5b7a" class="point" /> 
<path d=" M 811,681 L 819,673 M 819,681 L 811,673" stroke="#FFF3" class="grid" />
<path d=" M 811,681 L 819,673 M 819,681 L 811,673" stroke="#FFF3" class="grid" />
<text fill="0" x="811" y="691">27</text><circle cx="815" cy="677" r="6" stroke="#6e8fde96" class="point" /> 
<path d=" M 834,257 L 842,249 M 842,257 L 834,249" stroke="#FFF3" class="grid" />
<path d=" M 834,257 L 842,249 M 842,257 L 834,249" stroke="#FFF3" class="grid" />
<text fill="0" x="834" y="267">28</text><circle cx="838" cy="253" r="6" stroke="#77649dfc" class="point" /> 
<path d=" M 1219,468 L 1227,460 M 1227,468 L 1219,460" stroke="#FFF3" class="grid" />
<path d=" M 1219,468 L 1227,460 M 1227,468 L 1219,460" stroke="#FFF3" class="grid" />
<text fill="0" x="1219" y="478">29</text><circle cx="1223" cy="464" r="6" stroke="#92c679fb" class="point" /> 
<path d=" M 850,733 L 858,725 M 858,733 L 850,725" stroke="#FFF3" class="grid" />
<path d=" M 850,733 L 858,725 M 858,733 L 850,725" stroke="#FFF3" class="grid" />
<text fill="0" x="850" y="743">30</text><circle cx="854" cy="729" r="6" stroke="#c6f3b3bc" class="point" /> 
<path d=" M 768,271 L 776,263 M 776,271 L 768,263" stroke="#FFF3" class="grid" />
<path d=" M 768,271 L 776,263 M 776,271 L 768,263" stroke="#FFF3" class="grid" />
<text fill="0" x="768" y="281">31</text><circle cx="772" cy="267" r="6" stroke="#e362bd77" class="point" /> 
<path d=" M 1236,401 L 1244,393 M 1244,401 L 1236,393" stroke="#FFF3" class="grid" />
<path d=" M 1236,401 L 1244,393 M 1244,401 L 1236,393" stroke="#FFF3" class="grid" />
<text fill="0" x="1236" y="411">32</text><circle cx="1240" cy="397" r="6" stroke="#d2c9aed2" class="point" /> 
<path d=" M 905,779 L 913,771 M 913,779 L 905,771" stroke="#FFF3" class="grid" />
<path d=" M 905,779 L 913,771 M 913,779 L 905,771" stroke="#FFF3" class="grid" />
<text fill="0" x="905" y="789">33</text><circle cx="909" cy="775" r="6" stroke="#698c886b" class="point" /> 
<path d=" M 701,302 L 709,294 M 709,302 L 701,294" stroke="#FFF3" class="grid" />
<path d=" M 701,302 L 709,294 M 709,302 L 701,294" stroke="#FFF3" class="grid" />
<text fill="0" x="701" y="312">34</text><circle cx="705" cy="298" r="6" stroke="#b6dd77cd" class="point" /> 
<path d=" M 1237,324 L 1245,316 M 1245,324 L 1237,316" stroke="#FFF3" class="grid" />
<path d=" M 1237,324 L 1245,316 M 1245,324 L 1237,316" stroke="#FFF3" class="grid" />
<text fill="0" x="1237" y="334">35</text><circle cx="1241" cy="320" r="6" stroke="#d89e6185" class="point" /> 
<path d=" M 976,814 L 984,806 M 984,814 L 976,806" stroke="#FFF3" class="grid" />
<path d=" M 976,814 L 984,806 M 984,814 L 976,806" stroke="#FFF3" class="grid" />
<text fill="0" x="976" y="824">36</text><circle cx="980" cy="810" r="6" stroke="#8da9d7eb" class="point" /> 
<path d=" M 636,352 L 644,344 M 644,352 L 636,344" stroke="#FFF3" class="grid" />
<path d=" M 636,352 L 644,344 M 644,352 L 636,344" stroke="#FFF3" class="grid" />
<text fill="0" x="636" y="362">37</text><circle cx="640" cy="348" r="6" stroke="#a8e0b869" class="point" /> 
<path d=" M 1217,244 L 1225,236 M 1225,244 L 1217,236" stroke="#FFF3" class="grid" />
<path d=" M 1217,244 L 1225,236 M 1225,244 L 1217,236" stroke="#FFF3" class="grid" />
<text fill="0" x="1217" y="254">38</text><circle cx="1221" cy="240" r="6" stroke="#b76caff0" class="point" /> 
<path d=" M 1059,828 L 1067,820 M 1067,828 L 1059,820" stroke="#FFF3" class="grid" />
<path d=" M 1059,828 L 1067,820 M 1067,828 L 1059,820" stroke="#FFF3" class="grid" />
<text fill="0" x="1059" y="838">39</text><circle cx="1063" cy="824" r="6" stroke="#b38fedb6" class="point" /> 
<path d=" M 590,424 L 598,416 M 598,424 L 590,416" stroke="#FFF3" class="grid" />
<path d=" M 590,424 L 598,416 M 598,424 L 590,416" stroke="#FFF3" class="grid" />
<text fill="0" x="590" y="434">40</text><circle cx="594" cy="420" r="6" stroke="#ea789c7b" class="point" /> 
<path d=" M 1170,169 L 1178,161 M 1178,169 L 1170,161" stroke="#FFF3" class="grid" />
<path d=" M 1170,169 L 1178,161 M 1178,169 L 1170,161" stroke="#FFF3" class="grid" />
<text fill="0" x="1170" y="179">41</text><circle cx="1174" cy="165" r="6" stroke="#8e5cd9b9" class="point" /> 
<path d=" M 1149,818 L 1157,810 M 1157,818 L 1149,810" stroke="#FFF3" class="grid" />
<path d=" M 1149,818 L 1157,810 M 1157,818 L 1149,810" stroke="#FFF3" class="grid" />
<text fill="0" x="1149" y="828">42</text><circle cx="1153" cy="814" r="6" stroke="#d57fb18c" class="point" /> 
<path d=" M 559,511 L 567,503 M 567,511 L 559,503" stroke="#FFF3" class="grid" />
<path d=" M 559,511 L 567,503 M 567,511 L 559,503" stroke="#FFF3" class="grid" />
<text fill="0" x="559" y="521">43</text><circle cx="563" cy="507" r="6" stroke="#fde3bc8b" class="point" /> 
<path d=" M 1104,103 L 1112,95 M 1112,103 L 1104,95" stroke="#FFF3" class="grid" />
<path d=" M 1104,103 L 1112,95 M 1112,103 L 1104,95" stroke="#FFF3" class="grid" />
<text fill="0" x="1104" y="113">44</text><circle cx="1108" cy="99" r="6" stroke="#5c72704b" class="point" /> 
<path d=" M 1240,786 L 1248,778 M 1248,786 L 1240,778" stroke="#FFF3" class="grid" />
<path d=" M 1240,786 L 1248,778 M 1248,786 L 1240,778" stroke="#FFF3" class="grid" />
<text fill="0" x="1240" y="796">45</text><circle cx="1244" cy="782" r="6" stroke="#9b5e5ab1" class="point" /> 
<path d=" M 548,609 L 556,601 M 556,609 L 548,601" stroke="#FFF3" class="grid" />
<path d=" M 548,609 L 556,601 M 556,609 L 548,601" stroke="#FFF3" class="grid" />
<text fill="0" x="548" y="619">46</text><circle cx="552" cy="605" r="6" stroke="#7dd787c3" class="point" /> 
<path d=" M 1018,49 L 1026,41 M 1026,49 L 1018,41" stroke="#FFF3" class="grid" />
<path d=" M 1018,49 L 1026,41 M 1026,49 L 1018,41" stroke="#FFF3" class="grid" />
<text fill="0" x="1018" y="59">47</text><circle cx="1022" cy="45" r="6" stroke="#fe5c95c4" class="point" /> 
<path d=" M 1328,731 L 1336,723 M 1336,731 L 1328,723" stroke="#FFF3" class="grid" />
<path d=" M 1328,731 L 1336,723 M 1336,731 L 1328,723" stroke="#FFF3" class="grid" />
<text fill="0" x="1328" y="741">48</text><circle cx="1332" cy="727" r="6" stroke="#b19a60ac" class="point" /> 
<path d=" M 560,715 L 568,707 M 568,715 L 560,707" stroke="#FFF3" class="grid" />
<path d=" M 560,715 L 568,707 M 568,715 L 560,707" stroke="#FFF3" class="grid" />
<text fill="0" x="560" y="725">49</text><circle cx="564" cy="711" r="6" stroke="#6e6fbf69" class="point" /> 
<path d=" M 915,15 L 923,7 M 923,15 L 915,7" stroke="#FFF3" class="grid" />
<path d=" M 915,15 L 923,7 M 923,15 L 915,7" stroke="#FFF3" class="grid" />
<text fill="0" x="915" y="25">50</text><circle cx="919" cy="11" r="6" stroke="#c19b6e70" class="point" /> 
<path d=" M 1401,649 L 1409,641 M 1409,649 L 1401,641" stroke="#FFF3" class="grid" />
<path d=" M 1401,649 L 1409,641 M 1409,649 L 1401,641" stroke="#FFF3" class="grid" />
<text fill="0" x="1401" y="659">51</text><circle cx="1405" cy="645" r="6" stroke="#65b9c9af" class="point" /> 
<path d=" M 605,817 L 613,809 M 613,817 L 605,809" stroke="#FFF3" class="grid" />
<path d=" M 605,817 L 613,809 M 613,817 L 605,809" stroke="#FFF3" class="grid" />
<text fill="0" x="605" y="827">52</text><circle cx="609" cy="813" r="6" stroke="#b79c63cd" class="point" /> 
<path d=" M 802,12 L 810,4 M 810,12 L 802,4" stroke="#FFF3" class="grid" />
<path d=" M 802,12 L 810,4 M 810,12 L 802,4" stroke="#FFF3" class="grid" />
<text fill="0" x="802" y="22">53</text><circle cx="806" cy="8" r="6" stroke="#a3f1a7a0" class="point" /> 
<path d=" M 1454,547 L 1462,539 M 1462,547 L 1454,539" stroke="#FFF3" class="grid" />
<path d=" M 1454,547 L 1462,539 M 1462,547 L 1454,539" stroke="#FFF3" class="grid" />
<text fill="0" x="1454" y="557">54</text><circle cx="1458" cy="543" r="6" stroke="#65e477e4" class="point" /> 
<path d=" M 676,911 L 684,903 M 684,911 L 676,903" stroke="#FFF3" class="grid" />
<path d=" M 676,911 L 684,903 M 684,911 L 676,903" stroke="#FFF3" class="grid" />
<text fill="0" x="676" y="921">55</text><circle cx="680" cy="907" r="6" stroke="#b3a06f84" class="point" /> 
<path d=" M 684,36 L 692,28 M 692,36 L 684,28" stroke="#FFF3" class="grid" />
<path d=" M 684,36 L 692,28 M 692,36 L 684,28" stroke="#FFF3" class="grid" />
<text fill="0" x="684" y="46">56</text><circle cx="688" cy="32" r="6" stroke="#b7795f66" class="point" /> 
<path d=" M 1484,429 L 1492,421 M 1492,429 L 1484,421" stroke="#FFF3" class="grid" />
<path d=" M 1484,429 L 1492,421 M 1492,429 L 1484,421" stroke="#FFF3" class="grid" />
<text fill="0" x="1484" y="439">57</text><circle cx="1488" cy="425" r="6" stroke="#b1e4c8e3" class="point" /> 
<path d=" M 569,87 L 577,79 M 577,87 L 569,79" stroke="#FFF3" class="grid" />
<path d=" M 569,87 L 577,79 M 577,87 L 569,79" stroke="#FFF3" class="grid" />
<text fill="0" x="569" y="97">58</text><circle cx="573" cy="83" r="6" stroke="#f1c9cdcd" class="point" /> 
<path d=" M 1489,300 L 1497,292 M 1497,300 L 1489,292" stroke="#FFF3" class="grid" />
<path d=" M 1489,300 L 1497,292 M 1497,300 L 1489,292" stroke="#FFF3" class="grid" />
<text fill="0" x="1489" y="310">59</text><circle cx="1493" cy="296" r="6" stroke="#fa717c81" class="point" /> 
<path d=" M 463,169 L 471,161 M 471,169 L 463,161" stroke="#FFF3" class="grid" />
<path d=" M 463,169 L 471,161 M 471,169 L 463,161" stroke="#FFF3" class="grid" />
<text fill="0" x="463" y="179">60</text><circle cx="467" cy="165" r="6" stroke="#966fa160" class="point" /> 
<path d=" M 1457,168 L 1465,160 M 1465,168 L 1457,160" stroke="#FFF3" class="grid" />
<path d=" M 1457,168 L 1465,160 M 1465,168 L 1457,160" stroke="#FFF3" class="grid" />
<text fill="0" x="1457" y="178">61</text><circle cx="1461" cy="164" r="6" stroke="#ab9c6451" class="point" /> 
<path d=" M 381,281 L 389,273 M 389,281 L 381,273" stroke="#FFF3" class="grid" />
<path d=" M 381,281 L 389,273 M 389,281 L 381,273" stroke="#FFF3" class="grid" />
<text fill="0" x="381" y="291">62</text><circle cx="385" cy="277" r="6" stroke="#c35ee744" class="point" /> 
<path d=" M 1391,43 L 1399,35 M 1399,43 L 1391,35" stroke="#FFF3" class="grid" />
<path d=" M 1391,43 L 1399,35 M 1399,43 L 1391,35" stroke="#FFF3" class="grid" />
<text fill="0" x="1391" y="53">63</text><circle cx="1395" cy="39" r="6" stroke="#bc8ed17d" class="point" /> 
<path d=" M 322,414 L 330,406 M 330,414 L 322,406" stroke="#FFF3" class="grid" />
<path d=" M 322,414 L 330,406 M 330,414 L 322,406" stroke="#FFF3" class="grid" />
<text fill="0" x="322" y="424">64</text><circle cx="326" cy="410" r="6" stroke="#e65dddf5" class="point" /> 
<path d=" M 293,564 L 301,556 M 301,564 L 293,556" stroke="#FFF3" class="grid" />
<path d=" M 293,564 L 301,556 M 301,564 L 293,556" stroke="#FFF3" class="grid" />
<text fill="0" x="293" y="574">65</text><circle cx="297" cy="560" r="6" stroke="#9cc59388" class="point" /> 
<path d=" M 301,723 L 309,715 M 309,723 L 301,715" stroke="#FFF3" class="grid" />
<path d=" M 301,723 L 309,715 M 309,723 L 301,715" stroke="#FFF3" class="grid" />
<text fill="0" x="301" y="733">66</text><circle cx="305" cy="719" r="6" stroke="#7ecefeff" class="point" /> 
<path d=" M 1569,849 L 1577,841 M 1577,849 L 1569,841" stroke="#FFF3" class="grid" />
<path d=" M 1569,849 L 1577,841 M 1577,849 L 1569,841" stroke="#FFF3" class="grid" />
<text fill="0" x="1569" y="859">67</text><circle cx="1573" cy="845" r="6" stroke="#b9b27e94" class="point" /> 
<path d=" M 352,880 L 360,872 M 360,880 L 352,872" stroke="#FFF3" class="grid" />
<path d=" M 352,880 L 360,872 M 360,880 L 352,872" stroke="#FFF3" class="grid" />
<text fill="0" x="352" y="890">68</text><circle cx="356" cy="876" r="6" stroke="#e6bffab8" class="point" /> 
<path d=" M 1662,708 L 1670,700 M 1670,708 L 1662,700" stroke="#FFF3" class="grid" />
<path d=" M 1662,708 L 1670,700 M 1670,708 L 1662,700" stroke="#FFF3" class="grid" />
<text fill="0" x="1662" y="718">69</text><circle cx="1666" cy="704" r="6" stroke="#ebd562b7" class="point" /> 
<path d=" M 1725,544 L 1733,536 M 1733,544 L 1725,536" stroke="#FFF3" class="grid" />
<path d=" M 1725,544 L 1733,536 M 1733,544 L 1725,536" stroke="#FFF3" class="grid" />
<text fill="0" x="1725" y="554">70</text><circle cx="1729" cy="540" r="6" stroke="#e1eed66a" class="point" /> 
<path d=" M 1751,362 L 1759,354 M 1759,362 L 1751,354" stroke="#FFF3" class="grid" />
<path d=" M 1751,362 L 1759,354 M 1759,362 L 1751,354" stroke="#FFF3" class="grid" />
<text fill="0" x="1751" y="372">71</text><circle cx="1755" cy="358" r="6" stroke="#e2616d6d" class="point" /> 
<path d=" M 1727,175 L 1735,167 M 1735,175 L 1727,167" stroke="#FFF3" class="grid" />
<path d=" M 1727,175 L 1735,167 M 1735,175 L 1727,167" stroke="#FFF3" class="grid" />
<text fill="0" x="1727" y="185">72</text><circle cx="1731" cy="171" r="6" stroke="#76e99659" class="point" /> 
<path d=" M 218,64 L 226,56 M 226,64 L 218,56" stroke="#FFF3" class="grid" />
<path d=" M 218,64 L 226,56 M 226,64 L 218,56" stroke="#FFF3" class="grid" />
<text fill="0" x="218" y="74">73</text><circle cx="222" cy="60" r="6" stroke="#d6ca899c" class="point" /> 
<path d=" M 115,235 L 123,227 M 123,235 L 115,227" stroke="#FFF3" class="grid" />
<path d=" M 115,235 L 123,227 M 123,235 L 115,227" stroke="#FFF3" class="grid" />
<text fill="0" x="115" y="245">74</text><circle cx="119" cy="231" r="6" stroke="#9e7da08f" class="point" /> 
<path d=" M 49,431 L 57,423 M 57,431 L 49,423" stroke="#FFF3" class="grid" />
<path d=" M 49,431 L 57,423 M 57,431 L 49,423" stroke="#FFF3" class="grid" />
<text fill="0" x="49" y="441">75</text><circle cx="53" cy="427" r="6" stroke="#98e5ddbd" class="point" /> 
</svg>
