<svg viewBox="0 0 1920 957" id="svg-93c231" fill="none" preserveAspectRatio="xMinYMid slice" xmlns="http://www.w3.org/2000/svg" xmlns:xlink="http://www.w3.org/1999/xlink" >
<style>
* { transform-box: fill-box; } text { font-size:0.65em; }
#svg-93c231 {
  --c0:  #00000000; 
  --c1:  #ac22b11c;  --c2:  #b257ed41;  --c3:  #8f23a140;  --c4:  #a45ce35d;  --c5:  #640c1f0b;
  --c6:  #cd7fba39;  --c7:  #7856f542;  --c8:  #e7371b7c;  --c9:  #7603ed5d;  --c10: #a049dc29;
  --c11: #92401306;  --c12: #a33c0c2f;  --c13: #b0652541;  --c14: #9d1ae868;  --c15: #a271ce52;
  --c16: #ca024c6b;  --c17: #fc58b313;  --c18: #66789e09;  --c19: #a6686f50;  --c20: #64743f2a;
  --c21: #ca387400;  --c22: #8960840f;  --c23: #cd3d9f25;  --c24: #a25c713b;  --c25: #f62a7c5b;
  --c26: #f76dfc7b;  --c27: #892a7d39;  --c28: #fc6b786c;  --c29: #d6208579;  --c30: #b87a7b19;
  --c31: #be44b548;  --c32: #ee3e2375;  --c33: #be3c474e;  --c34: #9f1eed74;  --c35: #ac798a6e;
  --c36: #a713736e;  --c37: #611c7e2d;  --c38: #68519318;  --c39: #8d3b1473;  --c40: #c2108f01;
  --c41: #c6438c43;  --c42: #a914293e;  --c43: #cc36a607;  --c44: #656b5d43;  --c45: #c74a1341;
  --c46: #a52ac81d;  --c47: #6b0ffd44;  --c48: #70170147;  --c49: #d17ef331;  --c50: #bc28fc53;
  --c51: #bd1cc918;  --c52: #eb53a828;  --c53: #9f739123;  --c54: #6b09212d;  --c55: #7c324e16;
  --c56: #685acc79;  --c57: #6f273843;  --c58: #687c9f73;  --c59: #671c2477;  --c60: #bf1bcb7f;
  --c61: #786bb755;  --c62: #7c670008;  --c63: #b576a340;  --c64: #9c072630;  --c65: #a953c524;
  --c66: #fb470e5a;  --c67: #696e3657;  --c68: #8d77516f;  --c69: #857a9f1e;  --c70: #8c273708;
  --c71: #cc5f3803;  --c72: #be0fbc36;  --c73: #e460512c;  --c74: #ee3e1170;  --c75: #f67bcc1a;
  --c76: #c6294933;  --c77: #7b59ac2d;  --c78: #72358c51;  --c79: #f43c6006;  --c80: #7a204002;
  --c81: #6104c24a;  --c82: #c619e62f;  --c83: #bf32f917;  --c84: #814ebd04;  --c85: #d24a3a7a;
  --c86: #d606282a;  --c87: #7c6c6c70;  --c88: #7518b95b;  --c89: #8d280444;  --c90: #765db565;
  --c91: #ba372f6e;  --c92: #8760c076;  --c93: #f433452c;  --c94: #d454ce0d;  --c95: #ed35d353;
  --c96: #9f07866a;  --c97: #80390f40;  --c98: #f6739e69;  --c99: #62707d4e;  --c100: #68685b46;
  --c-count: 100;
}
</style>
<defs>
  <radialGradient id="corner-tlc" gradientUnits="userSpaceOnUse" cx="0" cy="0" r="957">
    <stop offset="0.00" stop-opacity="0.50" stop-color="#d02c778d"/>
    <stop offset="0.25" stop-opacity="0.33" stop-color="#d02c778d"/>
    <stop offset="0.75" stop-opacity="0.15" stop-color="#74757941"/>
    <stop offset="1.00" stop-opacity="0.0"  stop-color="#3266343d"/>
  </radialGradient>
  <radialGradient id="corner-trc" gradientUnits="userSpaceOnUse" cx="1920" cy="0" r="957">
    <stop offset="0.00" stop-opacity="0.50" stop-color="#9539a165"/>
    <stop offset="0.25" stop-opacity="0.33" stop-color="#9539a165"/>
    <stop offset="0.75" stop-opacity="0.15" stop-color="#88a26e47"/>
    <stop offset="1.00" stop-opacity="0.0"  stop-color="#3a653407"/>
  </radialGradient>
  <radialGradient id="corner-blc" gradientUnits="userSpaceOnUse" cx="0" cy="957" r="957">
    <stop offset="0.00" stop-opacity="0.50" stop-color="#7a3d72b1"/>
    <stop offset="0.25" stop-opacity="0.33" stop-color="#7a3d72b1"/>
    <stop offset="0.75" stop-opacity="0.15" stop-color="#b150da2e"/>
    <stop offset="1.00" stop-opacity="0.0"  stop-color="#76446b3b"/>
  </radialGradient>
  <radialGradient id="corner-brc" gradientUnits="userSpaceOnUse" cx="1920" cy="957" r="957">
    <stop offset="0.00" stop-opacity="0.50" stop-color="#ad5ea992"/>
    <stop offset="0.25" stop-opacity="0.33" stop-color="#ad5ea992"/>
    <stop offset="0.75" stop-opacity="0.15" stop-color="#66965f47"/>
    <stop offset="1.00" stop-opacity="0.0"  stop-color="#2b327c35"/>
  </radialGradient>
  <linearGradient id="grad-93c231-1" gradientUnits="userSpaceOnUse" x1="510" y1="250" x2="1920" y2="957">
    <stop offset="0.00" stop-color="var(--c23)"/>
    <stop offset="0.25" stop-color="var(--c20)"/>
    <stop offset="0.50" stop-color="var(--c99)"/>
    <stop offset="0.75" stop-color="var(--c81)"/>
    <stop offset="1.00" stop-color="var(--c17)"/>
  </linearGradient>
  <radialGradient id="grad-93c231-2" gradientUnits="userSpaceOnUse" cx="1620" cy="380" r="1850">
    <stop offset="0.00" stop-color="var(--c60)"/>
    <stop offset="0.25" stop-color="var(--c85)"/>
    <stop offset="0.50" stop-color="var(--c16)"/>
    <stop offset="0.75" stop-color="var(--c83)"/>
    <stop offset="1.00" stop-color="var(--c5)"/>
  </radialGradient>
  <linearGradient id="grad-93c231-3" gradientUnits="userSpaceOnUse" x1="790" y1="280" x2="1920" y2="957">
    <stop offset="0.00" stop-color="var(--c82)"/>
    <stop offset="0.25" stop-color="var(--c46)"/>
    <stop offset="0.50" stop-color="var(--c82)"/>
    <stop offset="0.75" stop-color="var(--c67)"/>
    <stop offset="1.00" stop-color="var(--c90)"/>
  </linearGradient>
  <radialGradient id="grad-93c231-4" gradientUnits="userSpaceOnUse" cx="1620" cy="190" r="1250">
    <stop offset="0.00" stop-color="var(--c16)"/>
    <stop offset="0.25" stop-color="var(--c25)"/>
    <stop offset="0.50" stop-color="var(--c85)"/>
    <stop offset="0.75" stop-color="var(--c66)"/>
    <stop offset="1.00" stop-color="var(--c57)"/>
  </radialGradient>
  <linearGradient id="grad-93c231-5" gradientUnits="userSpaceOnUse" x1="340" y1="100" x2="1920" y2="957">
    <stop offset="0.00" stop-color="var(--c80)"/>
    <stop offset="0.25" stop-color="var(--c30)"/>
    <stop offset="0.50" stop-color="var(--c32)"/>
    <stop offset="0.75" stop-color="var(--c5)"/>
    <stop offset="1.00" stop-color="var(--c43)"/>
  </linearGradient>
</defs>
<rect x="0" y="0" id="box-93c231"  width="1920" height="957"   fill="#333F" ></rect>
  <path id="93c231-1" class="corner tlc"  fill="url(#corner-tlc)"  d="M 0,0
  L 0,0 1920,0
  Q 1267,803 0,957
  L 0,957 0,0
  Z">
  </path>

  <path id="93c231-2" class="corner trc"  fill="url(#corner-trc)"  d="M 1920,0
  L 1920,0 0,0
  Q 653,803 1920,957
  L 1920,957 1920,0
  Z">
  </path>

  <path id="93c231-3" class="corner blc"  fill="url(#corner-blc)"  d="M 0,957
  L 0,957 0,0
  Q 1267,154 1920,957
  L 1920,957 0,957
  Z">
  </path>

  <path id="93c231-4" class="corner brc"  fill="url(#corner-brc)"  d="M 1920,957
  L 1920,957 1920,0
  Q 653,154 0,957
  L 0,957 1920,957
  Z">
  </path>

<g id="93c231-5" class="nautilus p121"  onclick="this.style.fill = randomColor()" >
  <path  fill="#cb171f0f" d="
  M 1109,842
  Q 1306.5,738.25 1342,518
  L 1342,518 1304,454
  Q 1306.75,654.5 1148,777
  L 1148,777 1109,842
  Z">
  </path>

  <path  fill="#bd6c441c" d="
  M 1342,518
  Q 1345.5,299.75 1173,166
  L 1173,166 1100,170
  Q 1273,261 1304,454
  L 1304,454 1342,518
  Z">
  </path>

  <path  fill="#d606a01c" d="
  M 1173,166
  Q 985.5,61 789,148
  L 789,148 760,213
  Q 919.25,106.5 1100,170
  L 1100,170 1173,166
  Z">
  </path>

  <path  fill="#b6000048" d="
  M 789,148
  Q 611,260.25 594,470
  L 594,470 637,527
  Q 620,339.25 760,213
  L 760,213 789,148
  Z">
  </path>

  <path  fill="#7474bb56" d="
  M 594,470
  Q 607.5,678 782,792
  L 782,792 852,780
  Q 681.25,707.25 637,527
  L 637,527 594,470
  Z">
  </path>

  <path  fill="#fc55c61b" d="
  M 782,792
  Q 968.75,876 1148,777
  L 1148,777 1170,711
  Q 1028.25,825 852,780
  L 852,780 782,792
  Z">
  </path>

  <path  fill="#8262b37d" d="
  M 1148,777
  Q 1306.75,654.5 1304,454
  L 1304,454 1256,405
  Q 1289.5,579.5 1170,711
  L 1170,711 1148,777
  Z">
  </path>

  <path  fill="#891afe18" d="
  M 1304,454
  Q 1273,261 1100,170
  L 1100,170 1035,190
  Q 1199.25,242.25 1256,405
  L 1256,405 1304,454
  Z">
  </path>

  <path  fill="#7b63761c" d="
  M 1100,170
  Q 919.25,106.5 760,213
  L 760,213 747,279
  Q 868.75,162.5 1035,190
  L 1035,190 1100,170
  Z">
  </path>

  <path  fill="#f6240a3f" d="
  M 760,213
  Q 620,339.25 637,527
  L 637,527 688,569
  Q 645,409.25 747,279
  L 747,279 760,213
  Z">
  </path>

  <path  fill="#7d59ef37" d="
  M 637,527
  Q 681.25,707.25 852,780
  L 852,780 912,755
  Q 753.5,718 688,569
  L 688,569 637,527
  Z">
  </path>

  <path  fill="#c80e5867" d="
  M 852,780
  Q 1028.25,825 1170,711
  L 1170,711 1175,647
  Q 1070.5,766.75 912,755
  L 912,755 852,780
  Z">
  </path>

  <path  fill="#fa436170" d="
  M 1170,711
  Q 1289.5,579.5 1256,405
  L 1256,405 1203,372
  Q 1257.75,516.5 1175,647
  L 1175,647 1170,711
  Z">
  </path>

  <path  fill="#db1aaa0a" d="
  M 1256,405
  Q 1199.25,242.25 1035,190
  L 1035,190 981,221
  Q 1129.75,241 1203,372
  L 1203,372 1256,405
  Z">
  </path>

  <path  fill="#a21cb869" d="
  M 1035,190
  Q 868.75,162.5 747,279
  L 747,279 749,340
  Q 835.25,222.5 981,221
  L 981,221 1035,190
  Z">
  </path>

  <path  fill="#b80fbf1c" d="
  M 747,279
  Q 645,409.25 688,569
  L 688,569 743,595
  Q 682.25,466 749,340
  L 749,340 747,279
  Z">
  </path>

  <path  fill="#f67ece64" d="
  M 688,569
  Q 753.5,718 912,755
  L 912,755 960,719
  Q 820.5,711.25 743,595
  L 743,595 688,569
  Z">
  </path>

  <path  fill="#b92ddc29" d="
  M 912,755
  Q 1070.5,766.75 1175,647
  L 1175,647 1166,589
  Q 1095.5,705.5 960,719
  L 960,719 912,755
  Z">
  </path>

  <path  fill="#ce2cfd03" d="
  M 1175,647
  Q 1257.75,516.5 1203,372
  L 1203,372 1148,354
  Q 1215.75,467 1166,589
  L 1166,589 1175,647
  Z">
  </path>

  <path  fill="#b6639c60" d="
  M 1203,372
  Q 1129.75,241 981,221
  L 981,221 940,261
  Q 1067.25,255.5 1148,354
  L 1148,354 1203,372
  Z">
  </path>

  <path  fill="#e433042c" d="
  M 981,221
  Q 835.25,222.5 749,340
  L 749,340 765,394
  Q 819.25,283.75 940,261
  L 940,261 981,221
  Z">
  </path>

  <path  fill="#d63df94d" d="
  M 749,340
  Q 682.25,466 743,595
  L 743,595 798,605
  Q 728.75,507.75 765,394
  L 765,394 749,340
  Z">
  </path>

  <path  fill="#b364fa48" d="
  M 743,595
  Q 820.5,711.25 960,719
  L 960,719 994,676
  Q 878.25,689.5 798,605
  L 798,605 743,595
  Z">
  </path>

  <path  fill="#f4336b67" d="
  M 960,719
  Q 1095.5,705.5 1166,589
  L 1166,589 1144,539
  Q 1103.25,645 994,676
  L 994,676 960,719
  Z">
  </path>

  <path  fill="#a9218f1d" d="
  M 1166,589
  Q 1215.75,467 1148,354
  L 1148,354 1095,350
  Q 1166.75,432.25 1144,539
  L 1144,539 1166,589
  Z">
  </path>

  <path  fill="#8658634f" d="
  M 1148,354
  Q 1067.25,255.5 940,261
  L 940,261 914,306
  Q 1015.5,282.75 1095,350
  L 1095,350 1148,354
  Z">
  </path>

  <path  fill="#8a101e72" d="
  M 940,261
  Q 819.25,283.75 765,394
  L 765,394 793,437
  Q 820.75,341.25 914,306
  L 914,306 940,261
  Z">
  </path>

  <path  fill="#832c446c" d="
  M 765,394
  Q 728.75,507.75 798,605
  L 798,605 849,601
  Q 780,533 793,437
  L 793,437 765,394
  Z">
  </path>

  <path  fill="#be7e745b" d="
  M 798,605
  Q 878.25,689.5 994,676
  L 994,676 1014,630
  Q 924.25,656.75 849,601
  L 849,601 798,605
  Z">
  </path>

  <path  fill="#c0019971" d="
  M 994,676
  Q 1103.25,645 1144,539
  L 1144,539 1112,501
  Q 1095.25,590 1014,630
  L 1014,630 994,676
  Z">
  </path>

  <path  fill="#92266714" d="
  M 1144,539
  Q 1166.75,432.25 1095,350
  L 1095,350 1047,361
  Q 1114.5,414.75 1112,501
  L 1112,501 1144,539
  Z">
  </path>

  <path  fill="#b46dd02c" d="
  M 1095,350
  Q 1015.5,282.75 914,306
  L 914,306 902,352
  Q 976.75,320.25 1047,361
  L 1047,361 1095,350
  Z">
  </path>

  <path  fill="#b923d318" d="
  M 914,306
  Q 820.75,341.25 793,437
  L 793,437 828,469
  Q 835.75,392 902,352
  L 902,352 914,306
  Z">
  </path>

  <path  fill="#d878b17d" d="
  M 793,437
  Q 780,533 849,601
  L 849,601 893,585
  Q 831.5,543.25 828,469
  L 828,469 793,437
  Z">
  </path>

  <path  fill="#7d004402" d="
  M 849,601
  Q 924.25,656.75 1014,630
  L 1014,630 1020,583
  Q 957,615.75 893,585
  L 893,585 849,601
  Z">
  </path>

  <path  fill="#a24e2a53" d="
  M 1014,630
  Q 1095.25,590 1112,501
  L 1112,501 1074,475
  Q 1074,542.5 1020,583
  L 1020,583 1014,630
  Z">
  </path>

  <path  fill="#950fab08" d="
  M 1112,501
  Q 1114.5,414.75 1047,361
  L 1047,361 1008,383
  Q 1064,412.5 1074,475
  L 1074,475 1112,501
  Z">
  </path>

  <path  fill="#ad6a9829" d="
  M 1047,361
  Q 976.75,320.25 902,352
  L 902,352 904,397
  Q 952.5,364 1008,383
  L 1008,383 1047,361
  Z">
  </path>

  <path  fill="#e32b1513" d="
  M 902,352
  Q 835.75,392 828,469
  L 828,469 868,487
  Q 863.5,433 904,397
  L 904,397 902,352
  Z">
  </path>

  <path  fill="#b748c11d" d="
  M 828,469
  Q 831.5,543.25 893,585
  L 893,585 927,558
  Q 879.75,537.25 868,487
  L 868,487 828,469
  Z">
  </path>

  <path  fill="#f85df32c" d="
  M 893,585
  Q 957,615.75 1020,583
  L 1020,583 1012,541
  Q 973.75,570.75 927,558
  L 927,558 893,585
  Z">
  </path>

  <path  fill="#851d535d" d="
  M 1020,583
  Q 1074,542.5 1074,475
  L 1074,475 1033,463
  Q 1042,507.25 1012,541
  L 1012,541 1020,583
  Z">
  </path>

  <path  fill="#e9473634" d="
  M 1074,475
  Q 1064,412.5 1008,383
  L 1008,383 979,415
  Q 1018,425.5 1033,463
  L 1033,463 1074,475
  Z">
  </path>

  <path  fill="#8f056767" d="
  M 1008,383
  Q 952.5,364 904,397
  L 904,397 919,436
  Q 943.75,410.5 979,415
  L 979,415 1008,383
  Z">
  </path>

  <path  fill="#df51df4d" d="
  M 904,397
  Q 863.5,433 868,487
  L 868,487 910,492
  Q 900.5,461.75 919,436
  L 919,436 904,397
  Z">
  </path>

  <path  fill="#b2408a1d" d="
  M 868,487
  Q 879.75,537.25 927,558
  L 927,558 950,523
  Q 922.25,517.5 910,492
  L 910,492 868,487
  Z">
  </path>

  <path  fill="#8443ec34" d="
  M 927,558
  Q 973.75,570.75 1012,541
  L 1012,541 991,505
  Q 975,524.25 950,523
  L 950,523 927,558
  Z">
  </path>

  <path  fill="#661d0620" d="
  M 1012,541
  Q 1042,507.25 1033,463
  L 1033,463 992,465
  Q 1001.5,485.25 991,505
  L 991,505 1012,541
  Z">
  </path>

  <path  fill="#e6047819" d="
  M 1033,463
  Q 1018,425.5 979,415
  L 979,415 963,452
  Q 980.75,451.25 992,465
  L 992,465 1033,463
  Z">
  </path>

  <path  fill="#f3607e4b" d="
  M 979,415
  Q 943.75,410.5 919,436
  L 919,436 945,467
  Q 950.25,455 963,452
  L 963,452 979,415
  Z">
  </path>

  <path  fill="#ec4e3f4c" d="
  M 919,436
  Q 900.5,461.75 910,492
  L 910,492 949,483
  Q 943,476 945,467
  L 945,467 919,436
  Z">
  </path>

  <path  fill="#767eeb58" d="
  M 910,492
  Q 922.25,517.5 950,523
  L 950,523 959,484
  Q 953.75,486 949,483
  L 949,483 910,492
  Z">
  </path>

  <path  fill="#881c2977" d="
  M 950,523
  Q 975,524.25 991,505
  L 991,505 961,479
  Q 961.25,482 959,484
  L 959,484 950,523
  Z">
  </path>

  <path  fill="#a0245e29" d="
  M 991,505
  Q 1001.5,485.25 992,465
  L 992,465 960,478
  Q 960.75,478.25 961,479
  L 961,479 991,505
  Z">
  </path>
</g>
</svg>
