<svg viewBox="0 0 1920 957" id="svg-77f737" fill="none" preserveAspectRatio="xMinYMid slice" xmlns="http://www.w3.org/2000/svg" xmlns:xlink="http://www.w3.org/1999/xlink" >
<style>
text { font-size:0.65em; }
#svg-77f737 {
  --c0:  #00000000; 
  --c1:  #f3ebee21;  --c2:  #733e62e5;  --c3:  #cca5eb53;  --c4:  #40456987;  --c5:  #8dc028bb;
  --c6:  #4f3e92b7;  --c7:  #0a2e92fc;  --c8:  #74da015c;  --c9:  #d3bd114b;  --c10: #781c4137;
  --c11: #0fe5c10d;  --c12: #71ad853d;  --c13: #f3d4f070;  --c14: #671b50f0;  --c15: #2ef6566b;
  --c16: #9ad2d93c;  --c17: #ebf73ba4;  --c18: #567d7e6d;  --c19: #7afaafbc;  --c20: #e46701f7;
  --c21: #22dd9d39;  --c22: #ba8ececa;  --c23: #11e2d3c2;  --c24: #107ae0d3;  --c25: #77b42cc4;
  --c26: #eb7e988d;  --c27: #825b99a4;  --c28: #a25bef2a;  --c29: #5b1017eb;  --c30: #f2df027f;
  --c31: #6974f983;  --c32: #e828260b;  --c33: #1d8ce42a;  --c34: #fcba3b3f;  --c35: #b5aee339;
  --c36: #eb1098b1;  --c37: #35f3cfbe;  --c38: #ac7b0583;  --c39: #d080cc20;  --c40: #f3391f51;
  --c41: #fa7745a4;  --c42: #f8714453;  --c43: #daf11c3b;  --c44: #d2488a16;  --c45: #ac5f7094;
  --c46: #ad097f23;  --c47: #b25d62f0;  --c48: #9486b4d7;  --c49: #9fd3bed8;  --c50: #a9d441b5;
  --c51: #c54261a9;  --c52: #2575f398;  --c53: #bf310180;  --c54: #c5ac9411;  --c55: #09c0b450;
  --c56: #7d9ec698;  --c57: #17649da6;  --c58: #d812ed8e;  --c59: #55b7e717;  --c60: #a3f7cd31;
  --c61: #49c9b3f2;  --c62: #bb98da97;  --c63: #835a253c;  --c64: #20a2cbf0;  --c65: #772130c3;
  --c66: #6059c730;  --c67: #86dc4ca4;  --c68: #c3396699;  --c69: #c5a7c951;  --c70: #790292dc;
  --c71: #1ac2b728;  --c72: #9886812c;  --c73: #a66d7583;  --c74: #99497b04;  --c75: #5da5e3a3;
  --c76: #a5a8c9d1;  --c77: #50f7e086;  --c78: #7826bb02;  --c79: #92b44edc;  --c80: #ee4cdda0;
  --c81: #d6e8a3d7;  --c82: #c8d2c98f;  --c83: #41648769;  --c84: #93e020f0;  --c85: #bd7cc165;
  --c86: #ad3f42f4;  --c87: #76d1e508;  --c88: #32d40f24;  --c89: #d8b058f1;  --c90: #072ab39c;
  --c91: #e493ffdc;  --c92: #964518ae;  --c93: #7ab74d59;  --c94: #de478ba2;  --c95: #c7368c85;
  --c96: #574e85fd;  --c97: #6b384237;  --c98: #d020fbdb;  --c99: #87e29ea8;  --c100: #8bda0f80;
  --c-count: 100;
}
</style>
<defs>
  <linearGradient id="grad-77f737-1" gradientUnits="userSpaceOnUse" x1="950" y1="100" x2="1920" y2="957">
    <stop offset="0.00" stop-color="var(--c98)"/>
    <stop offset="0.25" stop-color="var(--c84)"/>
    <stop offset="0.50" stop-color="var(--c12)"/>
    <stop offset="0.75" stop-color="var(--c65)"/>
    <stop offset="1.00" stop-color="var(--c42)"/>
  </linearGradient>
  <radialGradient id="grad-77f737-2" gradientUnits="userSpaceOnUse" cx="800" cy="200" r="1560">
    <stop offset="0.00" stop-color="var(--c97)"/>
    <stop offset="0.25" stop-color="var(--c11)"/>
    <stop offset="0.50" stop-color="var(--c37)"/>
    <stop offset="0.75" stop-color="var(--c87)"/>
    <stop offset="1.00" stop-color="var(--c8)"/>
  </radialGradient>
  <linearGradient id="grad-77f737-3" gradientUnits="userSpaceOnUse" x1="150" y1="130" x2="1920" y2="957">
    <stop offset="0.00" stop-color="var(--c2)"/>
    <stop offset="0.25" stop-color="var(--c61)"/>
    <stop offset="0.50" stop-color="var(--c37)"/>
    <stop offset="0.75" stop-color="var(--c92)"/>
    <stop offset="1.00" stop-color="var(--c26)"/>
  </linearGradient>
  <radialGradient id="grad-77f737-4" gradientUnits="userSpaceOnUse" cx="500" cy="700" r="1590">
    <stop offset="0.00" stop-color="var(--c14)"/>
    <stop offset="0.25" stop-color="var(--c98)"/>
    <stop offset="0.50" stop-color="var(--c57)"/>
    <stop offset="0.75" stop-color="var(--c46)"/>
    <stop offset="1.00" stop-color="var(--c18)"/>
  </radialGradient>
  <linearGradient id="grad-77f737-5" gradientUnits="userSpaceOnUse" x1="150" y1="120" x2="1920" y2="957">
    <stop offset="0.00" stop-color="var(--c67)"/>
    <stop offset="0.25" stop-color="var(--c21)"/>
    <stop offset="0.50" stop-color="var(--c92)"/>
    <stop offset="0.75" stop-color="var(--c66)"/>
    <stop offset="1.00" stop-color="var(--c85)"/>
  </linearGradient>
  <radialGradient id="grad-77f737-6" gradientUnits="userSpaceOnUse" cx="360" cy="270" r="1300">
    <stop offset="0.00" stop-color="var(--c27)"/>
    <stop offset="0.25" stop-color="var(--c13)"/>
    <stop offset="0.50" stop-color="var(--c55)"/>
    <stop offset="0.75" stop-color="var(--c54)"/>
    <stop offset="1.00" stop-color="var(--c76)"/>
  </radialGradient>
  <linearGradient id="grad-77f737-7" gradientUnits="userSpaceOnUse" x1="670" y1="240" x2="1920" y2="957">
    <stop offset="0.00" stop-color="var(--c48)"/>
    <stop offset="0.25" stop-color="var(--c71)"/>
    <stop offset="0.50" stop-color="var(--c55)"/>
    <stop offset="0.75" stop-color="var(--c51)"/>
    <stop offset="1.00" stop-color="var(--c72)"/>
  </linearGradient>
  <radialGradient id="grad-77f737-8" gradientUnits="userSpaceOnUse" cx="1500" cy="150" r="1050">
    <stop offset="0.00" stop-color="var(--c4)"/>
    <stop offset="0.25" stop-color="var(--c83)"/>
    <stop offset="0.50" stop-color="var(--c96)"/>
    <stop offset="0.75" stop-color="var(--c17)"/>
    <stop offset="1.00" stop-color="var(--c46)"/>
  </radialGradient>
  <linearGradient id="grad-77f737-9" gradientUnits="userSpaceOnUse" x1="430" y1="170" x2="1920" y2="957">
    <stop offset="0.00" stop-color="var(--c57)"/>
    <stop offset="0.25" stop-color="var(--c92)"/>
    <stop offset="0.50" stop-color="var(--c91)"/>
    <stop offset="0.75" stop-color="var(--c7)"/>
    <stop offset="1.00" stop-color="var(--c53)"/>
  </linearGradient>
  <radialGradient id="grad-77f737-10" gradientUnits="userSpaceOnUse" cx="930" cy="120" r="1440">
    <stop offset="0.00" stop-color="var(--c36)"/>
    <stop offset="0.25" stop-color="var(--c28)"/>
    <stop offset="0.50" stop-color="var(--c93)"/>
    <stop offset="0.75" stop-color="var(--c12)"/>
    <stop offset="1.00" stop-color="var(--c61)"/>
  </radialGradient>
  <linearGradient id="grad-77f737-11" gradientUnits="userSpaceOnUse" x1="870" y1="200" x2="1920" y2="957">
    <stop offset="0.00" stop-color="var(--c2)"/>
    <stop offset="0.25" stop-color="var(--c79)"/>
    <stop offset="0.50" stop-color="var(--c89)"/>
    <stop offset="0.75" stop-color="var(--c77)"/>
    <stop offset="1.00" stop-color="var(--c64)"/>
  </linearGradient>
<filter id="gaussianblur">
  <feGaussianBlur in="SourceGraphic" stdDeviation="7 32" edgeMode="duplicate" color-interpolation-filters="sRGB" />
</filter>
<filter id="glow">
  <feDropShadow in="FillPaint" dx="0" dy="0" stdDeviation="10" flood-color="var(--c66)" />
</filter>
<filter id="dance" color-interpolation-filters="linearRGB" filterUnits="objectBoundingBox" primitiveUnits="userSpaceOnUse">
  <feMorphology operator="dilate" radius="8 8" in="SourceAlpha" result="morphology"/>
  <feFlood flood-color="#000000" flood-opacity="0.5" result="flood"/>
  <feComposite in="flood" in2="morphology" operator="in" result="composite"/>
  <feComposite in="composite" in2="SourceAlpha" operator="out" result="composite1"/>
  <feTurbulence type="fractalNoise" baseFrequency="0.01 0.02" numOctaves="1" seed="0" stitchTiles="stitch" result="turbulence"/>
  <feDisplacementMap in="composite1" in2="turbulence" scale="17" xChannelSelector="A" yChannelSelector="A" result="displacementMap"/>
  <feMerge result="merge">
    <feMergeNode in="SourceGraphic" result="mergeNode"/>
    <feMergeNode in="displacementMap" result="mergeNode1"/>
  </feMerge>
</filter>
</defs>
<rect x="0" y="0" id="box-77f737"  width="1920" height="957"   fill="#333" ></rect>
<circle id="circ-77f737-1"  r="248" cx="10" cy="211"  fill="url(#grad-77f737-1)"  stroke="#99CC9999" stroke-width="86" stroke-linecap="round" stroke-linejoin="round" stroke-opacity="0.1"  filter="url(#gaussianblur)"  onclick="this.style.opacity = 0.5"></circle>
<g id="flower-77f737-2" class="flower"  fill="url(#grad-77f737-2)"  filter="url(#glow)" >
  <path id="petal-77f737-2-1" class="flower petal" fill="url(#grad-77f737-2)"  filter="url(#glow)"  onclick="this.style.opacity = 0.5"   d="
    M 1270 270 
    L 1489,270
    A 45,45 0,0,1 1379,460
    L 1270,270
    Z">
  </path>
  <path id="petal-77f737-2-2" class="flower petal" fill="url(#grad-77f737-2)"  filter="url(#glow)"  onclick="this.style.opacity = 0.5"   d="
    M 1270 270 
    L 1379,460
    A 45,45 0,0,1 1159,460
    L 1270,270
    Z">
  </path>
  <path id="petal-77f737-2-3" class="flower petal" fill="url(#grad-77f737-2)"  filter="url(#glow)"  onclick="this.style.opacity = 0.5"   d="
    M 1270 270 
    L 1159,460
    A 45,45 0,0,1 1050,269
    L 1270,270
    Z">
  </path>
  <path id="petal-77f737-2-4" class="flower petal" fill="url(#grad-77f737-2)"  filter="url(#glow)"  onclick="this.style.opacity = 0.5"   d="
    M 1270 270 
    L 1050,269
    A 45,45 0,0,1 1160,79
    L 1270,270
    Z">
  </path>
  <path id="petal-77f737-2-5" class="flower petal" fill="url(#grad-77f737-2)"  filter="url(#glow)"  onclick="this.style.opacity = 0.5"   d="
    M 1270 270 
    L 1160,79
    A 45,45 0,0,1 1380,79
    L 1270,270
    Z">
  </path>
  <path id="petal-77f737-2-6" class="flower petal" fill="url(#grad-77f737-2)"  filter="url(#glow)"  onclick="this.style.opacity = 0.5"   d="
    M 1270 270 
    L 1380,79
    A 45,45 0,0,1 1489,270
    L 1270,270
    Z">
  </path>
</g>
  <polygon id="triangle-77f737-3-7" class="triangle" fill="url(#grad-77f737-3)"  stroke="#00000033" stroke-width="21" stroke-linecap="round" stroke-linejoin="round"  filter="url(#glow)"  onclick="this.style.opacity = 0.5"  points="1469,420 1049,662 1050,177 ">
  </polygon>

<path   id="cloud-77f737-4-a" class="cloud arc"   onclick="this.style.opacity = 0.5"  fill="url(#grad-77f737-4)"  stroke="#FFFFFF33" stroke-width="95" stroke-linecap="round" stroke-linejoin="round"  filter="url(#glow)"  d="
  M 945 105 
  A 45,45 0,0,1 1765,260
  A 45,45 0,0,1 1855,650
  A 45,45 0,0,1 1110,490
  A 45,45 0,0,1 945,105
  Z" >
</path>
<circle id="circ-77f737-5"  r="382" cx="1933" cy="128"  fill="url(#grad-77f737-5)"  stroke="#99CC9999" stroke-width="34" stroke-linecap="round" stroke-linejoin="round" stroke-opacity="0.1"  filter="url(#glow)"  onclick="this.style.opacity = 0.5"></circle>
<rect   id="rect-77f737-6" x="698" y="88" width="267" height="267"  fill="url(#grad-77f737-6)"  stroke="#00000099" stroke-width="1" stroke-linecap="round" stroke-linejoin="round" stroke-opacity="0.5"  filter="url(#glow)"  onclick="this.style.opacity = 0.5" class="square" ></rect>
  <polygon id="oddagon-77f737-8-5" class="oddagon poly9" fill="url(#grad-77f737-8)"  stroke="#33993366" stroke-width="14" stroke-linecap="round" stroke-linejoin="round"  filter="url(#dance)"  onclick="this.style.opacity = 0.5"  points="449,430 400,565 276,636 134,611 42,501 42,358 135,248 276,223 400,295 ">
  </polygon>

<circle id="circ-77f737-9"  r="532" cx="704" cy="0"  fill="url(#grad-77f737-9)"  filter="url(#dance)"  onclick="this.style.opacity = 0.5"></circle>
<circle id="circ-77f737-10"  r="258" cx="203" cy="81"  fill="url(#grad-77f737-10)"  stroke="#99CC9999" stroke-width="64" stroke-linecap="round" stroke-linejoin="round" stroke-opacity="0.1"  filter="url(#dance)"  onclick="this.style.opacity = 0.5"></circle>
<circle id="circ-77f737-11"  r="272" cx="1383" cy="847"  fill="url(#grad-77f737-11)"  filter="url(#pointlighting)"  onclick="this.style.opacity = 0.5"></circle>
<path d=" M 1016,482 L 1024,474 M 1024,482 L 1016,474" stroke="#FFF3" class="grid" />
<path d=" M 1016,482 L 1024,474 M 1024,482 L 1016,474" stroke="#FFF3" class="grid" />
<text fill="#FF06" x="1016" y="492">1</text><path d=" M 1024,494 L 1032,486 M 1032,494 L 1024,486" stroke="#FFF3" class="grid" />
<path d=" M 1024,494 L 1032,486 M 1032,494 L 1024,486" stroke="#FFF3" class="grid" />
<text fill="#FF06" x="1024" y="504">2</text><path d=" M 1031,509 L 1039,501 M 1039,509 L 1031,501" stroke="#FFF3" class="grid" />
<path d=" M 1031,509 L 1039,501 M 1039,509 L 1031,501" stroke="#FFF3" class="grid" />
<text fill="#FF06" x="1031" y="519">3</text><path d=" M 1033,527 L 1041,519 M 1041,527 L 1033,519" stroke="#FFF3" class="grid" />
<path d=" M 1033,527 L 1041,519 M 1041,527 L 1033,519" stroke="#FFF3" class="grid" />
<text fill="#FF06" x="1033" y="537">4</text><path d=" M 1032,546 L 1040,538 M 1040,546 L 1032,538" stroke="#FFF3" class="grid" />
<path d=" M 1032,546 L 1040,538 M 1040,546 L 1032,538" stroke="#FFF3" class="grid" />
<text fill="#FF06" x="1032" y="556">5</text><path d=" M 1026,566 L 1034,558 M 1034,566 L 1026,558" stroke="#FFF3" class="grid" />
<path d=" M 1026,566 L 1034,558 M 1034,566 L 1026,558" stroke="#FFF3" class="grid" />
<text fill="#FF06" x="1026" y="576">6</text><path d=" M 1016,585 L 1024,577 M 1024,585 L 1016,577" stroke="#FFF3" class="grid" />
<path d=" M 1016,585 L 1024,577 M 1024,585 L 1016,577" stroke="#FFF3" class="grid" />
<text fill="#FF06" x="1016" y="595">7</text><path d=" M 1000,604 L 1008,596 M 1008,604 L 1000,596" stroke="#FFF3" class="grid" />
<path d=" M 1000,604 L 1008,596 M 1008,604 L 1000,596" stroke="#FFF3" class="grid" />
<text fill="#FF06" x="1000" y="614">8</text><path d=" M 980,619 L 988,611 M 988,619 L 980,611" stroke="#FFF3" class="grid" />
<path d=" M 980,619 L 988,611 M 988,619 L 980,611" stroke="#FFF3" class="grid" />
<text fill="#FF06" x="980" y="629">9</text><path d=" M 956,632 L 964,624 M 964,632 L 956,624" stroke="#FFF3" class="grid" />
<path d=" M 956,632 L 964,624 M 964,632 L 956,624" stroke="#FFF3" class="grid" />
<text fill="#FF06" x="956" y="642">10</text><path d=" M 928,639 L 936,631 M 936,639 L 928,631" stroke="#FFF3" class="grid" />
<path d=" M 928,639 L 936,631 M 936,639 L 928,631" stroke="#FFF3" class="grid" />
<text fill="#FF06" x="928" y="649">11</text><path d=" M 897,641 L 905,633 M 905,641 L 897,633" stroke="#FFF3" class="grid" />
<path d=" M 897,641 L 905,633 M 905,641 L 897,633" stroke="#FFF3" class="grid" />
<text fill="#FF06" x="897" y="651">12</text><path d=" M 866,637 L 874,629 M 874,637 L 866,629" stroke="#FFF3" class="grid" />
<path d=" M 866,637 L 874,629 M 874,637 L 866,629" stroke="#FFF3" class="grid" />
<text fill="#FF06" x="866" y="647">13</text><path d=" M 833,627 L 841,619 M 841,627 L 833,619" stroke="#FFF3" class="grid" />
<path d=" M 833,627 L 841,619 M 841,627 L 833,619" stroke="#FFF3" class="grid" />
<text fill="#FF06" x="833" y="637">14</text><path d=" M 802,610 L 810,602 M 810,610 L 802,602" stroke="#FFF3" class="grid" />
<path d=" M 802,610 L 810,602 M 810,610 L 802,602" stroke="#FFF3" class="grid" />
<text fill="#FF06" x="802" y="620">15</text><path d=" M 774,587 L 782,579 M 782,587 L 774,579" stroke="#FFF3" class="grid" />
<path d=" M 774,587 L 782,579 M 782,587 L 774,579" stroke="#FFF3" class="grid" />
<text fill="#FF06" x="774" y="597">16</text><path d=" M 749,557 L 757,549 M 757,557 L 749,549" stroke="#FFF3" class="grid" />
<path d=" M 749,557 L 757,549 M 757,557 L 749,549" stroke="#FFF3" class="grid" />
<text fill="#FF06" x="749" y="567">17</text><path d=" M 729,521 L 737,513 M 737,521 L 729,513" stroke="#FFF3" class="grid" />
<path d=" M 729,521 L 737,513 M 737,521 L 729,513" stroke="#FFF3" class="grid" />
<text fill="#FF06" x="729" y="531">18</text><path d=" M 716,482 L 724,474 M 724,482 L 716,474" stroke="#FFF3" class="grid" />
<path d=" M 716,482 L 724,474 M 724,482 L 716,474" stroke="#FFF3" class="grid" />
<text fill="#FF06" x="716" y="492">19</text><path d=" M 709,438 L 717,430 M 717,438 L 709,430" stroke="#FFF3" class="grid" />
<path d=" M 709,438 L 717,430 M 717,438 L 709,430" stroke="#FFF3" class="grid" />
<text fill="#FF06" x="709" y="448">20</text><path d=" M 711,393 L 719,385 M 719,393 L 711,385" stroke="#FFF3" class="grid" />
<path d=" M 711,393 L 719,385 M 719,393 L 711,385" stroke="#FFF3" class="grid" />
<text fill="#FF06" x="711" y="403">21</text><path d=" M 722,347 L 730,339 M 730,347 L 722,339" stroke="#FFF3" class="grid" />
<path d=" M 722,347 L 730,339 M 730,347 L 722,339" stroke="#FFF3" class="grid" />
<text fill="#FF06" x="722" y="357">22</text><path d=" M 741,302 L 749,294 M 749,302 L 741,294" stroke="#FFF3" class="grid" />
<path d=" M 741,302 L 749,294 M 749,302 L 741,294" stroke="#FFF3" class="grid" />
<text fill="#FF06" x="741" y="312">23</text><path d=" M 769,259 L 777,251 M 777,259 L 769,251" stroke="#FFF3" class="grid" />
<path d=" M 769,259 L 777,251 M 777,259 L 769,251" stroke="#FFF3" class="grid" />
<text fill="#FF06" x="769" y="269">24</text><path d=" M 805,222 L 813,214 M 813,222 L 805,214" stroke="#FFF3" class="grid" />
<path d=" M 805,222 L 813,214 M 813,222 L 805,214" stroke="#FFF3" class="grid" />
<text fill="#FF06" x="805" y="232">25</text><path d=" M 849,190 L 857,182 M 857,190 L 849,182" stroke="#FFF3" class="grid" />
<path d=" M 849,190 L 857,182 M 857,190 L 849,182" stroke="#FFF3" class="grid" />
<text fill="#FF06" x="849" y="200">26</text><path d=" M 900,166 L 908,158 M 908,166 L 900,158" stroke="#FFF3" class="grid" />
<path d=" M 900,166 L 908,158 M 908,166 L 900,158" stroke="#FFF3" class="grid" />
<text fill="#FF06" x="900" y="176">27</text><path d=" M 955,152 L 963,144 M 963,152 L 955,144" stroke="#FFF3" class="grid" />
<path d=" M 955,152 L 963,144 M 963,152 L 955,144" stroke="#FFF3" class="grid" />
<text fill="#FF06" x="955" y="162">28</text><path d=" M 1015,147 L 1023,139 M 1023,147 L 1015,139" stroke="#FFF3" class="grid" />
<path d=" M 1015,147 L 1023,139 M 1023,147 L 1015,139" stroke="#FFF3" class="grid" />
<text fill="#FF06" x="1015" y="157">29</text><path d=" M 1075,153 L 1083,145 M 1083,153 L 1075,145" stroke="#FFF3" class="grid" />
<path d=" M 1075,153 L 1083,145 M 1083,153 L 1075,145" stroke="#FFF3" class="grid" />
<text fill="#FF06" x="1075" y="163">30</text><path d=" M 1135,170 L 1143,162 M 1143,170 L 1135,162" stroke="#FFF3" class="grid" />
<path d=" M 1135,170 L 1143,162 M 1143,170 L 1135,162" stroke="#FFF3" class="grid" />
<text fill="#FF06" x="1135" y="180">31</text><path d=" M 1193,198 L 1201,190 M 1201,198 L 1193,190" stroke="#FFF3" class="grid" />
<path d=" M 1193,198 L 1201,190 M 1201,198 L 1193,190" stroke="#FFF3" class="grid" />
<text fill="#FF06" x="1193" y="208">32</text><path d=" M 1247,237 L 1255,229 M 1255,237 L 1247,229" stroke="#FFF3" class="grid" />
<path d=" M 1247,237 L 1255,229 M 1255,237 L 1247,229" stroke="#FFF3" class="grid" />
<text fill="#FF06" x="1247" y="247">33</text><path d=" M 1293,286 L 1301,278 M 1301,286 L 1293,278" stroke="#FFF3" class="grid" />
<path d=" M 1293,286 L 1301,278 M 1301,286 L 1293,278" stroke="#FFF3" class="grid" />
<text fill="#FF06" x="1293" y="296">34</text><path d=" M 1331,345 L 1339,337 M 1339,345 L 1331,337" stroke="#FFF3" class="grid" />
<path d=" M 1331,345 L 1339,337 M 1339,345 L 1331,337" stroke="#FFF3" class="grid" />
<text fill="#FF06" x="1331" y="355">35</text><path d=" M 1359,410 L 1367,402 M 1367,410 L 1359,402" stroke="#FFF3" class="grid" />
<path d=" M 1359,410 L 1367,402 M 1367,410 L 1359,402" stroke="#FFF3" class="grid" />
<text fill="#FF06" x="1359" y="420">36</text><path d=" M 1436,481 L 1444,473 M 1444,481 L 1436,473" stroke="#FFF3" class="grid" />
<path d=" M 1436,481 L 1444,473 M 1444,481 L 1436,473" stroke="#FFF3" class="grid" />
<text fill="#FF06" x="1436" y="491">37</text><path d=" M 1438,567 L 1446,559 M 1446,567 L 1438,559" stroke="#FFF3" class="grid" />
<path d=" M 1438,567 L 1446,559 M 1446,567 L 1438,559" stroke="#FFF3" class="grid" />
<text fill="#FF06" x="1438" y="577">38</text><path d=" M 1425,653 L 1433,645 M 1433,653 L 1425,645" stroke="#FFF3" class="grid" />
<path d=" M 1425,653 L 1433,645 M 1433,653 L 1425,645" stroke="#FFF3" class="grid" />
<text fill="#FF06" x="1425" y="663">39</text><path d=" M 1397,736 L 1405,728 M 1405,736 L 1397,728" stroke="#FFF3" class="grid" />
<path d=" M 1397,736 L 1405,728 M 1405,736 L 1397,728" stroke="#FFF3" class="grid" />
<text fill="#FF06" x="1397" y="746">40</text><path d=" M 1354,816 L 1362,808 M 1362,816 L 1354,808" stroke="#FFF3" class="grid" />
<path d=" M 1354,816 L 1362,808 M 1362,816 L 1354,808" stroke="#FFF3" class="grid" />
<text fill="#FF06" x="1354" y="826">41</text><path d=" M 1296,888 L 1304,880 M 1304,888 L 1296,880" stroke="#FFF3" class="grid" />
<path d=" M 1296,888 L 1304,880 M 1304,888 L 1296,880" stroke="#FFF3" class="grid" />
<text fill="#FF06" x="1296" y="898">42</text><path d=" M 1226,949 L 1234,941 M 1234,949 L 1226,941" stroke="#FFF3" class="grid" />
<path d=" M 1226,949 L 1234,941 M 1234,949 L 1226,941" stroke="#FFF3" class="grid" />
<text fill="#FF06" x="1226" y="959">43</text><path d=" M 563,949 L 571,941 M 571,949 L 563,941" stroke="#FFF3" class="grid" />
<path d=" M 563,949 L 571,941 M 571,949 L 563,941" stroke="#FFF3" class="grid" />
<text fill="#FF06" x="563" y="959">44</text><path d=" M 481,880 L 489,872 M 489,880 L 481,872" stroke="#FFF3" class="grid" />
<path d=" M 481,880 L 489,872 M 489,880 L 481,872" stroke="#FFF3" class="grid" />
<text fill="#FF06" x="481" y="890">45</text><path d=" M 410,797 L 418,789 M 418,797 L 410,789" stroke="#FFF3" class="grid" />
<path d=" M 410,797 L 418,789 M 418,797 L 410,789" stroke="#FFF3" class="grid" />
<text fill="#FF06" x="410" y="807">46</text><path d=" M 354,700 L 362,692 M 362,700 L 354,692" stroke="#FFF3" class="grid" />
<path d=" M 354,700 L 362,692 M 362,700 L 354,692" stroke="#FFF3" class="grid" />
<text fill="#FF06" x="354" y="710">47</text><path d=" M 315,594 L 323,586 M 323,594 L 315,586" stroke="#FFF3" class="grid" />
<path d=" M 315,594 L 323,586 M 323,594 L 315,586" stroke="#FFF3" class="grid" />
<text fill="#FF06" x="315" y="604">48</text><path d=" M 296,482 L 304,474 M 304,482 L 296,474" stroke="#FFF3" class="grid" />
<path d=" M 296,482 L 304,474 M 304,482 L 296,474" stroke="#FFF3" class="grid" />
<text fill="#FF06" x="296" y="492">49</text><path d=" M 296,365 L 304,357 M 304,365 L 296,357" stroke="#FFF3" class="grid" />
<path d=" M 296,365 L 304,357 M 304,365 L 296,357" stroke="#FFF3" class="grid" />
<text fill="#FF06" x="296" y="375">50</text><path d=" M 317,249 L 325,241 M 325,249 L 317,241" stroke="#FFF3" class="grid" />
<path d=" M 317,249 L 325,241 M 325,249 L 317,241" stroke="#FFF3" class="grid" />
<text fill="#FF06" x="317" y="259">51</text><path d=" M 358,137 L 366,129 M 366,137 L 358,129" stroke="#FFF3" class="grid" />
<path d=" M 358,137 L 366,129 M 366,137 L 358,129" stroke="#FFF3" class="grid" />
<text fill="#FF06" x="358" y="147">52</text><path d=" M 419,32 L 427,24 M 427,32 L 419,24" stroke="#FFF3" class="grid" />
<path d=" M 419,32 L 427,24 M 427,32 L 419,24" stroke="#FFF3" class="grid" />
<text fill="#FF06" x="419" y="42">53</text><path d=" M 1657,76 L 1665,68 M 1665,76 L 1657,68" stroke="#FFF3" class="grid" />
<path d=" M 1657,76 L 1665,68 M 1665,76 L 1657,68" stroke="#FFF3" class="grid" />
<text fill="#FF06" x="1657" y="86">54</text><path d=" M 1726,201 L 1734,193 M 1734,201 L 1726,193" stroke="#FFF3" class="grid" />
<path d=" M 1726,201 L 1734,193 M 1734,201 L 1726,193" stroke="#FFF3" class="grid" />
<text fill="#FF06" x="1726" y="211">55</text><path d=" M 1773,337 L 1781,329 M 1781,337 L 1773,329" stroke="#FFF3" class="grid" />
<path d=" M 1773,337 L 1781,329 M 1781,337 L 1773,329" stroke="#FFF3" class="grid" />
<text fill="#FF06" x="1773" y="347">56</text><path d=" M 1856,481 L 1864,473 M 1864,481 L 1856,473" stroke="#FFF3" class="grid" />
<path d=" M 1856,481 L 1864,473 M 1864,481 L 1856,473" stroke="#FFF3" class="grid" />
<text fill="#FF06" x="1856" y="491">57</text><path d=" M 1852,640 L 1860,632 M 1860,640 L 1852,632" stroke="#FFF3" class="grid" />
<path d=" M 1852,640 L 1860,632 M 1860,640 L 1852,632" stroke="#FFF3" class="grid" />
<text fill="#FF06" x="1852" y="650">58</text><path d=" M 1820,796 L 1828,788 M 1828,796 L 1820,788" stroke="#FFF3" class="grid" />
<path d=" M 1820,796 L 1828,788 M 1828,796 L 1820,788" stroke="#FFF3" class="grid" />
<text fill="#FF06" x="1820" y="806">59</text><path d=" M 1761,946 L 1769,938 M 1769,946 L 1761,938" stroke="#FFF3" class="grid" />
<path d=" M 1761,946 L 1769,938 M 1769,946 L 1761,938" stroke="#FFF3" class="grid" />
<text fill="#FF06" x="1761" y="956">60</text></svg>
