<svg viewBox="0 0 1920 957" id="svg-320741" fill="none" preserveAspectRatio="xMinYMid slice" xmlns="http://www.w3.org/2000/svg" xmlns:xlink="http://www.w3.org/1999/xlink" >
<style>
text { font-size:0.65em; }
#svg-320741 {
  --c0:  #00000000; 
  --c1:  #71fd3fca;  --c2:  #d961cbcf;  --c3:  #03c4372a;  --c4:  #00bda841;  --c5:  #363e658b;
  --c6:  #7f4f540d;  --c7:  #9ffa3a17;  --c8:  #4bbadb6f;  --c9:  #170831c2;  --c10: #71a36e0a;
  --c11: #b93d5f67;  --c12: #ba781cdd;  --c13: #d728c740;  --c14: #9385e43b;  --c15: #3c3c9e64;
  --c16: #f433fd9b;  --c17: #a3debc82;  --c18: #6cd28fbc;  --c19: #79601825;  --c20: #ca20eac1;
  --c21: #045cb428;  --c22: #6f94e09c;  --c23: #59f2670f;  --c24: #d30fb36f;  --c25: #eda1cc02;
  --c26: #f3521524;  --c27: #8e3fa706;  --c28: #cbf92dda;  --c29: #bc83d3a9;  --c30: #0a6f0bcf;
  --c31: #7d2a059c;  --c32: #721b0b04;  --c33: #11c7a1b7;  --c34: #d2fff6cc;  --c35: #612cba0f;
  --c36: #a3a05d52;  --c37: #8fbec940;  --c38: #8376f757;  --c39: #e1f156f1;  --c40: #d4c54903;
  --c41: #67c09581;  --c42: #91f45e3a;  --c43: #38864731;  --c44: #8942b017;  --c45: #6fc07c15;
  --c46: #e4897352;  --c47: #be8add39;  --c48: #39a485b8;  --c49: #31046c99;  --c50: #906c2e5d;
  --c51: #4e7b8100;  --c52: #3233668c;  --c53: #0383efc7;  --c54: #0d776c1d;  --c55: #6b67fe09;
  --c56: #63f124d1;  --c57: #a4ac7d98;  --c58: #761239cf;  --c59: #412165a7;  --c60: #e0b896f1;
  --c61: #87af547d;  --c62: #1f13e987;  --c63: #5c00a786;  --c64: #eceefb60;  --c65: #0fc2e8b2;
  --c66: #7aece3bd;  --c67: #8707b3cf;  --c68: #1d5f9db1;  --c69: #4671863f;  --c70: #f35b3e7b;
  --c71: #7d84c7ac;  --c72: #13ea5444;  --c73: #42b89651;  --c74: #e4ed10fb;  --c75: #fcc0f1fe;
  --c76: #16ff793a;  --c77: #1213d345;  --c78: #97181676;  --c79: #c5555eed;  --c80: #efdf8ec4;
  --c81: #748fbd4b;  --c82: #1cc9dd50;  --c83: #8bd98b87;  --c84: #a890a474;  --c85: #9d89e9c4;
  --c86: #64cf035b;  --c87: #0d9a4d23;  --c88: #6ba8cecc;  --c89: #298aca6b;  --c90: #9ab661e4;
  --c91: #cb9077fe;  --c92: #6fd964ab;  --c93: #8f95d004;  --c94: #e8af1b6a;  --c95: #574470e4;
  --c96: #767dcdd8;  --c97: #20a899e7;  --c98: #8bfd747d;  --c99: #9049628e;  --c100: #67c75db7;
  --c-count: 100;
}
</style>
<defs>
  <linearGradient id="grad-320741-1" gradientUnits="userSpaceOnUse" x1="530" y1="240" x2="1920" y2="957">
    <stop offset="0.00" stop-color="var(--c94)"/>
    <stop offset="0.25" stop-color="var(--c17)"/>
    <stop offset="0.50" stop-color="var(--c32)"/>
    <stop offset="0.75" stop-color="var(--c87)"/>
    <stop offset="1.00" stop-color="var(--c13)"/>
  </linearGradient>
  <radialGradient id="grad-320741-2" gradientUnits="userSpaceOnUse" cx="1360" cy="790" r="1450">
    <stop offset="0.00" stop-color="var(--c94)"/>
    <stop offset="0.25" stop-color="var(--c60)"/>
    <stop offset="0.50" stop-color="var(--c46)"/>
    <stop offset="0.75" stop-color="var(--c20)"/>
    <stop offset="1.00" stop-color="var(--c96)"/>
  </radialGradient>
  <linearGradient id="grad-320741-3" gradientUnits="userSpaceOnUse" x1="430" y1="120" x2="1920" y2="957">
    <stop offset="0.00" stop-color="var(--c76)"/>
    <stop offset="0.25" stop-color="var(--c64)"/>
    <stop offset="0.50" stop-color="var(--c94)"/>
    <stop offset="0.75" stop-color="var(--c16)"/>
    <stop offset="1.00" stop-color="var(--c57)"/>
  </linearGradient>
  <radialGradient id="grad-320741-4" gradientUnits="userSpaceOnUse" cx="200" cy="490" r="1390">
    <stop offset="0.00" stop-color="var(--c63)"/>
    <stop offset="0.25" stop-color="var(--c75)"/>
    <stop offset="0.50" stop-color="var(--c30)"/>
    <stop offset="0.75" stop-color="var(--c88)"/>
    <stop offset="1.00" stop-color="var(--c80)"/>
  </radialGradient>
  <linearGradient id="grad-320741-5" gradientUnits="userSpaceOnUse" x1="610" y1="220" x2="1920" y2="957">
    <stop offset="0.00" stop-color="var(--c76)"/>
    <stop offset="0.25" stop-color="var(--c25)"/>
    <stop offset="0.50" stop-color="var(--c92)"/>
    <stop offset="0.75" stop-color="var(--c29)"/>
    <stop offset="1.00" stop-color="var(--c27)"/>
  </linearGradient>
  <radialGradient id="grad-320741-6" gradientUnits="userSpaceOnUse" cx="790" cy="580" r="1050">
    <stop offset="0.00" stop-color="var(--c65)"/>
    <stop offset="0.25" stop-color="var(--c60)"/>
    <stop offset="0.50" stop-color="var(--c78)"/>
    <stop offset="0.75" stop-color="var(--c29)"/>
    <stop offset="1.00" stop-color="var(--c95)"/>
  </radialGradient>
  <linearGradient id="grad-320741-7" gradientUnits="userSpaceOnUse" x1="370" y1="220" x2="1920" y2="957">
    <stop offset="0.00" stop-color="var(--c68)"/>
    <stop offset="0.25" stop-color="var(--c41)"/>
    <stop offset="0.50" stop-color="var(--c78)"/>
    <stop offset="0.75" stop-color="var(--c2)"/>
    <stop offset="1.00" stop-color="var(--c27)"/>
  </linearGradient>
  <radialGradient id="grad-320741-8" gradientUnits="userSpaceOnUse" cx="980" cy="810" r="1520">
    <stop offset="0.00" stop-color="var(--c59)"/>
    <stop offset="0.25" stop-color="var(--c27)"/>
    <stop offset="0.50" stop-color="var(--c16)"/>
    <stop offset="0.75" stop-color="var(--c66)"/>
    <stop offset="1.00" stop-color="var(--c51)"/>
  </radialGradient>
  <linearGradient id="grad-320741-9" gradientUnits="userSpaceOnUse" x1="220" y1="160" x2="1920" y2="957">
    <stop offset="0.00" stop-color="var(--c64)"/>
    <stop offset="0.25" stop-color="var(--c36)"/>
    <stop offset="0.50" stop-color="var(--c81)"/>
    <stop offset="0.75" stop-color="var(--c13)"/>
    <stop offset="1.00" stop-color="var(--c18)"/>
  </linearGradient>
  <radialGradient id="grad-320741-10" gradientUnits="userSpaceOnUse" cx="1450" cy="160" r="1190">
    <stop offset="0.00" stop-color="var(--c59)"/>
    <stop offset="0.25" stop-color="var(--c1)"/>
    <stop offset="0.50" stop-color="var(--c57)"/>
    <stop offset="0.75" stop-color="var(--c6)"/>
    <stop offset="1.00" stop-color="var(--c99)"/>
  </radialGradient>
  <linearGradient id="grad-320741-11" gradientUnits="userSpaceOnUse" x1="390" y1="190" x2="1920" y2="957">
    <stop offset="0.00" stop-color="var(--c1)"/>
    <stop offset="0.25" stop-color="var(--c95)"/>
    <stop offset="0.50" stop-color="var(--c47)"/>
    <stop offset="0.75" stop-color="var(--c12)"/>
    <stop offset="1.00" stop-color="var(--c34)"/>
  </linearGradient>
<filter id="gaussianblur">
  <feGaussianBlur in="SourceGraphic" stdDeviation="28 26" edgeMode="duplicate" color-interpolation-filters="sRGB" />
</filter>
<filter id="glow">
  <feDropShadow in="FillPaint" dx="0" dy="0" stdDeviation="6" flood-color="var(--c14)" />
</filter>
<filter id="dance" color-interpolation-filters="linearRGB" filterUnits="objectBoundingBox" primitiveUnits="userSpaceOnUse">
  <feMorphology operator="dilate" radius="8 8" in="SourceAlpha" result="morphology"/>
  <feFlood flood-color="#000000" flood-opacity="0.5" result="flood"/>
  <feComposite in="flood" in2="morphology" operator="in" result="composite"/>
  <feComposite in="composite" in2="SourceAlpha" operator="out" result="composite1"/>
  <feTurbulence type="fractalNoise" baseFrequency="0.01 0.02" numOctaves="1" seed="0" stitchTiles="stitch" result="turbulence"/>
  <feDisplacementMap in="composite1" in2="turbulence" scale="17" xChannelSelector="A" yChannelSelector="A" result="displacementMap"/>
  <feMerge result="merge">
    <feMergeNode in="SourceGraphic" result="mergeNode"/>
    <feMergeNode in="displacementMap" result="mergeNode1"/>
  </feMerge>
</filter>
</defs>
<rect x="0" y="0" id="box-320741"  width="1920" height="957"   fill="#333" ></rect>
<g id="flower-320741-1" class="flower"  fill="url(#grad-320741-1)"  filter="url(#glow)" >
  <path id="petal-320741-1-1" class="flower petal" fill="url(#grad-320741-1)"  filter="url(#glow)"  onclick="this.style.opacity = 0.5"   d="
    M 1130 200 
    L 1289,200
    A 45,45 0,0,1 1229,325
    L 1130,200
    Z">
  </path>
  <path id="petal-320741-1-2" class="flower petal" fill="url(#grad-320741-1)"  filter="url(#glow)"  onclick="this.style.opacity = 0.5"   d="
    M 1130 200 
    L 1229,325
    A 45,45 0,0,1 1094,355
    L 1130,200
    Z">
  </path>
  <path id="petal-320741-1-3" class="flower petal" fill="url(#grad-320741-1)"  filter="url(#glow)"  onclick="this.style.opacity = 0.5"   d="
    M 1130 200 
    L 1094,355
    A 45,45 0,0,1 985,269
    L 1130,200
    Z">
  </path>
  <path id="petal-320741-1-4" class="flower petal" fill="url(#grad-320741-1)"  filter="url(#glow)"  onclick="this.style.opacity = 0.5"   d="
    M 1130 200 
    L 985,269
    A 45,45 0,0,1 985,130
    L 1130,200
    Z">
  </path>
  <path id="petal-320741-1-5" class="flower petal" fill="url(#grad-320741-1)"  filter="url(#glow)"  onclick="this.style.opacity = 0.5"   d="
    M 1130 200 
    L 985,130
    A 45,45 0,0,1 1094,43
    L 1130,200
    Z">
  </path>
  <path id="petal-320741-1-6" class="flower petal" fill="url(#grad-320741-1)"  filter="url(#glow)"  onclick="this.style.opacity = 0.5"   d="
    M 1130 200 
    L 1094,43
    A 45,45 0,0,1 1229,74
    L 1130,200
    Z">
  </path>
  <path id="petal-320741-1-7" class="flower petal" fill="url(#grad-320741-1)"  filter="url(#glow)"  onclick="this.style.opacity = 0.5"   d="
    M 1130 200 
    L 1229,74
    A 45,45 0,0,1 1289,200
    L 1130,200
    Z">
  </path>
</g>
<circle id="circ-320741-3"  r="561" cx="85" cy="374"  fill="url(#grad-320741-3)"  stroke="#99CC9999" stroke-width="59" stroke-linecap="round" stroke-linejoin="round" stroke-opacity="0.1"  filter="url(#gaussianblur)"  onclick="this.style.opacity = 0.5"></circle>
<circle id="circ-320741-4"  r="222" cx="107" cy="573"  fill="url(#grad-320741-4)"  stroke="#99CC9999" stroke-width="98" stroke-linecap="round" stroke-linejoin="round" stroke-opacity="0.1"  filter="url(#glow)"  onclick="this.style.opacity = 0.5"></circle>
  <polygon id="oddagon-320741-5-8" class="oddagon poly3" fill="url(#grad-320741-5)"  filter="url(#gaussianblur)"  onclick="this.style.opacity = 0.5"  points="789,680 339,939 340,419 ">
  </polygon>

  <polygon id="triangle-320741-6-4" class="triangle" fill="url(#grad-320741-6)"  filter="url(#glow)"  onclick="this.style.opacity = 0.5"  points="659,320 314,518 315,120 ">
  </polygon>

<circle id="circ-320741-7"  r="453" cx="75" cy="52"  fill="url(#grad-320741-7)"  stroke="#99CC9999" stroke-width="66" stroke-linecap="round" stroke-linejoin="round" stroke-opacity="0.1"  filter="url(#glow)"  onclick="this.style.opacity = 0.5"></circle>
<circle id="circ-320741-8"  r="251" cx="250" cy="102"  fill="url(#grad-320741-8)"  stroke="#99CC9999" stroke-width="42" stroke-linecap="round" stroke-linejoin="round" stroke-opacity="0.1"  filter="url(#gaussianblur)"  onclick="this.style.opacity = 0.5"></circle>
<rect   id="rect-320741-9" x="1028" y="442" width="310" height="310"  fill="url(#grad-320741-9)"  stroke="#00000099" stroke-width="1" stroke-linecap="round" stroke-linejoin="round" stroke-opacity="0.5"  filter="url(#pointlighting)"  onclick="this.style.opacity = 0.5" class="square" ></rect>
<circle id="circ-320741-10"  r="146" cx="1411" cy="644"  fill="url(#grad-320741-10)"  filter="url(#pointlighting)"  onclick="this.style.opacity = 0.5"></circle>
<path   id="cloud-320741-11-a" class="cloud arc"   onclick="this.style.opacity = 0.5"  fill="url(#grad-320741-11)"  filter="url(#dance)"  d="
  M 440 660 
  A 45,45 0,0,1 1180,630
  A 45,45 0,0,1 1050,970
  A 45,45 0,0,1 570,995
  A 45,45 0,0,1 440,660
  Z" >
</path>
<path d=" M 1756,164 L 1764,156 M 1764,164 L 1756,156" stroke="#FFF3" class="grid" />
<path d=" M 1756,164 L 1764,156 M 1764,164 L 1756,156" stroke="#FFF3" class="grid" />
<text fill="#FF06" x="1756" y="174">1</text><path d=" M 1596,164 L 1604,156 M 1604,164 L 1596,156" stroke="#FFF3" class="grid" />
<path d=" M 1596,164 L 1604,156 M 1604,164 L 1596,156" stroke="#FFF3" class="grid" />
<text fill="#FF06" x="1596" y="174">2</text><path d=" M 1436,164 L 1444,156 M 1444,164 L 1436,156" stroke="#FFF3" class="grid" />
<path d=" M 1436,164 L 1444,156 M 1444,164 L 1436,156" stroke="#FFF3" class="grid" />
<text fill="#FF06" x="1436" y="174">3</text><path d=" M 1276,164 L 1284,156 M 1284,164 L 1276,156" stroke="#FFF3" class="grid" />
<path d=" M 1276,164 L 1284,156 M 1284,164 L 1276,156" stroke="#FFF3" class="grid" />
<text fill="#FF06" x="1276" y="174">4</text><path d=" M 1116,164 L 1124,156 M 1124,164 L 1116,156" stroke="#FFF3" class="grid" />
<path d=" M 1116,164 L 1124,156 M 1124,164 L 1116,156" stroke="#FFF3" class="grid" />
<text fill="#FF06" x="1116" y="174">5</text><path d=" M 956,164 L 964,156 M 964,164 L 956,156" stroke="#FFF3" class="grid" />
<path d=" M 956,164 L 964,156 M 964,164 L 956,156" stroke="#FFF3" class="grid" />
<text fill="#FF06" x="956" y="174">6</text><path d=" M 796,164 L 804,156 M 804,164 L 796,156" stroke="#FFF3" class="grid" />
<path d=" M 796,164 L 804,156 M 804,164 L 796,156" stroke="#FFF3" class="grid" />
<text fill="#FF06" x="796" y="174">7</text><path d=" M 636,164 L 644,156 M 644,164 L 636,156" stroke="#FFF3" class="grid" />
<path d=" M 636,164 L 644,156 M 644,164 L 636,156" stroke="#FFF3" class="grid" />
<text fill="#FF06" x="636" y="174">8</text><path d=" M 476,164 L 484,156 M 484,164 L 476,156" stroke="#FFF3" class="grid" />
<path d=" M 476,164 L 484,156 M 484,164 L 476,156" stroke="#FFF3" class="grid" />
<text fill="#FF06" x="476" y="174">9</text><path d=" M 316,164 L 324,156 M 324,164 L 316,156" stroke="#FFF3" class="grid" />
<path d=" M 316,164 L 324,156 M 324,164 L 316,156" stroke="#FFF3" class="grid" />
<text fill="#FF06" x="316" y="174">10</text><path d=" M 156,164 L 164,156 M 164,164 L 156,156" stroke="#FFF3" class="grid" />
<path d=" M 156,164 L 164,156 M 164,164 L 156,156" stroke="#FFF3" class="grid" />
<text fill="#FF06" x="156" y="174">11</text><path d=" M 1756,324 L 1764,316 M 1764,324 L 1756,316" stroke="#FFF3" class="grid" />
<path d=" M 1756,324 L 1764,316 M 1764,324 L 1756,316" stroke="#FFF3" class="grid" />
<text fill="#FF06" x="1756" y="334">12</text><path d=" M 1596,324 L 1604,316 M 1604,324 L 1596,316" stroke="#FFF3" class="grid" />
<path d=" M 1596,324 L 1604,316 M 1604,324 L 1596,316" stroke="#FFF3" class="grid" />
<text fill="#FF06" x="1596" y="334">13</text><path d=" M 1436,324 L 1444,316 M 1444,324 L 1436,316" stroke="#FFF3" class="grid" />
<path d=" M 1436,324 L 1444,316 M 1444,324 L 1436,316" stroke="#FFF3" class="grid" />
<text fill="#FF06" x="1436" y="334">14</text><path d=" M 1276,324 L 1284,316 M 1284,324 L 1276,316" stroke="#FFF3" class="grid" />
<path d=" M 1276,324 L 1284,316 M 1284,324 L 1276,316" stroke="#FFF3" class="grid" />
<text fill="#FF06" x="1276" y="334">15</text><path d=" M 1116,324 L 1124,316 M 1124,324 L 1116,316" stroke="#FFF3" class="grid" />
<path d=" M 1116,324 L 1124,316 M 1124,324 L 1116,316" stroke="#FFF3" class="grid" />
<text fill="#FF06" x="1116" y="334">16</text><path d=" M 956,324 L 964,316 M 964,324 L 956,316" stroke="#FFF3" class="grid" />
<path d=" M 956,324 L 964,316 M 964,324 L 956,316" stroke="#FFF3" class="grid" />
<text fill="#FF06" x="956" y="334">17</text><path d=" M 796,324 L 804,316 M 804,324 L 796,316" stroke="#FFF3" class="grid" />
<path d=" M 796,324 L 804,316 M 804,324 L 796,316" stroke="#FFF3" class="grid" />
<text fill="#FF06" x="796" y="334">18</text><path d=" M 636,324 L 644,316 M 644,324 L 636,316" stroke="#FFF3" class="grid" />
<path d=" M 636,324 L 644,316 M 644,324 L 636,316" stroke="#FFF3" class="grid" />
<text fill="#FF06" x="636" y="334">19</text><path d=" M 476,324 L 484,316 M 484,324 L 476,316" stroke="#FFF3" class="grid" />
<path d=" M 476,324 L 484,316 M 484,324 L 476,316" stroke="#FFF3" class="grid" />
<text fill="#FF06" x="476" y="334">20</text><path d=" M 316,324 L 324,316 M 324,324 L 316,316" stroke="#FFF3" class="grid" />
<path d=" M 316,324 L 324,316 M 324,324 L 316,316" stroke="#FFF3" class="grid" />
<text fill="#FF06" x="316" y="334">21</text><path d=" M 156,324 L 164,316 M 164,324 L 156,316" stroke="#FFF3" class="grid" />
<path d=" M 156,324 L 164,316 M 164,324 L 156,316" stroke="#FFF3" class="grid" />
<text fill="#FF06" x="156" y="334">22</text><path d=" M 1756,484 L 1764,476 M 1764,484 L 1756,476" stroke="#FFF3" class="grid" />
<path d=" M 1756,484 L 1764,476 M 1764,484 L 1756,476" stroke="#FFF3" class="grid" />
<text fill="#FF06" x="1756" y="494">23</text><path d=" M 1596,484 L 1604,476 M 1604,484 L 1596,476" stroke="#FFF3" class="grid" />
<path d=" M 1596,484 L 1604,476 M 1604,484 L 1596,476" stroke="#FFF3" class="grid" />
<text fill="#FF06" x="1596" y="494">24</text><path d=" M 1436,484 L 1444,476 M 1444,484 L 1436,476" stroke="#FFF3" class="grid" />
<path d=" M 1436,484 L 1444,476 M 1444,484 L 1436,476" stroke="#FFF3" class="grid" />
<text fill="#FF06" x="1436" y="494">25</text><path d=" M 1276,484 L 1284,476 M 1284,484 L 1276,476" stroke="#FFF3" class="grid" />
<path d=" M 1276,484 L 1284,476 M 1284,484 L 1276,476" stroke="#FFF3" class="grid" />
<text fill="#FF06" x="1276" y="494">26</text><path d=" M 1116,484 L 1124,476 M 1124,484 L 1116,476" stroke="#FFF3" class="grid" />
<path d=" M 1116,484 L 1124,476 M 1124,484 L 1116,476" stroke="#FFF3" class="grid" />
<text fill="#FF06" x="1116" y="494">27</text><path d=" M 956,484 L 964,476 M 964,484 L 956,476" stroke="#FFF3" class="grid" />
<path d=" M 956,484 L 964,476 M 964,484 L 956,476" stroke="#FFF3" class="grid" />
<text fill="#FF06" x="956" y="494">28</text><path d=" M 796,484 L 804,476 M 804,484 L 796,476" stroke="#FFF3" class="grid" />
<path d=" M 796,484 L 804,476 M 804,484 L 796,476" stroke="#FFF3" class="grid" />
<text fill="#FF06" x="796" y="494">29</text><path d=" M 636,484 L 644,476 M 644,484 L 636,476" stroke="#FFF3" class="grid" />
<path d=" M 636,484 L 644,476 M 644,484 L 636,476" stroke="#FFF3" class="grid" />
<text fill="#FF06" x="636" y="494">30</text><path d=" M 476,484 L 484,476 M 484,484 L 476,476" stroke="#FFF3" class="grid" />
<path d=" M 476,484 L 484,476 M 484,484 L 476,476" stroke="#FFF3" class="grid" />
<text fill="#FF06" x="476" y="494">31</text><path d=" M 316,484 L 324,476 M 324,484 L 316,476" stroke="#FFF3" class="grid" />
<path d=" M 316,484 L 324,476 M 324,484 L 316,476" stroke="#FFF3" class="grid" />
<text fill="#FF06" x="316" y="494">32</text><path d=" M 156,484 L 164,476 M 164,484 L 156,476" stroke="#FFF3" class="grid" />
<path d=" M 156,484 L 164,476 M 164,484 L 156,476" stroke="#FFF3" class="grid" />
<text fill="#FF06" x="156" y="494">33</text><path d=" M 1756,644 L 1764,636 M 1764,644 L 1756,636" stroke="#FFF3" class="grid" />
<path d=" M 1756,644 L 1764,636 M 1764,644 L 1756,636" stroke="#FFF3" class="grid" />
<text fill="#FF06" x="1756" y="654">34</text><path d=" M 1596,644 L 1604,636 M 1604,644 L 1596,636" stroke="#FFF3" class="grid" />
<path d=" M 1596,644 L 1604,636 M 1604,644 L 1596,636" stroke="#FFF3" class="grid" />
<text fill="#FF06" x="1596" y="654">35</text><path d=" M 1436,644 L 1444,636 M 1444,644 L 1436,636" stroke="#FFF3" class="grid" />
<path d=" M 1436,644 L 1444,636 M 1444,644 L 1436,636" stroke="#FFF3" class="grid" />
<text fill="#FF06" x="1436" y="654">36</text><path d=" M 1276,644 L 1284,636 M 1284,644 L 1276,636" stroke="#FFF3" class="grid" />
<path d=" M 1276,644 L 1284,636 M 1284,644 L 1276,636" stroke="#FFF3" class="grid" />
<text fill="#FF06" x="1276" y="654">37</text><path d=" M 1116,644 L 1124,636 M 1124,644 L 1116,636" stroke="#FFF3" class="grid" />
<path d=" M 1116,644 L 1124,636 M 1124,644 L 1116,636" stroke="#FFF3" class="grid" />
<text fill="#FF06" x="1116" y="654">38</text><path d=" M 956,644 L 964,636 M 964,644 L 956,636" stroke="#FFF3" class="grid" />
<path d=" M 956,644 L 964,636 M 964,644 L 956,636" stroke="#FFF3" class="grid" />
<text fill="#FF06" x="956" y="654">39</text><path d=" M 796,644 L 804,636 M 804,644 L 796,636" stroke="#FFF3" class="grid" />
<path d=" M 796,644 L 804,636 M 804,644 L 796,636" stroke="#FFF3" class="grid" />
<text fill="#FF06" x="796" y="654">40</text><path d=" M 636,644 L 644,636 M 644,644 L 636,636" stroke="#FFF3" class="grid" />
<path d=" M 636,644 L 644,636 M 644,644 L 636,636" stroke="#FFF3" class="grid" />
<text fill="#FF06" x="636" y="654">41</text><path d=" M 476,644 L 484,636 M 484,644 L 476,636" stroke="#FFF3" class="grid" />
<path d=" M 476,644 L 484,636 M 484,644 L 476,636" stroke="#FFF3" class="grid" />
<text fill="#FF06" x="476" y="654">42</text><path d=" M 316,644 L 324,636 M 324,644 L 316,636" stroke="#FFF3" class="grid" />
<path d=" M 316,644 L 324,636 M 324,644 L 316,636" stroke="#FFF3" class="grid" />
<text fill="#FF06" x="316" y="654">43</text><path d=" M 156,644 L 164,636 M 164,644 L 156,636" stroke="#FFF3" class="grid" />
<path d=" M 156,644 L 164,636 M 164,644 L 156,636" stroke="#FFF3" class="grid" />
<text fill="#FF06" x="156" y="654">44</text><path d=" M 1756,804 L 1764,796 M 1764,804 L 1756,796" stroke="#FFF3" class="grid" />
<path d=" M 1756,804 L 1764,796 M 1764,804 L 1756,796" stroke="#FFF3" class="grid" />
<text fill="#FF06" x="1756" y="814">45</text><path d=" M 1596,804 L 1604,796 M 1604,804 L 1596,796" stroke="#FFF3" class="grid" />
<path d=" M 1596,804 L 1604,796 M 1604,804 L 1596,796" stroke="#FFF3" class="grid" />
<text fill="#FF06" x="1596" y="814">46</text><path d=" M 1436,804 L 1444,796 M 1444,804 L 1436,796" stroke="#FFF3" class="grid" />
<path d=" M 1436,804 L 1444,796 M 1444,804 L 1436,796" stroke="#FFF3" class="grid" />
<text fill="#FF06" x="1436" y="814">47</text><path d=" M 1276,804 L 1284,796 M 1284,804 L 1276,796" stroke="#FFF3" class="grid" />
<path d=" M 1276,804 L 1284,796 M 1284,804 L 1276,796" stroke="#FFF3" class="grid" />
<text fill="#FF06" x="1276" y="814">48</text><path d=" M 1116,804 L 1124,796 M 1124,804 L 1116,796" stroke="#FFF3" class="grid" />
<path d=" M 1116,804 L 1124,796 M 1124,804 L 1116,796" stroke="#FFF3" class="grid" />
<text fill="#FF06" x="1116" y="814">49</text><path d=" M 956,804 L 964,796 M 964,804 L 956,796" stroke="#FFF3" class="grid" />
<path d=" M 956,804 L 964,796 M 964,804 L 956,796" stroke="#FFF3" class="grid" />
<text fill="#FF06" x="956" y="814">50</text><path d=" M 796,804 L 804,796 M 804,804 L 796,796" stroke="#FFF3" class="grid" />
<path d=" M 796,804 L 804,796 M 804,804 L 796,796" stroke="#FFF3" class="grid" />
<text fill="#FF06" x="796" y="814">51</text><path d=" M 636,804 L 644,796 M 644,804 L 636,796" stroke="#FFF3" class="grid" />
<path d=" M 636,804 L 644,796 M 644,804 L 636,796" stroke="#FFF3" class="grid" />
<text fill="#FF06" x="636" y="814">52</text><path d=" M 476,804 L 484,796 M 484,804 L 476,796" stroke="#FFF3" class="grid" />
<path d=" M 476,804 L 484,796 M 484,804 L 476,796" stroke="#FFF3" class="grid" />
<text fill="#FF06" x="476" y="814">53</text><path d=" M 316,804 L 324,796 M 324,804 L 316,796" stroke="#FFF3" class="grid" />
<path d=" M 316,804 L 324,796 M 324,804 L 316,796" stroke="#FFF3" class="grid" />
<text fill="#FF06" x="316" y="814">54</text><path d=" M 156,804 L 164,796 M 164,804 L 156,796" stroke="#FFF3" class="grid" />
<path d=" M 156,804 L 164,796 M 164,804 L 156,796" stroke="#FFF3" class="grid" />
<text fill="#FF06" x="156" y="814">55</text></svg>
