<svg viewBox="0 0 1920 957" id="svg-b65708" fill="none" preserveAspectRatio="xMinYMid slice" xmlns="http://www.w3.org/2000/svg" xmlns:xlink="http://www.w3.org/1999/xlink" >
<style>
* { transform-box: fill-box; } text { font-size:0.65em; }
#svg-b65708 {
  --c0:  #00000000; 
  --c1:  #62507002;  --c2:  #8219642b;  --c3:  #e4390644;  --c4:  #c7374b52;  --c5:  #c31d096e;
  --c6:  #6b053064;  --c7:  #79116c3e;  --c8:  #78369128;  --c9:  #bd23407b;  --c10: #a375380d;
  --c11: #da341a17;  --c12: #e56e3965;  --c13: #d77d805a;  --c14: #cd68a978;  --c15: #a0250807;
  --c16: #78582623;  --c17: #ef19f90d;  --c18: #fb63542b;  --c19: #b936a533;  --c20: #fa21c150;
  --c21: #683ae27d;  --c22: #a704bf3f;  --c23: #a8407b7e;  --c24: #6913f958;  --c25: #c758921b;
  --c26: #a43e0875;  --c27: #9055e632;  --c28: #6b6f7e42;  --c29: #ca063632;  --c30: #df4c2b04;
  --c31: #eb2ec839;  --c32: #be2a6a3b;  --c33: #9a567d5a;  --c34: #78045577;  --c35: #77095278;
  --c36: #9e477951;  --c37: #cd32d877;  --c38: #9a2e691c;  --c39: #8a7d5221;  --c40: #e96cbe7a;
  --c41: #61666545;  --c42: #d0278b42;  --c43: #dd021264;  --c44: #98349278;  --c45: #e83ddd00;
  --c46: #d144db48;  --c47: #be586b27;  --c48: #f962301d;  --c49: #6f699040;  --c50: #7e102346;
  --c51: #f377351f;  --c52: #9c271461;  --c53: #e7456775;  --c54: #76259207;  --c55: #b975c114;
  --c56: #9e2b725a;  --c57: #f950266b;  --c58: #8b67104c;  --c59: #e41aae13;  --c60: #7d67ec0e;
  --c61: #c421132e;  --c62: #cc69ef40;  --c63: #b26b2d64;  --c64: #d961ae7d;  --c65: #9c3e362b;
  --c66: #e1113d51;  --c67: #9550b525;  --c68: #c84dc26c;  --c69: #ec0f4f09;  --c70: #c75d2831;
  --c71: #fe6ec87b;  --c72: #6515d916;  --c73: #6553fe5c;  --c74: #aa4cac22;  --c75: #842bc37e;
  --c76: #b34ac31c;  --c77: #93484f13;  --c78: #c436bd2f;  --c79: #e1720372;  --c80: #967f8242;
  --c81: #d60cd26a;  --c82: #f339a83e;  --c83: #f659b404;  --c84: #ec2d5b18;  --c85: #a1774518;
  --c86: #81481538;  --c87: #6177c622;  --c88: #b1626904;  --c89: #83027d0d;  --c90: #81571b51;
  --c91: #e47d6a0d;  --c92: #e1186b49;  --c93: #91455a0f;  --c94: #d21b9b55;  --c95: #c36bda5c;
  --c96: #ac49af0d;  --c97: #621bf225;  --c98: #e332497e;  --c99: #8c3d3326;  --c100: #c4366740;
  --c-count: 100;
}
</style>
<defs>
  <radialGradient id="corner-tlc" gradientUnits="userSpaceOnUse" cx="0" cy="0" r="957">
    <stop offset="0.00" stop-opacity="0.50" stop-color="#b86f6ba6"/>
    <stop offset="0.25" stop-opacity="0.33" stop-color="#b86f6ba6"/>
    <stop offset="0.75" stop-opacity="0.15" stop-color="#8297cc2a"/>
    <stop offset="1.00" stop-opacity="0.0"  stop-color="#4e655229"/>
  </radialGradient>
  <radialGradient id="corner-trc" gradientUnits="userSpaceOnUse" cx="1920" cy="0" r="957">
    <stop offset="0.00" stop-opacity="0.50" stop-color="#c86d86be"/>
    <stop offset="0.25" stop-opacity="0.33" stop-color="#c86d86be"/>
    <stop offset="0.75" stop-opacity="0.15" stop-color="#a1474c2d"/>
    <stop offset="1.00" stop-opacity="0.0"  stop-color="#6643540f"/>
  </radialGradient>
  <radialGradient id="corner-blc" gradientUnits="userSpaceOnUse" cx="0" cy="957" r="957">
    <stop offset="0.00" stop-opacity="0.50" stop-color="#af5d6fa1"/>
    <stop offset="0.25" stop-opacity="0.33" stop-color="#af5d6fa1"/>
    <stop offset="0.75" stop-opacity="0.15" stop-color="#a5a14553"/>
    <stop offset="1.00" stop-opacity="0.0"  stop-color="#5e32203d"/>
  </radialGradient>
  <radialGradient id="corner-brc" gradientUnits="userSpaceOnUse" cx="1920" cy="957" r="957">
    <stop offset="0.00" stop-opacity="0.50" stop-color="#8273cdbb"/>
    <stop offset="0.25" stop-opacity="0.33" stop-color="#8273cdbb"/>
    <stop offset="0.75" stop-opacity="0.15" stop-color="#96527647"/>
    <stop offset="1.00" stop-opacity="0.0"  stop-color="#214e6c24"/>
  </radialGradient>
  <linearGradient id="grad-b65708-1" gradientUnits="userSpaceOnUse" x1="920" y1="150" x2="1920" y2="957">
    <stop offset="0.00" stop-color="var(--c18)"/>
    <stop offset="0.25" stop-color="var(--c34)"/>
    <stop offset="0.50" stop-color="var(--c27)"/>
    <stop offset="0.75" stop-color="var(--c9)"/>
    <stop offset="1.00" stop-color="var(--c97)"/>
  </linearGradient>
  <radialGradient id="grad-b65708-2" gradientUnits="userSpaceOnUse" cx="310" cy="220" r="1670">
    <stop offset="0.00" stop-color="var(--c61)"/>
    <stop offset="0.25" stop-color="var(--c7)"/>
    <stop offset="0.50" stop-color="var(--c77)"/>
    <stop offset="0.75" stop-color="var(--c4)"/>
    <stop offset="1.00" stop-color="var(--c39)"/>
  </radialGradient>
  <linearGradient id="grad-b65708-3" gradientUnits="userSpaceOnUse" x1="370" y1="140" x2="1920" y2="957">
    <stop offset="0.00" stop-color="var(--c47)"/>
    <stop offset="0.25" stop-color="var(--c8)"/>
    <stop offset="0.50" stop-color="var(--c95)"/>
    <stop offset="0.75" stop-color="var(--c15)"/>
    <stop offset="1.00" stop-color="var(--c90)"/>
  </linearGradient>
  <radialGradient id="grad-b65708-4" gradientUnits="userSpaceOnUse" cx="1570" cy="120" r="1320">
    <stop offset="0.00" stop-color="var(--c79)"/>
    <stop offset="0.25" stop-color="var(--c23)"/>
    <stop offset="0.50" stop-color="var(--c85)"/>
    <stop offset="0.75" stop-color="var(--c18)"/>
    <stop offset="1.00" stop-color="var(--c2)"/>
  </radialGradient>
  <linearGradient id="grad-b65708-5" gradientUnits="userSpaceOnUse" x1="190" y1="100" x2="1920" y2="957">
    <stop offset="0.00" stop-color="var(--c25)"/>
    <stop offset="0.25" stop-color="var(--c54)"/>
    <stop offset="0.50" stop-color="var(--c36)"/>
    <stop offset="0.75" stop-color="var(--c14)"/>
    <stop offset="1.00" stop-color="var(--c59)"/>
  </linearGradient>
</defs>
<rect x="0" y="0" id="box-b65708"  width="1920" height="957"   fill="#333F" ></rect>
  <path id="b65708-1" class="corner tlc"  fill="url(#corner-tlc)"  d="M 0,0
  L 0,0 1920,0
  Q 1267,803 0,957
  L 0,957 0,0
  Z">
  </path>

  <path id="b65708-2" class="corner trc"  fill="url(#corner-trc)"  d="M 1920,0
  L 1920,0 0,0
  Q 653,803 1920,957
  L 1920,957 1920,0
  Z">
  </path>

  <path id="b65708-3" class="corner blc"  fill="url(#corner-blc)"  d="M 0,957
  L 0,957 0,0
  Q 1267,154 1920,957
  L 1920,957 0,957
  Z">
  </path>

  <path id="b65708-4" class="corner brc"  fill="url(#corner-brc)"  d="M 1920,957
  L 1920,957 1920,0
  Q 653,154 0,957
  L 0,957 1920,957
  Z">
  </path>

<g id="b65708-5" class="nautilus p361"  onclick="this.style.fill = randomColor()" >
  <path  fill="#e601c34b" d="
    M 1131,-3
    Q 1085.25,-37.75 1030,-22
    L 1030,-22 544,255
    Q 548,201.75 593,173
    L 593,173 1131,-3
    Z">
  </path>

  <path  fill="#c54f7b1c" d="
    M 1030,-22
    Q 978.25,-46 928,-19
    L 928,-19 512,345
    Q 505.5,292 544,255
    L 544,255 1030,-22
    Z">
  </path>

  <path  fill="#7e547b5a" d="
    M 928,-19
    Q 873.25,-33.25 829,2
    L 829,2 499,438
    Q 482.25,388.25 512,345
    L 512,345 928,-19
    Z">
  </path>

  <path  fill="#bd085b7f" d="
    M 829,2
    Q 773.75,0 739,43
    L 739,43 505,532
    Q 478.5,486.5 499,438
    L 499,438 829,2
    Z">
  </path>

  <path  fill="#ff5a5f22" d="
    M 739,43
    Q 684.5,52 659,101
    L 659,101 529,621
    Q 494.75,582.5 505,532
    L 505,532 739,43
    Z">
  </path>

  <path  fill="#771f6e78" d="
    M 659,101
    Q 608,120.5 593,173
    L 593,173 570,703
    Q 529,672.25 529,621
    L 529,621 659,101
    Z">
  </path>

  <path  fill="#672d993d" d="
    M 593,173
    Q 548,201.75 544,255
    L 544,255 626,775
    Q 580,753 570,703
    L 570,703 593,173
    Z">
  </path>

  <path  fill="#8d687128" d="
    M 544,255
    Q 505.5,292 512,345
    L 512,345 695,833
    Q 646,821.25 626,775
    L 626,775 544,255
    Z">
  </path>

  <path  fill="#676ef66f" d="
    M 512,345
    Q 482.25,388.25 499,438
    L 499,438 773,876
    Q 723.25,874 695,833
    L 695,833 512,345
    Z">
  </path>

  <path  fill="#8d727643" d="
    M 499,438
    Q 478.5,486.5 505,532
    L 505,532 858,903
    Q 808.75,910.75 773,876
    L 773,876 499,438
    Z">
  </path>

  <path  fill="#ec78ce2e" d="
    M 505,532
    Q 494.75,582.5 529,621
    L 529,621 946,912
    Q 899.75,929.5 858,903
    L 858,903 505,532
    Z">
  </path>

  <path  fill="#a7343011" d="
    M 529,621
    Q 529,672.25 570,703
    L 570,703 1034,903
    Q 992.25,929.5 946,912
    L 946,912 529,621
    Z">
  </path>

  <path  fill="#e3512b00" d="
    M 570,703
    Q 580,753 626,775
    L 626,775 1117,877
    Q 1082,910.75 1034,903
    L 1034,903 570,703
    Z">
  </path>

  <path  fill="#816f0105" d="
    M 626,775
    Q 646,821.25 695,833
    L 695,833 1194,835
    Q 1166,875.25 1117,877
    L 1117,877 626,775
    Z">
  </path>

  <path  fill="#ba316862" d="
    M 695,833
    Q 723.25,874 773,876
    L 773,876 1259,779
    Q 1240.5,823.25 1194,835
    L 1194,835 695,833
    Z">
  </path>

  <path  fill="#81534a27" d="
    M 773,876
    Q 808.75,910.75 858,903
    L 858,903 1313,711
    Q 1303,758.5 1259,779
    L 1259,779 773,876
    Z">
  </path>

  <path  fill="#753d8b12" d="
    M 858,903
    Q 899.75,929.5 946,912
    L 946,912 1351,635
    Q 1351,682.5 1313,711
    L 1313,711 858,903
    Z">
  </path>

  <path  fill="#8064962b" d="
    M 946,912
    Q 992.25,929.5 1034,903
    L 1034,903 1373,552
    Q 1382.75,599 1351,635
    L 1351,635 946,912
    Z">
  </path>

  <path  fill="#823fdf76" d="
    M 1034,903
    Q 1082,910.75 1117,877
    L 1117,877 1378,467
    Q 1396.75,510.75 1373,552
    L 1373,552 1034,903
    Z">
  </path>

  <path  fill="#f74a320e" d="
    M 1117,877
    Q 1166,875.25 1194,835
    L 1194,835 1367,383
    Q 1393.5,422.25 1378,467
    L 1378,467 1117,877
    Z">
  </path>

  <path  fill="#97116109" d="
    M 1194,835
    Q 1240.5,823.25 1259,779
    L 1259,779 1338,303
    Q 1372.5,335.75 1367,383
    L 1367,383 1194,835
    Z">
  </path>

  <path  fill="#6f3edb56" d="
    M 1259,779
    Q 1303,758.5 1313,711
    L 1313,711 1295,231
    Q 1334.5,256.25 1338,303
    L 1338,303 1259,779
    Z">
  </path>

  <path  fill="#bd733600" d="
    M 1313,711
    Q 1351,682.5 1351,635
    L 1351,635 1237,169
    Q 1281.5,185.5 1295,231
    L 1295,231 1313,711
    Z">
  </path>

  <path  fill="#c416170d" d="
    M 1351,635
    Q 1382.75,599 1373,552
    L 1373,552 1169,120
    Q 1215.25,127.5 1237,169
    L 1237,169 1351,635
    Z">
  </path>

  <path  fill="#f307f64c" d="
    M 1373,552
    Q 1396.75,510.75 1378,467
    L 1378,467 1092,86
    Q 1139,83.75 1169,120
    L 1169,120 1373,552
    Z">
  </path>

  <path  fill="#72144c19" d="
    M 1378,467
    Q 1393.5,422.25 1367,383
    L 1367,383 1011,67
    Q 1056.25,56.25 1092,86
    L 1092,86 1378,467
    Z">
  </path>

  <path  fill="#a348f201" d="
    M 1367,383
    Q 1372.5,335.75 1338,303
    L 1338,303 927,66
    Q 969.25,45.5 1011,67
    L 1011,67 1367,383
    Z">
  </path>

  <path  fill="#b21abb0f" d="
    M 1338,303
    Q 1334.5,256.25 1295,231
    L 1295,231 845,81
    Q 882.25,53 927,66
    L 927,66 1338,303
    Z">
  </path>

  <path  fill="#6e602e27" d="
    M 1295,231
    Q 1281.5,185.5 1237,169
    L 1237,169 767,113
    Q 798,77.5 845,81
    L 845,81 1295,231
    Z">
  </path>

  <path  fill="#9b7ad004" d="
    M 1237,169
    Q 1215.25,127.5 1169,120
    L 1169,120 700,162
    Q 721.25,120.75 767,113
    L 767,113 1237,169
    Z">
  </path>

  <path  fill="#f95a1977" d="
    M 1169,120
    Q 1139,83.75 1092,86
    L 1092,86 647,225
    Q 657.75,180.25 700,162
    L 700,162 1169,120
    Z">
  </path>

  <path  fill="#a943322a" d="
    M 1092,86
    Q 1056.25,56.25 1011,67
    L 1011,67 608,296
    Q 609.75,250.75 647,225
    L 647,225 1092,86
    Z">
  </path>

  <path  fill="#fc205768" d="
    M 1011,67
    Q 969.25,45.5 927,66
    L 927,66 584,373
    Q 576.75,328.5 608,296
    L 608,296 1011,67
    Z">
  </path>

  <path  fill="#ec5adb61" d="
    M 927,66
    Q 882.25,53 845,81
    L 845,81 576,451
    Q 560.5,410 584,373
    L 584,373 927,66
    Z">
  </path>

  <path  fill="#fd4e593e" d="
    M 845,81
    Q 798,77.5 767,113
    L 767,113 584,528
    Q 560.75,491.5 576,451
    L 576,451 845,81
    Z">
  </path>

  <path  fill="#6f27e111" d="
    M 767,113
    Q 721.25,120.75 700,162
    L 700,162 607,601
    Q 577.25,570.25 584,528
    L 584,528 767,113
    Z">
  </path>

  <path  fill="#c96e482b" d="
    M 700,162
    Q 657.75,180.25 647,225
    L 647,225 643,667
    Q 608.5,643 607,601
    L 607,601 700,162
    Z">
  </path>

  <path  fill="#7f483f4a" d="
    M 647,225
    Q 609.75,250.75 608,296
    L 608,296 692,724
    Q 653.25,707.75 643,667
    L 643,667 647,225
    Z">
  </path>

  <path  fill="#f862ec18" d="
    M 608,296
    Q 576.75,328.5 584,373
    L 584,373 749,769
    Q 709.25,760.75 692,724
    L 692,724 608,296
    Z">
  </path>

  <path  fill="#da0d970b" d="
    M 584,373
    Q 560.5,410 576,451
    L 576,451 814,802
    Q 773.25,801.75 749,769
    L 749,769 584,373
    Z">
  </path>

  <path  fill="#8410f606" d="
    M 576,451
    Q 560.75,491.5 584,528
    L 584,528 884,820
    Q 844.5,828.5 814,802
    L 814,802 576,451
    Z">
  </path>

  <path  fill="#f47f232c" d="
    M 584,528
    Q 577.25,570.25 607,601
    L 607,601 954,825
    Q 917.75,840 884,820
    L 884,820 584,528
    Z">
  </path>

  <path  fill="#dd22e03f" d="
    M 607,601
    Q 608.5,643 643,667
    L 643,667 1024,815
    Q 991.5,837.5 954,825
    L 954,825 607,601
    Z">
  </path>

  <path  fill="#84690a6e" d="
    M 643,667
    Q 653.25,707.75 692,724
    L 692,724 1089,792
    Q 1062.25,819.75 1024,815
    L 1024,815 643,667
    Z">
  </path>

  <path  fill="#7b712c7f" d="
    M 692,724
    Q 709.25,760.75 749,769
    L 749,769 1148,757
    Q 1127.25,789.25 1089,792
    L 1089,792 692,724
    Z">
  </path>

  <path  fill="#741e3601" d="
    M 749,769
    Q 773.25,801.75 814,802
    L 814,802 1199,711
    Q 1185,746.75 1148,757
    L 1148,757 749,769
    Z">
  </path>

  <path  fill="#fa4ffa52" d="
    M 814,802
    Q 844.5,828.5 884,820
    L 884,820 1239,656
    Q 1232.75,693.5 1199,711
    L 1199,711 814,802
    Z">
  </path>

  <path  fill="#f910bd6e" d="
    M 884,820
    Q 917.75,840 954,825
    L 954,825 1267,595
    Q 1268.25,632.5 1239,656
    L 1239,656 884,820
    Z">
  </path>

  <path  fill="#8248165c" d="
    M 954,825
    Q 991.5,837.5 1024,815
    L 1024,815 1282,531
    Q 1290.5,566.75 1267,595
    L 1267,595 954,825
    Z">
  </path>

  <path  fill="#c259a006" d="
    M 1024,815
    Q 1062.25,819.75 1089,792
    L 1089,792 1284,465
    Q 1299.5,498.5 1282,531
    L 1282,531 1024,815
    Z">
  </path>

  <path  fill="#8512b310" d="
    M 1089,792
    Q 1127.25,789.25 1148,757
    L 1148,757 1272,400
    Q 1294.25,429.5 1284,465
    L 1284,465 1089,792
    Z">
  </path>

  <path  fill="#f556ac4d" d="
    M 1148,757
    Q 1185,746.75 1199,711
    L 1199,711 1249,339
    Q 1275.75,363.75 1272,400
    L 1272,400 1148,757
    Z">
  </path>

  <path  fill="#a304644c" d="
    M 1199,711
    Q 1232.75,693.5 1239,656
    L 1239,656 1213,285
    Q 1244.5,303 1249,339
    L 1249,339 1199,711
    Z">
  </path>

  <path  fill="#db54e405" d="
    M 1239,656
    Q 1268.25,632.5 1267,595
    L 1267,595 1168,239
    Q 1202,250.75 1213,285
    L 1213,285 1239,656
    Z">
  </path>

  <path  fill="#bb133349" d="
    M 1267,595
    Q 1290.5,566.75 1282,531
    L 1282,531 1115,202
    Q 1150.75,207.25 1168,239
    L 1168,239 1267,595
    Z">
  </path>

  <path  fill="#9f36684c" d="
    M 1282,531
    Q 1299.5,498.5 1284,465
    L 1284,465 1056,178
    Q 1091.5,175.25 1115,202
    L 1115,202 1282,531
    Z">
  </path>

  <path  fill="#a8685d43" d="
    M 1284,465
    Q 1294.25,429.5 1272,400
    L 1272,400 994,166
    Q 1028,156.5 1056,178
    L 1056,178 1284,465
    Z">
  </path>

  <path  fill="#f420e42c" d="
    M 1272,400
    Q 1275.75,363.75 1249,339
    L 1249,339 930,166
    Q 962,150 994,166
    L 994,166 1272,400
    Z">
  </path>

  <path  fill="#d553ed75" d="
    M 1249,339
    Q 1244.5,303 1213,285
    L 1213,285 868,179
    Q 895.75,157 930,166
    L 930,166 1249,339
    Z">
  </path>

  <path  fill="#ad3c0d39" d="
    M 1213,285
    Q 1202,250.75 1168,239
    L 1168,239 810,204
    Q 832.75,177 868,179
    L 868,179 1213,285
    Z">
  </path>

  <path  fill="#c3717b69" d="
    M 1168,239
    Q 1150.75,207.25 1115,202
    L 1115,202 758,241
    Q 774.75,209.5 810,204
    L 810,204 1168,239
    Z">
  </path>

  <path  fill="#f54c9d40" d="
    M 1115,202
    Q 1091.5,175.25 1056,178
    L 1056,178 715,286
    Q 725.25,252.75 758,241
    L 758,241 1115,202
    Z">
  </path>

  <path  fill="#7449e276" d="
    M 1056,178
    Q 1028,156.5 994,166
    L 994,166 682,340
    Q 685,304.75 715,286
    L 715,286 1056,178
    Z">
  </path>

  <path  fill="#812e5b13" d="
    M 994,166
    Q 962,150 930,166
    L 930,166 660,399
    Q 656.25,364 682,340
    L 682,340 994,166
    Z">
  </path>

  <path  fill="#72098634" d="
    M 930,166
    Q 895.75,157 868,179
    L 868,179 651,461
    Q 640,427.75 660,399
    L 660,399 930,166
    Z">
  </path>

  <path  fill="#892c4e1d" d="
    M 868,179
    Q 832.75,177 810,204
    L 810,204 657,523
    Q 638.5,493.5 651,461
    L 651,461 868,179
    Z">
  </path>

  <path  fill="#ea55ba24" d="
    M 810,204
    Q 774.75,209.5 758,241
    L 758,241 679,581
    Q 653.5,557.5 657,523
    L 657,523 810,204
    Z">
  </path>

  <path  fill="#ec634e72" d="
    M 758,241
    Q 725.25,252.75 715,286
    L 715,286 711,632
    Q 682.25,614.5 679,581
    L 679,581 758,241
    Z">
  </path>

  <path  fill="#f24bcd6c" d="
    M 715,286
    Q 685,304.75 682,340
    L 682,340 751,675
    Q 720.25,663.5 711,632
    L 711,632 715,286
    Z">
  </path>

  <path  fill="#cc3f2457" d="
    M 682,340
    Q 656.25,364 660,399
    L 660,399 799,708
    Q 766.75,703.5 751,675
    L 751,675 682,340
    Z">
  </path>

  <path  fill="#d700635b" d="
    M 660,399
    Q 640,427.75 651,461
    L 651,461 851,731
    Q 819.25,732.5 799,708
    L 799,708 660,399
    Z">
  </path>

  <path  fill="#d116465d" d="
    M 651,461
    Q 638.5,493.5 657,523
    L 657,523 905,743
    Q 875,750.5 851,731
    L 851,731 651,461
    Z">
  </path>

  <path  fill="#aa47f516" d="
    M 657,523
    Q 653.5,557.5 679,581
    L 679,581 960,743
    Q 932.5,756.75 905,743
    L 905,743 657,523
    Z">
  </path>

  <path  fill="#880f5a74" d="
    M 679,581
    Q 682.25,614.5 711,632
    L 711,632 1012,733
    Q 988.5,751 960,743
    L 960,743 679,581
    Z">
  </path>

  <path  fill="#c768451a" d="
    M 711,632
    Q 720.25,663.5 751,675
    L 751,675 1061,713
    Q 1041.5,735.25 1012,733
    L 1012,733 711,632
    Z">
  </path>

  <path  fill="#ff70215a" d="
    M 751,675
    Q 766.75,703.5 799,708
    L 799,708 1104,684
    Q 1089.75,709.25 1061,713
    L 1061,713 751,675
    Z">
  </path>

  <path  fill="#e44bee35" d="
    M 799,708
    Q 819.25,732.5 851,731
    L 851,731 1140,648
    Q 1131,675 1104,684
    L 1104,684 799,708
    Z">
  </path>

  <path  fill="#907e021e" d="
    M 851,731
    Q 875,750.5 905,743
    L 905,743 1167,606
    Q 1164,633.75 1140,648
    L 1140,648 851,731
    Z">
  </path>

  <path  fill="#a50ffb5a" d="
    M 905,743
    Q 932.5,756.75 960,743
    L 960,743 1186,560
    Q 1188,587.75 1167,606
    L 1167,606 905,743
    Z">
  </path>

  <path  fill="#a05d7b3c" d="
    M 960,743
    Q 988.5,751 1012,733
    L 1012,733 1194,512
    Q 1202,538 1186,560
    L 1186,560 960,743
    Z">
  </path>

  <path  fill="#e4051e13" d="
    M 1012,733
    Q 1041.5,735.25 1061,713
    L 1061,713 1193,465
    Q 1205.25,488.25 1194,512
    L 1194,512 1012,733
    Z">
  </path>

  <path  fill="#9c387b06" d="
    M 1061,713
    Q 1089.75,709.25 1104,684
    L 1104,684 1183,418
    Q 1199.75,439 1193,465
    L 1193,465 1061,713
    Z">
  </path>

  <path  fill="#7b62357e" d="
    M 1104,684
    Q 1131,675 1140,648
    L 1140,648 1164,376
    Q 1184,392.25 1183,418
    L 1183,418 1104,684
    Z">
  </path>

  <path  fill="#ad5b0275" d="
    M 1140,648
    Q 1164,633.75 1167,606
    L 1167,606 1137,338
    Q 1160,350.25 1164,376
    L 1164,376 1140,648
    Z">
  </path>

  <path  fill="#842f0140" d="
    M 1167,606
    Q 1188,587.75 1186,560
    L 1186,560 1104,307
    Q 1128.25,314.25 1137,338
    L 1137,338 1167,606
    Z">
  </path>

  <path  fill="#a7436d78" d="
    M 1186,560
    Q 1202,538 1194,512
    L 1194,512 1066,283
    Q 1091,285.5 1104,307
    L 1104,307 1186,560
    Z">
  </path>

  <path  fill="#6c28be17" d="
    M 1194,512
    Q 1205.25,488.25 1193,465
    L 1193,465 1024,268
    Q 1048.75,265 1066,283
    L 1066,283 1194,512
    Z">
  </path>

  <path  fill="#bf06356a" d="
    M 1193,465
    Q 1199.75,439 1183,418
    L 1183,418 980,261
    Q 1003.75,253.5 1024,268
    L 1024,268 1193,465
    Z">
  </path>

  <path  fill="#c77f9332" d="
    M 1183,418
    Q 1184,392.25 1164,376
    L 1164,376 936,263
    Q 957.5,251 980,261
    L 980,261 1183,418
    Z">
  </path>

  <path  fill="#cb38fc56" d="
    M 1164,376
    Q 1160,350.25 1137,338
    L 1137,338 893,274
    Q 911.75,257.75 936,263
    L 936,263 1164,376
    Z">
  </path>

  <path  fill="#b760c300" d="
    M 1137,338
    Q 1128.25,314.25 1104,307
    L 1104,307 854,292
    Q 869,273.25 893,274
    L 893,274 1137,338
    Z">
  </path>

  <path  fill="#626c0818" d="
    M 1104,307
    Q 1091,285.5 1066,283
    L 1066,283 820,318
    Q 830.5,296.5 854,292
    L 854,292 1104,307
    Z">
  </path>

  <path  fill="#b96a215e" d="
    M 1066,283
    Q 1048.75,265 1024,268
    L 1024,268 791,350
    Q 797.5,326.75 820,318
    L 820,318 1066,283
    Z">
  </path>

  <path  fill="#fe13bd5e" d="
    M 1024,268
    Q 1003.75,253.5 980,261
    L 980,261 770,387
    Q 771.25,363.25 791,350
    L 791,350 1024,268
    Z">
  </path>

  <path  fill="#ae3a935e" d="
    M 980,261
    Q 957.5,251 936,263
    L 936,263 757,427
    Q 753.5,403.75 770,387
    L 770,387 980,261
    Z">
  </path>

  <path  fill="#71147a7b" d="
    M 936,263
    Q 911.75,257.75 893,274
    L 893,274 751,469
    Q 743.5,446.5 757,427
    L 757,427 936,263
    Z">
  </path>

  <path  fill="#d142837a" d="
    M 893,274
    Q 869,273.25 854,292
    L 854,292 755,512
    Q 742.25,491.5 751,469
    L 751,469 893,274
    Z">
  </path>

  <path  fill="#e5659d35" d="
    M 854,292
    Q 830.5,296.5 820,318
    L 820,318 766,552
    Q 750.5,534.75 755,512
    L 755,512 854,292
    Z">
  </path>

  <path  fill="#e42df410" d="
    M 820,318
    Q 797.5,326.75 791,350
    L 791,350 786,589
    Q 766.75,575.5 766,552
    L 766,552 820,318
    Z">
  </path>

  <path  fill="#d364882c" d="
    M 791,350
    Q 771.25,363.25 770,387
    L 770,387 812,622
    Q 790.75,612 786,589
    L 786,589 791,350
    Z">
  </path>

  <path  fill="#e2126d1a" d="
    M 770,387
    Q 753.5,403.75 757,427
    L 757,427 844,648
    Q 821.5,643 812,622
    L 812,622 770,387
    Z">
  </path>

  <path  fill="#754c6c00" d="
    M 757,427
    Q 743.5,446.5 751,469
    L 751,469 882,665
    Q 858.75,666 844,648
    L 844,648 757,427
    Z">
  </path>

  <path  fill="#a6438c10" d="
    M 751,469
    Q 742.25,491.5 755,512
    L 755,512 923,670
    Q 901.25,677.75 882,665
    L 882,665 751,469
    Z">
  </path>

  <path  fill="#c3767f15" d="
    M 755,512
    Q 750.5,534.75 766,552
    L 766,552 963,667
    Q 943.75,678.5 923,670
    L 923,670 755,512
    Z">
  </path>

  <path  fill="#b37f9d15" d="
    M 766,552
    Q 766.75,575.5 786,589
    L 786,589 1000,657
    Q 984,671.25 963,667
    L 963,667 766,552
    Z">
  </path>

  <path  fill="#95369e1c" d="
    M 786,589
    Q 790.75,612 812,622
    L 812,622 1033,640
    Q 1020.75,656.75 1000,657
    L 1000,657 786,589
    Z">
  </path>

  <path  fill="#f66ab000" d="
    M 812,622
    Q 821.5,643 844,648
    L 844,648 1061,618
    Q 1052.5,636 1033,640
    L 1033,640 812,622
    Z">
  </path>

  <path  fill="#cb548774" d="
    M 844,648
    Q 858.75,666 882,665
    L 882,665 1083,591
    Q 1078.75,610 1061,618
    L 1061,618 844,648
    Z">
  </path>

  <path  fill="#d6024417" d="
    M 882,665
    Q 901.25,677.75 923,670
    L 923,670 1099,561
    Q 1098.5,580 1083,591
    L 1083,591 882,665
    Z">
  </path>

  <path  fill="#b549e47c" d="
    M 923,670
    Q 943.75,678.5 963,667
    L 963,667 1109,529
    Q 1112,547.5 1099,561
    L 1099,561 923,670
    Z">
  </path>

  <path  fill="#7066a35e" d="
    M 963,667
    Q 984,671.25 1000,657
    L 1000,657 1111,498
    Q 1117.75,514 1109,529
    L 1109,529 963,667
    Z">
  </path>

  <path  fill="#c5507562" d="
    M 1000,657
    Q 1020.75,656.75 1033,640
    L 1033,640 1108,467
    Q 1117.25,481.75 1111,498
    L 1111,498 1000,657
    Z">
  </path>

  <path  fill="#8730a146" d="
    M 1033,640
    Q 1052.5,636 1061,618
    L 1061,618 1099,438
    Q 1110.75,450.25 1108,467
    L 1108,467 1033,640
    Z">
  </path>

  <path  fill="#cb7c6517" d="
    M 1061,618
    Q 1078.75,610 1083,591
    L 1083,591 1085,413
    Q 1098.25,422 1099,438
    L 1099,438 1061,618
    Z">
  </path>

  <path  fill="#bf7b8139" d="
    M 1083,591
    Q 1098.5,580 1099,561
    L 1099,561 1067,391
    Q 1081.5,397.5 1085,413
    L 1085,413 1083,591
    Z">
  </path>

  <path  fill="#d554db47" d="
    M 1099,561
    Q 1112,547.5 1109,529
    L 1109,529 1045,374
    Q 1060.25,377 1067,391
    L 1067,391 1099,561
    Z">
  </path>

  <path  fill="#67113939" d="
    M 1109,529
    Q 1117.75,514 1111,498
    L 1111,498 1021,361
    Q 1036.25,361.5 1045,374
    L 1045,374 1109,529
    Z">
  </path>

  <path  fill="#71729857" d="
    M 1111,498
    Q 1117.25,481.75 1108,467
    L 1108,467 995,354
    Q 1009.75,351 1021,361
    L 1021,361 1111,498
    Z">
  </path>

  <path  fill="#9038081b" d="
    M 1108,467
    Q 1110.75,450.25 1099,438
    L 1099,438 969,352
    Q 982.5,346.5 995,354
    L 995,354 1108,467
    Z">
  </path>

  <path  fill="#a85acb57" d="
    M 1099,438
    Q 1098.25,422 1085,413
    L 1085,413 944,356
    Q 955.5,347.75 969,352
    L 969,352 1099,438
    Z">
  </path>

  <path  fill="#d300996f" d="
    M 1085,413
    Q 1081.5,397.5 1067,391
    L 1067,391 921,363
    Q 930.75,353.75 944,356
    L 944,356 1085,413
    Z">
  </path>

  <path  fill="#973c3547" d="
    M 1067,391
    Q 1060.25,377 1045,374
    L 1045,374 899,375
    Q 907,363.5 921,363
    L 921,363 1067,391
    Z">
  </path>

  <path  fill="#66029505" d="
    M 1045,374
    Q 1036.25,361.5 1021,361
    L 1021,361 881,391
    Q 886,378.5 899,375
    L 899,375 1045,374
    Z">
  </path>

  <path  fill="#e64e0133" d="
    M 1021,361
    Q 1009.75,351 995,354
    L 995,354 867,410
    Q 869.25,397 881,391
    L 881,391 1021,361
    Z">
  </path>

  <path  fill="#af17855d" d="
    M 995,354
    Q 982.5,346.5 969,352
    L 969,352 857,430
    Q 857,417.5 867,410
    L 867,410 995,354
    Z">
  </path>

  <path  fill="#f7617641" d="
    M 969,352
    Q 955.5,347.75 944,356
    L 944,356 851,453
    Q 848.25,440 857,430
    L 857,430 969,352
    Z">
  </path>

  <path  fill="#c32eb825" d="
    M 944,356
    Q 930.75,353.75 921,363
    L 921,363 850,475
    Q 845,463.75 851,453
    L 851,453 944,356
    Z">
  </path>

  <path  fill="#a224dc3a" d="
    M 921,363
    Q 907,363.5 899,375
    L 899,375 852,497
    Q 845.5,486.5 850,475
    L 850,475 921,363
    Z">
  </path>

  <path  fill="#a340e264" d="
    M 899,375
    Q 886,378.5 881,391
    L 881,391 860,518
    Q 850.75,509.5 852,497
    L 852,497 899,375
    Z">
  </path>

  <path  fill="#8f797c10" d="
    M 881,391
    Q 869.25,397 867,410
    L 867,410 871,537
    Q 860.75,530.25 860,518
    L 860,518 881,391
    Z">
  </path>

  <path  fill="#8c26de54" d="
    M 867,410
    Q 857,417.5 857,430
    L 857,430 885,553
    Q 874,548.5 871,537
    L 871,537 867,410
    Z">
  </path>

  <path  fill="#b73ea114" d="
    M 857,430
    Q 848.25,440 851,453
    L 851,453 902,566
    Q 890.25,563.75 885,553
    L 885,553 857,430
    Z">
  </path>

  <path  fill="#782dd35e" d="
    M 851,453
    Q 845,463.75 850,475
    L 850,475 921,575
    Q 909.25,575.25 902,566
    L 902,566 851,453
    Z">
  </path>

  <path  fill="#f718824a" d="
    M 850,475
    Q 845.5,486.5 852,497
    L 852,497 942,580
    Q 930.25,582.75 921,575
    L 921,575 850,475
    Z">
  </path>

  <path  fill="#ef1bb16b" d="
    M 852,497
    Q 850.75,509.5 860,518
    L 860,518 963,581
    Q 952.25,585.75 942,580
    L 942,580 852,497
    Z">
  </path>

  <path  fill="#781f173d" d="
    M 860,518
    Q 860.75,530.25 871,537
    L 871,537 984,578
    Q 974.25,584.75 963,581
    L 963,581 860,518
    Z">
  </path>

  <path  fill="#a8153c4c" d="
    M 871,537
    Q 874,548.5 885,553
    L 885,553 1003,571
    Q 995.25,579.25 984,578
    L 984,578 871,537
    Z">
  </path>

  <path  fill="#c4263c53" d="
    M 885,553
    Q 890.25,563.75 902,566
    L 902,566 1019,557
    Q 1014.5,568 1003,571
    L 1003,571 885,553
    Z">
  </path>

  <path  fill="#a12b0c4f" d="
    M 902,566
    Q 909.25,575.25 921,575
    L 921,575 1029,539
    Q 1028.5,550.5 1019,557
    L 1019,557 902,566
    Z">
  </path>

  <path  fill="#a250057f" d="
    M 921,575
    Q 930.25,582.75 942,580
    L 942,580 1035,521
    Q 1036.5,531.5 1029,539
    L 1029,539 921,575
    Z">
  </path>

  <path  fill="#fe0ed048" d="
    M 942,580
    Q 952.25,585.75 963,581
    L 963,581 1036,503
    Q 1040,512.25 1035,521
    L 1035,521 942,580
    Z">
  </path>

  <path  fill="#b1431776" d="
    M 963,581
    Q 974.25,584.75 984,578
    L 984,578 1034,486
    Q 1039.25,494 1036,503
    L 1036,503 963,581
    Z">
  </path>

  <path  fill="#e13f6f14" d="
    M 984,578
    Q 995.25,579.25 1003,571
    L 1003,571 1029,471
    Q 1035.25,477.25 1034,486
    L 1034,486 984,578
    Z">
  </path>

  <path  fill="#e01df10f" d="
    M 1003,571
    Q 1014.5,568 1019,557
    L 1019,557 1021,459
    Q 1028,463 1029,471
    L 1029,471 1003,571
    Z">
  </path>

  <path  fill="#fb068162" d="
    M 1019,557
    Q 1028.5,550.5 1029,539
    L 1029,539 1012,449
    Q 1019,451.75 1021,459
    L 1021,459 1019,557
    Z">
  </path>

  <path  fill="#f5165517" d="
    M 1029,539
    Q 1036.5,531.5 1035,521
    L 1035,521 1002,442
    Q 1008.75,443 1012,449
    L 1012,449 1029,539
    Z">
  </path>

  <path  fill="#88040242" d="
    M 1035,521
    Q 1040,512.25 1036,503
    L 1036,503 991,438
    Q 997.5,437.25 1002,442
    L 1002,442 1035,521
    Z">
  </path>

  <path  fill="#80010604" d="
    M 1036,503
    Q 1039.25,494 1034,486
    L 1034,486 980,436
    Q 986,434.25 991,438
    L 991,438 1036,503
    Z">
  </path>

  <path  fill="#e7465639" d="
    M 1034,486
    Q 1035.25,477.25 1029,471
    L 1029,471 971,437
    Q 975.25,434.25 980,436
    L 980,436 1034,486
    Z">
  </path>

  <path  fill="#cc65ce6c" d="
    M 1029,471
    Q 1028,463 1021,459
    L 1021,459 962,439
    Q 966,435.75 971,437
    L 971,437 1029,471
    Z">
  </path>

  <path  fill="#e25d7c25" d="
    M 1021,459
    Q 1019,451.75 1012,449
    L 1012,449 955,443
    Q 957.5,439.25 962,439
    L 962,439 1021,459
    Z">
  </path>

  <path  fill="#d261c10c" d="
    M 1012,449
    Q 1008.75,443 1002,442
    L 1002,442 949,448
    Q 950.75,444 955,443
    L 955,443 1012,449
    Z">
  </path>

  <path  fill="#e84ace66" d="
    M 1002,442
    Q 997.5,437.25 991,438
    L 991,438 945,453
    Q 945.75,449.5 949,448
    L 949,448 1002,442
    Z">
  </path>

  <path  fill="#ca02a65c" d="
    M 991,438
    Q 986,434.25 980,436
    L 980,436 942,459
    Q 942,455.25 945,453
    L 945,453 991,438
    Z">
  </path>

  <path  fill="#637ef95f" d="
    M 980,436
    Q 975.25,434.25 971,437
    L 971,437 941,465
    Q 940,461.75 942,459
    L 942,459 980,436
    Z">
  </path>

  <path  fill="#bd5f143b" d="
    M 971,437
    Q 966,435.75 962,439
    L 962,439 941,469
    Q 940,467 941,465
    L 941,465 971,437
    Z">
  </path>

  <path  fill="#9645d22b" d="
    M 962,439
    Q 957.5,439.25 955,443
    L 955,443 942,474
    Q 940.25,471.75 941,469
    L 941,469 962,439
    Z">
  </path>

  <path  fill="#6508f809" d="
    M 955,443
    Q 950.75,444 949,448
    L 949,448 944,477
    Q 942.25,476 942,474
    L 942,474 955,443
    Z">
  </path>

  <path  fill="#d4664f27" d="
    M 949,448
    Q 945.75,449.5 945,453
    L 945,453 946,480
    Q 944.25,479 944,477
    L 944,477 949,448
    Z">
  </path>

  <path  fill="#cb6bc161" d="
    M 945,453
    Q 942,455.25 942,459
    L 942,459 949,482
    Q 947,481.75 946,480
    L 946,480 945,453
    Z">
  </path>

  <path  fill="#aa5cd731" d="
    M 942,459
    Q 940,461.75 941,465
    L 941,465 951,483
    Q 949.75,483 949,482
    L 949,482 942,459
    Z">
  </path>

  <path  fill="#d152103e" d="
    M 941,465
    Q 940,467 941,469
    L 941,469 954,484
    Q 952.25,484.25 951,483
    L 951,483 941,465
    Z">
  </path>

  <path  fill="#bb61164d" d="
    M 941,469
    Q 940.25,471.75 942,474
    L 942,474 956,483
    Q 955.25,484 954,484
    L 954,484 941,469
    Z">
  </path>

  <path  fill="#bc37594a" d="
    M 942,474
    Q 942.25,476 944,477
    L 944,477 957,483
    Q 956.5,483.25 956,483
    L 956,483 942,474
    Z">
  </path>

  <path  fill="#c33bca19" d="
    M 944,477
    Q 944.25,479 946,480
    L 946,480 959,482
    Q 958.25,483 957,483
    L 957,483 944,477
    Z">
  </path>

  <path  fill="#c16ade08" d="
    M 946,480
    Q 947,481.75 949,482
    L 949,482 960,481
    Q 959.75,481.75 959,482
    L 959,482 946,480
    Z">
  </path>

  <path  fill="#e3501c69" d="
    M 949,482
    Q 949.75,483 951,483
    L 951,483 960,480
    Q 960.25,480.5 960,481
    L 960,481 949,482
    Z">
  </path>

  <path  fill="#a07e1b69" d="
    M 951,483
    Q 952.25,484.25 954,484
    L 954,484 961,480
    Q 960.5,480.25 960,480
    L 960,480 951,483
    Z">
  </path>

  <path  fill="#a40c3132" d="
    M 954,484
    Q 955.25,484 956,483
    L 956,483 961,479
    Q 961.25,479.5 961,480
    L 961,480 954,484
    Z">
  </path>

  <path  fill="#6c587707" d="
    M 956,483
    Q 956.5,483.25 957,483
    L 957,483 960,478
    Q 960.75,478.25 961,479
    L 961,479 956,483
    Z">
  </path>

  <path  fill="#603fc549" d="
    M 957,483
    Q 958.25,483 959,482
    L 959,482 960,478
    Q 960,478 960,478
    L 960,478 957,483
    Z">
  </path>

  <path  fill="#d87c4a4b" d="
    M 959,482
    Q 959.75,481.75 960,481
    L 960,481 960,478
    Q 960,478 960,478
    L 960,478 959,482
    Z">
  </path>

  <path  fill="#da4f9c3f" d="
    M 960,481
    Q 960.25,480.5 960,480
    L 960,480 960,478
    Q 960,478 960,478
    L 960,478 960,481
    Z">
  </path>

  <path  fill="#b27bf337" d="
    M 960,480
    Q 960.5,480.25 961,480
    L 961,480 960,478
    Q 960,478 960,478
    L 960,478 960,480
    Z">
  </path>
</g>
</svg>
