<svg viewBox="0 0 1920 957" id="svg-fa4928" fill="none" preserveAspectRatio="xMinYMid slice" xmlns="http://www.w3.org/2000/svg" xmlns:xlink="http://www.w3.org/1999/xlink" >
<style>
* { transform-box: fill-box; } text { font-size:0.65em; }
#svg-fa4928 {
  --c0:  #00000000; 
  --c1:  #b772ea7f;  --c2:  #8725ac54;  --c3:  #f0010b45;  --c4:  #870eeb65;  --c5:  #9847c64a;
  --c6:  #cc3aab72;  --c7:  #985fb957;  --c8:  #c73c7f1e;  --c9:  #dd4a547d;  --c10: #be64c24c;
  --c11: #7a0e9702;  --c12: #6f46aa72;  --c13: #ef337758;  --c14: #f0654a77;  --c15: #866c595f;
  --c16: #995cfc19;  --c17: #88530d6a;  --c18: #7a53aa24;  --c19: #c824ac4f;  --c20: #bc5fcc70;
  --c21: #af5afa74;  --c22: #95770807;  --c23: #d057764e;  --c24: #c62b0f58;  --c25: #99264205;
  --c26: #aa7ac85c;  --c27: #f1462f7e;  --c28: #7e7e7b27;  --c29: #ca4a3c13;  --c30: #e23c0f25;
  --c31: #ab060222;  --c32: #e607c752;  --c33: #f817e53d;  --c34: #c259744a;  --c35: #a2404732;
  --c36: #9535cd6d;  --c37: #87276a2e;  --c38: #f61d685c;  --c39: #d06fdc74;  --c40: #651bfb09;
  --c41: #71611431;  --c42: #bb48e773;  --c43: #c22bcc07;  --c44: #ad464740;  --c45: #a849d241;
  --c46: #b237af43;  --c47: #7f45c372;  --c48: #a632551f;  --c49: #f839160e;  --c50: #a6512149;
  --c51: #ec402754;  --c52: #84407839;  --c53: #b263c905;  --c54: #893fd914;  --c55: #d348d129;
  --c56: #7470e200;  --c57: #b2653c2a;  --c58: #c14b9a4c;  --c59: #9d5f975c;  --c60: #bd7fe86a;
  --c61: #f34f8466;  --c62: #ab502867;  --c63: #b50fab4e;  --c64: #e7360057;  --c65: #b04acf31;
  --c66: #9439e92e;  --c67: #ee198b08;  --c68: #cb386865;  --c69: #de4dad7f;  --c70: #8810d975;
  --c71: #cd0f286c;  --c72: #b260e81a;  --c73: #ce55c56e;  --c74: #6d54126f;  --c75: #ea63f529;
  --c76: #9219e818;  --c77: #6c378c57;  --c78: #6b0f510d;  --c79: #f5294171;  --c80: #b822f92c;
  --c81: #b8631f46;  --c82: #d93d5307;  --c83: #ae7bbe30;  --c84: #df696502;  --c85: #7c4ef030;
  --c86: #f754681c;  --c87: #d775933d;  --c88: #7b62e648;  --c89: #707c9419;  --c90: #af040e1f;
  --c91: #d12f4e4c;  --c92: #a643e906;  --c93: #f8453065;  --c94: #b2128e02;  --c95: #9e50ae57;
  --c96: #c05bdc64;  --c97: #bc48544e;  --c98: #6d307a36;  --c99: #71619449;  --c100: #7f7af42d;
  --c-count: 100;
}
</style>
<defs>
  <radialGradient id="corner-tlc" gradientUnits="userSpaceOnUse" cx="0" cy="0" r="957">
    <stop offset="0.00" stop-opacity="0.50" stop-color="#6a3a7fa1"/>
    <stop offset="0.25" stop-opacity="0.33" stop-color="#6a3a7fa1"/>
    <stop offset="0.75" stop-opacity="0.15" stop-color="#b24d9029"/>
    <stop offset="1.00" stop-opacity="0.0"  stop-color="#76762d32"/>
  </radialGradient>
  <radialGradient id="corner-trc" gradientUnits="userSpaceOnUse" cx="1920" cy="0" r="957">
    <stop offset="0.00" stop-opacity="0.50" stop-color="#c53996b9"/>
    <stop offset="0.25" stop-opacity="0.33" stop-color="#c53996b9"/>
    <stop offset="0.75" stop-opacity="0.15" stop-color="#be8b8451"/>
    <stop offset="1.00" stop-opacity="0.0"  stop-color="#6d63580b"/>
  </radialGradient>
  <radialGradient id="corner-blc" gradientUnits="userSpaceOnUse" cx="0" cy="957" r="957">
    <stop offset="0.00" stop-opacity="0.50" stop-color="#805b6667"/>
    <stop offset="0.25" stop-opacity="0.33" stop-color="#805b6667"/>
    <stop offset="0.75" stop-opacity="0.15" stop-color="#45b2b051"/>
    <stop offset="1.00" stop-opacity="0.0"  stop-color="#6f63383f"/>
  </radialGradient>
  <radialGradient id="corner-brc" gradientUnits="userSpaceOnUse" cx="1920" cy="957" r="957">
    <stop offset="0.00" stop-opacity="0.50" stop-color="#d95690b7"/>
    <stop offset="0.25" stop-opacity="0.33" stop-color="#d95690b7"/>
    <stop offset="0.75" stop-opacity="0.15" stop-color="#72885936"/>
    <stop offset="1.00" stop-opacity="0.0"  stop-color="#766b2210"/>
  </radialGradient>
  <linearGradient id="grad-fa4928-1" gradientUnits="userSpaceOnUse" x1="650" y1="210" x2="1920" y2="957">
    <stop offset="0.00" stop-color="var(--c40)"/>
    <stop offset="0.25" stop-color="var(--c49)"/>
    <stop offset="0.50" stop-color="var(--c86)"/>
    <stop offset="0.75" stop-color="var(--c36)"/>
    <stop offset="1.00" stop-color="var(--c90)"/>
  </linearGradient>
  <radialGradient id="grad-fa4928-2" gradientUnits="userSpaceOnUse" cx="700" cy="650" r="1600">
    <stop offset="0.00" stop-color="var(--c45)"/>
    <stop offset="0.25" stop-color="var(--c46)"/>
    <stop offset="0.50" stop-color="var(--c14)"/>
    <stop offset="0.75" stop-color="var(--c90)"/>
    <stop offset="1.00" stop-color="var(--c4)"/>
  </radialGradient>
  <linearGradient id="grad-fa4928-3" gradientUnits="userSpaceOnUse" x1="240" y1="100" x2="1920" y2="957">
    <stop offset="0.00" stop-color="var(--c95)"/>
    <stop offset="0.25" stop-color="var(--c50)"/>
    <stop offset="0.50" stop-color="var(--c89)"/>
    <stop offset="0.75" stop-color="var(--c82)"/>
    <stop offset="1.00" stop-color="var(--c90)"/>
  </linearGradient>
  <radialGradient id="grad-fa4928-4" gradientUnits="userSpaceOnUse" cx="670" cy="310" r="1320">
    <stop offset="0.00" stop-color="var(--c94)"/>
    <stop offset="0.25" stop-color="var(--c66)"/>
    <stop offset="0.50" stop-color="var(--c38)"/>
    <stop offset="0.75" stop-color="var(--c81)"/>
    <stop offset="1.00" stop-color="var(--c54)"/>
  </radialGradient>
  <linearGradient id="grad-fa4928-5" gradientUnits="userSpaceOnUse" x1="140" y1="110" x2="1920" y2="957">
    <stop offset="0.00" stop-color="var(--c81)"/>
    <stop offset="0.25" stop-color="var(--c74)"/>
    <stop offset="0.50" stop-color="var(--c42)"/>
    <stop offset="0.75" stop-color="var(--c50)"/>
    <stop offset="1.00" stop-color="var(--c89)"/>
  </linearGradient>
</defs>
<rect x="0" y="0" id="box-fa4928"  width="1920" height="957"   fill="#333F" ></rect>
<path d=" M 956,482 L 964,474 M 964,482 L 956,474" stroke="red" class="grid" />
<path d=" M 956,482 L 964,474 M 964,482 L 956,474" stroke="red" class="grid" />
<text fill="#FF09" x="956" y="492">1</text><circle cx="960" cy="478" r="6" stroke="#5a583254" class="point" /> 
<path d=" M 963,483 L 971,475 M 971,483 L 963,475" stroke="red" class="grid" />
<path d=" M 963,483 L 971,475 M 971,483 L 963,475" stroke="red" class="grid" />
<text fill="#FF09" x="963" y="493">2</text><circle cx="967" cy="479" r="6" stroke="#5a4b2031" class="point" /> 
<path d=" M 969,488 L 977,480 M 977,488 L 969,480" stroke="red" class="grid" />
<path d=" M 969,488 L 977,480 M 977,488 L 969,480" stroke="red" class="grid" />
<text fill="#FF09" x="969" y="498">3</text><circle cx="973" cy="484" r="6" stroke="#5a47ae1a" class="point" /> 
<path d=" M 973,496 L 981,488 M 981,496 L 973,488" stroke="red" class="grid" />
<path d=" M 973,496 L 981,488 M 981,496 L 973,488" stroke="red" class="grid" />
<text fill="#FF09" x="973" y="506">4</text><circle cx="977" cy="492" r="6" stroke="#5a32197b" class="point" /> 
<path d=" M 973,506 L 981,498 M 981,506 L 973,498" stroke="red" class="grid" />
<path d=" M 973,506 L 981,498 M 981,506 L 973,498" stroke="red" class="grid" />
<text fill="#FF09" x="973" y="516">5</text><circle cx="977" cy="502" r="6" stroke="#5a3c7411" class="point" /> 
<path d=" M 970,517 L 978,509 M 978,517 L 970,509" stroke="red" class="grid" />
<path d=" M 970,517 L 978,509 M 978,517 L 970,509" stroke="red" class="grid" />
<text fill="#FF09" x="970" y="527">6</text><circle cx="974" cy="513" r="6" stroke="#5a4f125f" class="point" /> 
<path d=" M 962,527 L 970,519 M 970,527 L 962,519" stroke="red" class="grid" />
<path d=" M 962,527 L 970,519 M 970,527 L 962,519" stroke="red" class="grid" />
<text fill="#FF09" x="962" y="537">7</text><circle cx="966" cy="523" r="6" stroke="#5a505d30" class="point" /> 
<path d=" M 950,535 L 958,527 M 958,535 L 950,527" stroke="red" class="grid" />
<path d=" M 950,535 L 958,527 M 958,535 L 950,527" stroke="red" class="grid" />
<text fill="#FF09" x="950" y="545">8</text><circle cx="954" cy="531" r="6" stroke="#5a3d1e7b" class="point" /> 
<path d=" M 935,540 L 943,532 M 943,540 L 935,532" stroke="red" class="grid" />
<path d=" M 935,540 L 943,532 M 943,540 L 935,532" stroke="red" class="grid" />
<text fill="#FF09" x="935" y="550">9</text><circle cx="939" cy="536" r="6" stroke="#5a591d2d" class="point" /> 
<path d=" M 917,541 L 925,533 M 925,541 L 917,533" stroke="red" class="grid" />
<path d=" M 917,541 L 925,533 M 925,541 L 917,533" stroke="red" class="grid" />
<text fill="#FF09" x="917" y="551">10</text><circle cx="921" cy="537" r="6" stroke="#5a37fd6b" class="point" /> 
<path d=" M 898,536 L 906,528 M 906,536 L 898,528" stroke="red" class="grid" />
<path d=" M 898,536 L 906,528 M 906,536 L 898,528" stroke="red" class="grid" />
<text fill="#FF09" x="898" y="546">11</text><circle cx="902" cy="532" r="6" stroke="#5a40345a" class="point" /> 
<path d=" M 879,525 L 887,517 M 887,525 L 879,517" stroke="red" class="grid" />
<path d=" M 879,525 L 887,517 M 887,525 L 879,517" stroke="red" class="grid" />
<text fill="#FF09" x="879" y="535">12</text><circle cx="883" cy="521" r="6" stroke="#5a368307" class="point" /> 
<path d=" M 863,508 L 871,500 M 871,508 L 863,500" stroke="red" class="grid" />
<path d=" M 863,508 L 871,500 M 871,508 L 863,500" stroke="red" class="grid" />
<text fill="#FF09" x="863" y="518">13</text><circle cx="867" cy="504" r="6" stroke="#5a44dc50" class="point" /> 
<path d=" M 850,486 L 858,478 M 858,486 L 850,478" stroke="red" class="grid" />
<path d=" M 850,486 L 858,478 M 858,486 L 850,478" stroke="red" class="grid" />
<text fill="#FF09" x="850" y="496">14</text><circle cx="854" cy="482" r="6" stroke="#5a3b2636" class="point" /> 
<path d=" M 843,459 L 851,451 M 851,459 L 843,451" stroke="red" class="grid" />
<path d=" M 843,459 L 851,451 M 851,459 L 843,451" stroke="red" class="grid" />
<text fill="#FF09" x="843" y="469">15</text><circle cx="847" cy="455" r="6" stroke="#5a54fe22" class="point" /> 
<path d=" M 843,429 L 851,421 M 851,429 L 843,421" stroke="red" class="grid" />
<path d=" M 843,429 L 851,421 M 851,429 L 843,421" stroke="red" class="grid" />
<text fill="#FF09" x="843" y="439">16</text><circle cx="847" cy="425" r="6" stroke="#5a46bd13" class="point" /> 
<path d=" M 852,398 L 860,390 M 860,398 L 852,390" stroke="red" class="grid" />
<path d=" M 852,398 L 860,390 M 860,398 L 852,390" stroke="red" class="grid" />
<text fill="#FF09" x="852" y="408">17</text><circle cx="856" cy="394" r="6" stroke="#5a53c162" class="point" /> 
<path d=" M 868,368 L 876,360 M 876,368 L 868,360" stroke="red" class="grid" />
<path d=" M 868,368 L 876,360 M 876,368 L 868,360" stroke="red" class="grid" />
<text fill="#FF09" x="868" y="378">18</text><circle cx="872" cy="364" r="6" stroke="#5a35a639" class="point" /> 
<path d=" M 894,341 L 902,333 M 902,341 L 894,333" stroke="red" class="grid" />
<path d=" M 894,341 L 902,333 M 902,341 L 894,333" stroke="red" class="grid" />
<text fill="#FF09" x="894" y="351">19</text><circle cx="898" cy="337" r="6" stroke="#5a4ed512" class="point" /> 
<path d=" M 927,321 L 935,313 M 935,321 L 927,313" stroke="red" class="grid" />
<path d=" M 927,321 L 935,313 M 935,321 L 927,313" stroke="red" class="grid" />
<text fill="#FF09" x="927" y="331">20</text><circle cx="931" cy="317" r="6" stroke="#5a484147" class="point" /> 
<path d=" M 966,308 L 974,300 M 974,308 L 966,300" stroke="red" class="grid" />
<path d=" M 966,308 L 974,300 M 974,308 L 966,300" stroke="red" class="grid" />
<text fill="#FF09" x="966" y="318">21</text><circle cx="970" cy="304" r="6" stroke="#5a349c6c" class="point" /> 
<path d=" M 1010,305 L 1018,297 M 1018,305 L 1010,297" stroke="red" class="grid" />
<path d=" M 1010,305 L 1018,297 M 1018,305 L 1010,297" stroke="red" class="grid" />
<text fill="#FF09" x="1010" y="315">22</text><circle cx="1014" cy="301" r="6" stroke="#5a51ce52" class="point" /> 
<path d=" M 1056,314 L 1064,306 M 1064,314 L 1056,306" stroke="red" class="grid" />
<path d=" M 1056,314 L 1064,306 M 1064,314 L 1056,306" stroke="red" class="grid" />
<text fill="#FF09" x="1056" y="324">23</text><circle cx="1060" cy="310" r="6" stroke="#5a3e8137" class="point" /> 
<path d=" M 1101,334 L 1109,326 M 1109,334 L 1101,326" stroke="red" class="grid" />
<path d=" M 1101,334 L 1109,326 M 1109,334 L 1101,326" stroke="red" class="grid" />
<text fill="#FF09" x="1101" y="344">24</text><circle cx="1105" cy="330" r="6" stroke="#5a4bf634" class="point" /> 
<path d=" M 1141,367 L 1149,359 M 1149,367 L 1141,359" stroke="red" class="grid" />
<path d=" M 1141,367 L 1149,359 M 1149,367 L 1141,359" stroke="red" class="grid" />
<text fill="#FF09" x="1141" y="377">25</text><circle cx="1145" cy="363" r="6" stroke="#5a4ecf4e" class="point" /> 
<path d=" M 1174,410 L 1182,402 M 1182,410 L 1174,402" stroke="red" class="grid" />
<path d=" M 1174,410 L 1182,402 M 1182,410 L 1174,402" stroke="red" class="grid" />
<text fill="#FF09" x="1174" y="420">26</text><circle cx="1178" cy="406" r="6" stroke="#5a336317" class="point" /> 
<path d=" M 1197,463 L 1205,455 M 1205,463 L 1197,455" stroke="red" class="grid" />
<path d=" M 1197,463 L 1205,455 M 1205,463 L 1197,455" stroke="red" class="grid" />
<text fill="#FF09" x="1197" y="473">27</text><circle cx="1201" cy="459" r="6" stroke="#5a3cd653" class="point" /> 
<path d=" M 1206,523 L 1214,515 M 1214,523 L 1206,515" stroke="red" class="grid" />
<path d=" M 1206,523 L 1214,515 M 1214,523 L 1206,515" stroke="red" class="grid" />
<text fill="#FF09" x="1206" y="533">28</text><circle cx="1210" cy="519" r="6" stroke="#5a591255" class="point" /> 
<path d=" M 1201,586 L 1209,578 M 1209,586 L 1201,578" stroke="red" class="grid" />
<path d=" M 1201,586 L 1209,578 M 1209,586 L 1201,578" stroke="red" class="grid" />
<text fill="#FF09" x="1201" y="596">29</text><circle cx="1205" cy="582" r="6" stroke="#5a39d333" class="point" /> 
<path d=" M 1175,645 L 1183,637 M 1183,645 L 1175,637" stroke="red" class="grid" />
<path d=" M 1175,645 L 1183,637 M 1183,645 L 1175,637" stroke="red" class="grid" />
<text fill="#FF09" x="1175" y="655">30</text><circle cx="1179" cy="641" r="6" stroke="#5a4e793d" class="point" /> 
<path d=" M 1135,698 L 1143,690 M 1143,698 L 1135,690" stroke="red" class="grid" />
<path d=" M 1135,698 L 1143,690 M 1143,698 L 1135,690" stroke="red" class="grid" />
<text fill="#FF09" x="1135" y="708">31</text><circle cx="1139" cy="694" r="6" stroke="#5a492f27" class="point" /> 
<path d=" M 1082,742 L 1090,734 M 1090,742 L 1082,734" stroke="red" class="grid" />
<path d=" M 1082,742 L 1090,734 M 1090,742 L 1082,734" stroke="red" class="grid" />
<text fill="#FF09" x="1082" y="752">32</text><circle cx="1086" cy="738" r="6" stroke="#5a35d65f" class="point" /> 
<path d=" M 1019,772 L 1027,764 M 1027,772 L 1019,764" stroke="red" class="grid" />
<path d=" M 1019,772 L 1027,764 M 1027,772 L 1019,764" stroke="red" class="grid" />
<text fill="#FF09" x="1019" y="782">33</text><circle cx="1023" cy="768" r="6" stroke="#5a538014" class="point" /> 
<path d=" M 948,786 L 956,778 M 956,786 L 948,778" stroke="red" class="grid" />
<path d=" M 948,786 L 956,778 M 956,786 L 948,778" stroke="red" class="grid" />
<text fill="#FF09" x="948" y="796">34</text><circle cx="952" cy="782" r="6" stroke="#5a58a053" class="point" /> 
<path d=" M 874,783 L 882,775 M 882,783 L 874,775" stroke="red" class="grid" />
<path d=" M 874,783 L 882,775 M 882,783 L 874,775" stroke="red" class="grid" />
<text fill="#FF09" x="874" y="793">35</text><circle cx="878" cy="779" r="6" stroke="#5a4b0d77" class="point" /> 
<path d=" M 801,763 L 809,755 M 809,763 L 801,755" stroke="red" class="grid" />
<path d=" M 801,763 L 809,755 M 809,763 L 801,755" stroke="red" class="grid" />
<text fill="#FF09" x="801" y="773">36</text><circle cx="805" cy="759" r="6" stroke="#5a43e03a" class="point" /> 
<path d=" M 734,724 L 742,716 M 742,724 L 734,716" stroke="red" class="grid" />
<path d=" M 734,724 L 742,716 M 742,724 L 734,716" stroke="red" class="grid" />
<text fill="#FF09" x="734" y="734">37</text><circle cx="738" cy="720" r="6" stroke="#5a597a78" class="point" /> 
<path d=" M 676,670 L 684,662 M 684,670 L 676,662" stroke="red" class="grid" />
<path d=" M 676,670 L 684,662 M 684,670 L 676,662" stroke="red" class="grid" />
<text fill="#FF09" x="676" y="680">38</text><circle cx="680" cy="666" r="6" stroke="#5a56a135" class="point" /> 
<path d=" M 631,601 L 639,593 M 639,601 L 631,593" stroke="red" class="grid" />
<path d=" M 631,601 L 639,593 M 639,601 L 631,593" stroke="red" class="grid" />
<text fill="#FF09" x="631" y="611">39</text><circle cx="635" cy="597" r="6" stroke="#5a504315" class="point" /> 
<path d=" M 604,522 L 612,514 M 612,522 L 604,514" stroke="red" class="grid" />
<path d=" M 604,522 L 612,514 M 612,522 L 604,514" stroke="red" class="grid" />
<text fill="#FF09" x="604" y="532">40</text><circle cx="608" cy="518" r="6" stroke="#5a53bc0d" class="point" /> 
<path d=" M 595,437 L 603,429 M 603,437 L 595,429" stroke="red" class="grid" />
<path d=" M 595,437 L 603,429 M 603,437 L 595,429" stroke="red" class="grid" />
<text fill="#FF09" x="595" y="447">41</text><circle cx="599" cy="433" r="6" stroke="#5a3e052d" class="point" /> 
<path d=" M 608,349 L 616,341 M 616,349 L 608,341" stroke="red" class="grid" />
<path d=" M 608,349 L 616,341 M 616,349 L 608,341" stroke="red" class="grid" />
<text fill="#FF09" x="608" y="359">42</text><circle cx="612" cy="345" r="6" stroke="#5a583a3a" class="point" /> 
<path d=" M 641,266 L 649,258 M 649,266 L 641,258" stroke="red" class="grid" />
<path d=" M 641,266 L 649,258 M 649,266 L 641,258" stroke="red" class="grid" />
<text fill="#FF09" x="641" y="276">43</text><circle cx="645" cy="262" r="6" stroke="#5a4a4c3a" class="point" /> 
<path d=" M 695,191 L 703,183 M 703,191 L 695,183" stroke="red" class="grid" />
<path d=" M 695,191 L 703,183 M 703,191 L 695,183" stroke="red" class="grid" />
<text fill="#FF09" x="695" y="201">44</text><circle cx="699" cy="187" r="6" stroke="#5a3ca601" class="point" /> 
<path d=" M 767,129 L 775,121 M 775,129 L 767,121" stroke="red" class="grid" />
<path d=" M 767,129 L 775,121 M 775,129 L 767,121" stroke="red" class="grid" />
<text fill="#FF09" x="767" y="139">45</text><circle cx="771" cy="125" r="6" stroke="#5a44ce75" class="point" /> 
<path d=" M 853,85 L 861,77 M 861,85 L 853,77" stroke="red" class="grid" />
<path d=" M 853,85 L 861,77 M 861,85 L 853,77" stroke="red" class="grid" />
<text fill="#FF09" x="853" y="95">46</text><circle cx="857" cy="81" r="6" stroke="#5a37a13c" class="point" /> 
<path d=" M 949,62 L 957,54 M 957,62 L 949,54" stroke="red" class="grid" />
<path d=" M 949,62 L 957,54 M 957,62 L 949,54" stroke="red" class="grid" />
<text fill="#FF09" x="949" y="72">47</text><circle cx="953" cy="58" r="6" stroke="#5a336b04" class="point" /> 
<path d=" M 1051,62 L 1059,54 M 1059,62 L 1051,54" stroke="red" class="grid" />
<path d=" M 1051,62 L 1059,54 M 1059,62 L 1051,54" stroke="red" class="grid" />
<text fill="#FF09" x="1051" y="72">48</text><circle cx="1055" cy="58" r="6" stroke="#5a4fec05" class="point" /> 
<path d=" M 1152,87 L 1160,79 M 1160,87 L 1152,79" stroke="red" class="grid" />
<path d=" M 1152,87 L 1160,79 M 1160,87 L 1152,79" stroke="red" class="grid" />
<text fill="#FF09" x="1152" y="97">49</text><circle cx="1156" cy="83" r="6" stroke="#5a39a65a" class="point" /> 
<path d=" M 1247,137 L 1255,129 M 1255,137 L 1247,129" stroke="red" class="grid" />
<path d=" M 1247,137 L 1255,129 M 1255,137 L 1247,129" stroke="red" class="grid" />
<text fill="#FF09" x="1247" y="147">50</text><circle cx="1251" cy="133" r="6" stroke="#5a49e67f" class="point" /> 
<path d=" M 1329,209 L 1337,201 M 1337,209 L 1329,201" stroke="red" class="grid" />
<path d=" M 1329,209 L 1337,201 M 1337,209 L 1329,201" stroke="red" class="grid" />
<text fill="#FF09" x="1329" y="219">51</text><circle cx="1333" cy="205" r="6" stroke="#5a47bb5c" class="point" /> 
<path d=" M 1393,301 L 1401,293 M 1401,301 L 1393,293" stroke="red" class="grid" />
<path d=" M 1393,301 L 1401,293 M 1401,301 L 1393,293" stroke="red" class="grid" />
<text fill="#FF09" x="1393" y="311">52</text><circle cx="1397" cy="297" r="6" stroke="#5a4f802a" class="point" /> 
<path d=" M 1435,408 L 1443,400 M 1443,408 L 1435,400" stroke="red" class="grid" />
<path d=" M 1435,408 L 1443,400 M 1443,408 L 1435,400" stroke="red" class="grid" />
<text fill="#FF09" x="1435" y="418">53</text><circle cx="1439" cy="404" r="6" stroke="#5a3ca533" class="point" /> 
<path d=" M 1450,524 L 1458,516 M 1458,524 L 1450,516" stroke="red" class="grid" />
<path d=" M 1450,524 L 1458,516 M 1458,524 L 1450,516" stroke="red" class="grid" />
<text fill="#FF09" x="1450" y="534">54</text><circle cx="1454" cy="520" r="6" stroke="#5a4f177f" class="point" /> 
<path d=" M 1437,644 L 1445,636 M 1445,644 L 1437,636" stroke="red" class="grid" />
<path d=" M 1437,644 L 1445,636 M 1445,644 L 1437,636" stroke="red" class="grid" />
<text fill="#FF09" x="1437" y="654">55</text><circle cx="1441" cy="640" r="6" stroke="#5a37ae46" class="point" /> 
<path d=" M 1396,760 L 1404,752 M 1404,760 L 1396,752" stroke="red" class="grid" />
<path d=" M 1396,760 L 1404,752 M 1404,760 L 1396,752" stroke="red" class="grid" />
<text fill="#FF09" x="1396" y="770">56</text><circle cx="1400" cy="756" r="6" stroke="#5a3f4f0e" class="point" /> 
  <path id="fa4928-1" class="corner tlc"  fill="url(#corner-tlc)"  d="M 0,0
  L 0,0 1920,0
  Q 1267,803 0,957
  L 0,957 0,0
  Z">
  </path>

  <path id="fa4928-2" class="corner trc"  fill="url(#corner-trc)"  d="M 1920,0
  L 1920,0 0,0
  Q 653,803 1920,957
  L 1920,957 1920,0
  Z">
  </path>

  <path id="fa4928-3" class="corner blc"  fill="url(#corner-blc)"  d="M 0,957
  L 0,957 0,0
  Q 1267,154 1920,957
  L 1920,957 0,957
  Z">
  </path>

  <path id="fa4928-4" class="corner brc"  fill="url(#corner-brc)"  d="M 1920,957
  L 1920,957 1920,0
  Q 653,154 0,957
  L 0,957 1920,957
  Z">
  </path>

<g id="fa4928-5" class="nautilus p57"  onclick="this.style.fill = randomColor()" >
  <path  fill="#d37fe903" d="
    M 1400,756
    Q 1486,651.5 1454,520
    L 1454,520 612,345
    Q 616,244.25 699,187
    L 699,187 1400,756
    Z">
  </path>

  <path  fill="#cc3e6f6b" d="
    M 1454,520
    Q 1481.25,394.25 1397,297
    L 1397,297 608,518
    Q 566.75,430.5 612,345
    L 612,345 1454,520
    Z">
  </path>

  <path  fill="#f33a3862" d="
    M 1397,297
    Q 1365,178.5 1251,133
    L 1251,133 680,666
    Q 607,610 608,518
    L 608,518 1397,297
    Z">
  </path>

  <path  fill="#fa582774" d="
    M 1251,133
    Q 1171.75,46.5 1055,58
    L 1055,58 805,759
    Q 719.25,743.75 680,666
    L 680,666 1251,133
    Z">
  </path>

  <path  fill="#af6edd3d" d="
    M 1055,58
    Q 950.25,20 857,81
    L 857,81 952,782
    Q 872.75,807.25 805,759
    L 805,759 1055,58
    Z">
  </path>

  <path  fill="#e579f61a" d="
    M 857,81
    Q 751.5,94.5 699,187
    L 699,187 1086,738
    Q 1030,793.5 952,782
    L 952,782 857,81
    Z">
  </path>

  <path  fill="#615eee46" d="
    M 699,187
    Q 616,244.25 612,345
    L 612,345 1179,641
    Q 1156.75,712.75 1086,738
    L 1086,738 699,187
    Z">
  </path>

  <path  fill="#835d1d14" d="
    M 612,345
    Q 566.75,430.5 608,518
    L 608,518 1210,519
    Q 1225,587.75 1179,641
    L 1179,641 612,345
    Z">
  </path>

  <path  fill="#9a54ad0c" d="
    M 608,518
    Q 607,610 680,666
    L 680,666 1178,406
    Q 1222.25,454.5 1210,519
    L 1210,519 608,518
    Z">
  </path>

  <path  fill="#8e61d44e" d="
    M 680,666
    Q 719.25,743.75 805,759
    L 805,759 1105,330
    Q 1160.5,349.75 1178,406
    L 1178,406 680,666
    Z">
  </path>

  <path  fill="#910d7422" d="
    M 805,759
    Q 872.75,807.25 952,782
    L 952,782 1014,301
    Q 1066.75,292.75 1105,330
    L 1105,330 805,759
    Z">
  </path>

  <path  fill="#a0202c49" d="
    M 952,782
    Q 1030,793.5 1086,738
    L 1086,738 931,317
    Q 968.5,288.25 1014,301
    L 1014,301 952,782
    Z">
  </path>

  <path  fill="#63464a67" d="
    M 1086,738
    Q 1156.75,712.75 1179,641
    L 1179,641 872,364
    Q 889.75,325.75 931,317
    L 931,317 1086,738
    Z">
  </path>

  <path  fill="#e421f21c" d="
    M 1179,641
    Q 1225,587.75 1210,519
    L 1210,519 847,425
    Q 844.25,388.25 872,364
    L 872,364 1179,641
    Z">
  </path>

  <path  fill="#9e10c552" d="
    M 1210,519
    Q 1222.25,454.5 1178,406
    L 1178,406 854,482
    Q 836.25,455.25 847,425
    L 847,425 1210,519
    Z">
  </path>

  <path  fill="#6b61ad63" d="
    M 1178,406
    Q 1160.5,349.75 1105,330
    L 1105,330 883,521
    Q 858.75,508.75 854,482
    L 854,482 1178,406
    Z">
  </path>

  <path  fill="#bd17b326" d="
    M 1105,330
    Q 1066.75,292.75 1014,301
    L 1014,301 921,537
    Q 898,538.5 883,521
    L 883,521 1105,330
    Z">
  </path>

  <path  fill="#9265703b" d="
    M 1014,301
    Q 968.5,288.25 931,317
    L 931,317 954,531
    Q 939,542.25 921,537
    L 921,537 1014,301
    Z">
  </path>

  <path  fill="#8768163b" d="
    M 931,317
    Q 889.75,325.75 872,364
    L 872,364 974,513
    Q 968.5,527 954,531
    L 954,531 931,317
    Z">
  </path>

  <path  fill="#b9390c42" d="
    M 872,364
    Q 844.25,388.25 847,425
    L 847,425 977,492
    Q 980.75,503.25 974,513
    L 974,513 872,364
    Z">
  </path>

  <path  fill="#b314d920" d="
    M 847,425
    Q 836.25,455.25 854,482
    L 854,482 967,479
    Q 975.25,483 977,492
    L 977,492 847,425
    Z">
  </path>

  <path  fill="#76660808" d="
    M 854,482
    Q 858.75,508.75 883,521
    L 883,521 960,478
    Q 963.75,476.75 967,479
    L 967,479 854,482
    Z">
  </path>

</g>
</svg>
