<svg viewBox="0 0 1920 957" id="svg-7d8996" fill="none" preserveAspectRatio="xMinYMid slice" xmlns="http://www.w3.org/2000/svg" xmlns:xlink="http://www.w3.org/1999/xlink" >
<style>
* { transform-box: fill-box; } text { font-size:0.65em; }
#svg-7d8996 {
  --c0:  #00000000; 
  --c1:  #90189402;  --c2:  #89175d35;  --c3:  #65306110;  --c4:  #b75b454c;  --c5:  #f5407402;
  --c6:  #8b6ed368;  --c7:  #8758bb33;  --c8:  #ea782803;  --c9:  #e96f4c2a;  --c10: #6f7b6977;
  --c11: #c851472e;  --c12: #ca177b6e;  --c13: #9806c344;  --c14: #9d1c3176;  --c15: #b8180f6a;
  --c16: #a5415037;  --c17: #fa112124;  --c18: #9d14326e;  --c19: #b7439969;  --c20: #84133d2d;
  --c21: #604bb376;  --c22: #dd0dcc46;  --c23: #8441ec65;  --c24: #e254ac2c;  --c25: #a8341161;
  --c26: #84039548;  --c27: #6f42b229;  --c28: #f92c996e;  --c29: #85330059;  --c30: #ec43ba7e;
  --c31: #c804f36c;  --c32: #943b556e;  --c33: #6808c71b;  --c34: #f42ac655;  --c35: #8f1fca27;
  --c36: #84091700;  --c37: #8419b145;  --c38: #6e527343;  --c39: #926a9e69;  --c40: #a61efb55;
  --c41: #b6547329;  --c42: #b5260051;  --c43: #7d383746;  --c44: #d22c8e51;  --c45: #b119821b;
  --c46: #d5594b23;  --c47: #8958c06c;  --c48: #91114b39;  --c49: #6b433b4e;  --c50: #62056a2f;
  --c51: #eb08e57f;  --c52: #9b362638;  --c53: #e6000817;  --c54: #9d610f29;  --c55: #cc05b632;
  --c56: #9e2e6133;  --c57: #be49c40f;  --c58: #e512e31b;  --c59: #d439ec28;  --c60: #b041131c;
  --c61: #b84bd656;  --c62: #a2508462;  --c63: #99509d75;  --c64: #c9280658;  --c65: #9538f307;
  --c66: #f27c3849;  --c67: #7715460e;  --c68: #8f275a28;  --c69: #9372b116;  --c70: #bb102026;
  --c71: #767e6843;  --c72: #976b116e;  --c73: #6f48b332;  --c74: #fd45282d;  --c75: #8f228e3d;
  --c76: #72015e5f;  --c77: #b449d10a;  --c78: #ad533348;  --c79: #7e43d10d;  --c80: #7825bb46;
  --c81: #9d46946c;  --c82: #f42d665b;  --c83: #f8380312;  --c84: #6044ea05;  --c85: #c01fb74c;
  --c86: #6621f221;  --c87: #cb67f540;  --c88: #ca443923;  --c89: #e82a2530;  --c90: #ae771d6d;
  --c91: #df0f9c12;  --c92: #a94d5c4e;  --c93: #aa055553;  --c94: #7c648139;  --c95: #c151ad76;
  --c96: #7c55141b;  --c97: #603d5d04;  --c98: #77584c73;  --c99: #803bd52f;  --c100: #de2dc33f;
  --c-count: 100;
}
</style>
<defs>
  <radialGradient id="corner-tlc" gradientUnits="userSpaceOnUse" cx="0" cy="0" r="957">
    <stop offset="0.00" stop-opacity="0.50" stop-color="#804386c5"/>
    <stop offset="0.25" stop-opacity="0.33" stop-color="#804386c5"/>
    <stop offset="0.75" stop-opacity="0.15" stop-color="#a441b050"/>
    <stop offset="1.00" stop-opacity="0.0"  stop-color="#56456e17"/>
  </radialGradient>
  <radialGradient id="corner-trc" gradientUnits="userSpaceOnUse" cx="1920" cy="0" r="957">
    <stop offset="0.00" stop-opacity="0.50" stop-color="#b74aa1b2"/>
    <stop offset="0.25" stop-opacity="0.33" stop-color="#b74aa1b2"/>
    <stop offset="0.75" stop-opacity="0.15" stop-color="#a4b56c4f"/>
    <stop offset="1.00" stop-opacity="0.0"  stop-color="#52206a18"/>
  </radialGradient>
  <radialGradient id="corner-blc" gradientUnits="userSpaceOnUse" cx="0" cy="957" r="957">
    <stop offset="0.00" stop-opacity="0.50" stop-color="#8d34cc77"/>
    <stop offset="0.25" stop-opacity="0.33" stop-color="#8d34cc77"/>
    <stop offset="0.75" stop-opacity="0.15" stop-color="#7455574a"/>
    <stop offset="1.00" stop-opacity="0.0"  stop-color="#507e591b"/>
  </radialGradient>
  <radialGradient id="corner-brc" gradientUnits="userSpaceOnUse" cx="1920" cy="957" r="957">
    <stop offset="0.00" stop-opacity="0.50" stop-color="#a371a0c4"/>
    <stop offset="0.25" stop-opacity="0.33" stop-color="#a371a0c4"/>
    <stop offset="0.75" stop-opacity="0.15" stop-color="#74bebf23"/>
    <stop offset="1.00" stop-opacity="0.0"  stop-color="#54427e00"/>
  </radialGradient>
  <linearGradient id="grad-7d8996-1" gradientUnits="userSpaceOnUse" x1="490" y1="140" x2="1920" y2="957">
    <stop offset="0.00" stop-color="var(--c33)"/>
    <stop offset="0.25" stop-color="var(--c43)"/>
    <stop offset="0.50" stop-color="var(--c29)"/>
    <stop offset="0.75" stop-color="var(--c41)"/>
    <stop offset="1.00" stop-color="var(--c77)"/>
  </linearGradient>
  <radialGradient id="grad-7d8996-2" gradientUnits="userSpaceOnUse" cx="680" cy="400" r="1080">
    <stop offset="0.00" stop-color="var(--c56)"/>
    <stop offset="0.25" stop-color="var(--c98)"/>
    <stop offset="0.50" stop-color="var(--c64)"/>
    <stop offset="0.75" stop-color="var(--c1)"/>
    <stop offset="1.00" stop-color="var(--c10)"/>
  </radialGradient>
  <linearGradient id="grad-7d8996-3" gradientUnits="userSpaceOnUse" x1="730" y1="280" x2="1920" y2="957">
    <stop offset="0.00" stop-color="var(--c24)"/>
    <stop offset="0.25" stop-color="var(--c85)"/>
    <stop offset="0.50" stop-color="var(--c55)"/>
    <stop offset="0.75" stop-color="var(--c31)"/>
    <stop offset="1.00" stop-color="var(--c14)"/>
  </linearGradient>
  <radialGradient id="grad-7d8996-4" gradientUnits="userSpaceOnUse" cx="740" cy="570" r="1020">
    <stop offset="0.00" stop-color="var(--c62)"/>
    <stop offset="0.25" stop-color="var(--c89)"/>
    <stop offset="0.50" stop-color="var(--c79)"/>
    <stop offset="0.75" stop-color="var(--c71)"/>
    <stop offset="1.00" stop-color="var(--c99)"/>
  </radialGradient>
  <linearGradient id="grad-7d8996-5" gradientUnits="userSpaceOnUse" x1="660" y1="100" x2="1920" y2="957">
    <stop offset="0.00" stop-color="var(--c95)"/>
    <stop offset="0.25" stop-color="var(--c89)"/>
    <stop offset="0.50" stop-color="var(--c66)"/>
    <stop offset="0.75" stop-color="var(--c75)"/>
    <stop offset="1.00" stop-color="var(--c40)"/>
  </linearGradient>
</defs>
<rect x="0" y="0" id="box-7d8996"  width="1920" height="957"   fill="#333F" ></rect>
  <path id="7d8996-1" class="corner tlc"  fill="url(#corner-tlc)"  d="M 0,0
  L 0,0 1920,0
  Q 1267,803 0,957
  L 0,957 0,0
  Z">
  </path>

  <path id="7d8996-2" class="corner trc"  fill="url(#corner-trc)"  d="M 1920,0
  L 1920,0 0,0
  Q 653,803 1920,957
  L 1920,957 1920,0
  Z">
  </path>

  <path id="7d8996-3" class="corner blc"  fill="url(#corner-blc)"  d="M 0,957
  L 0,957 0,0
  Q 1267,154 1920,957
  L 1920,957 0,957
  Z">
  </path>

  <path id="7d8996-4" class="corner brc"  fill="url(#corner-brc)"  d="M 1920,957
  L 1920,957 1920,0
  Q 653,154 0,957
  L 0,957 1920,957
  Z">
  </path>

<g id="7d8996-5" class="nautilus p61"  onclick="this.style.fill = randomColor()" >
  <path  fill="#a8471144" d="
  M 742,889
  Q 947.5,488 750,83
  L 750,83 940,126
  Q 946.5,482.75 665,702
  L 665,702 742,889
  Z">
  </path>

  <path  fill="#85030444" d="
  M 750,83
  Q 958.25,462.75 1387,524
  L 1387,524 1247,650
  Q 962.5,464.75 940,126
  L 940,126 750,83
  Z">
  </path>

  <path  fill="#9955784c" d="
  M 1387,524
  Q 972,485.25 692,794
  L 692,794 670,612
  Q 968,486.75 1247,650
  L 1247,650 1387,524
  Z">
  </path>

  <path  fill="#d47f0517" d="
  M 692,794
  Q 947.5,483 852,92
  L 852,92 1009,176
  Q 948.5,478.75 670,612
  L 670,612 692,794
  Z">
  </path>

  <path  fill="#682afb5c" d="
  M 852,92
  Q 961.75,465 1326,601
  L 1326,601 1171,678
  Q 964.5,467.5 1009,176
  L 1009,176 852,92
  Z">
  </path>

  <path  fill="#8d7e0031" d="
  M 1326,601
  Q 970.25,486.25 665,702
  L 665,702 691,537
  Q 966.25,487.5 1171,678
  L 1171,678 1326,601
  Z">
  </path>

  <path  fill="#c1314066" d="
  M 665,702
  Q 946.5,482.75 940,126
  L 940,126 1054,239
  Q 947,478.75 691,537
  L 691,537 665,702
  Z">
  </path>

  <path  fill="#ef60ac36" d="
  M 940,126
  Q 962.5,464.75 1247,650
  L 1247,650 1094,676
  Q 964.75,467.5 1054,239
  L 1054,239 940,126
  Z">
  </path>

  <path  fill="#78756e7b" d="
  M 1247,650
  Q 968,486.75 670,612
  L 670,612 735,478
  Q 964,487.25 1094,676
  L 1094,676 1247,650
  Z">
  </path>

  <path  fill="#b203b34d" d="
  M 670,612
  Q 948.5,478.75 1009,176
  L 1009,176 1077,303
  Q 949.75,476 735,478
  L 735,478 670,612
  Z">
  </path>

  <path  fill="#db621f78" d="
  M 1009,176
  Q 964.5,467.5 1171,678
  L 1171,678 1032,660
  Q 965.25,470.25 1077,303
  L 1077,303 1009,176
  Z">
  </path>

  <path  fill="#7e6a4f19" d="
  M 1171,678
  Q 966.25,487.5 691,537
  L 691,537 784,439
  Q 963.25,487.5 1032,660
  L 1032,660 1171,678
  Z">
  </path>

  <path  fill="#9d3bf55c" d="
  M 691,537
  Q 947,478.75 1054,239
  L 1054,239 1077,366
  Q 948.75,475.75 784,439
  L 784,439 691,537
  Z">
  </path>

  <path  fill="#fc729635" d="
  M 1054,239
  Q 964.75,467.5 1094,676
  L 1094,676 983,621
  Q 966.25,470 1077,366
  L 1077,366 1054,239
  Z">
  </path>

  <path  fill="#fd72182c" d="
  M 1094,676
  Q 964,487.25 735,478
  L 735,478 842,423
  Q 962,486.75 983,621
  L 983,621 1094,676
  Z">
  </path>

  <path  fill="#94436355" d="
  M 735,478
  Q 949.75,476 1077,303
  L 1077,303 1058,418
  Q 951.25,474.5 842,423
  L 842,423 735,478
  Z">
  </path>

  <path  fill="#e548f20b" d="
  M 1077,303
  Q 965.25,470.25 1032,660
  L 1032,660 954,579
  Q 965.75,472.5 1058,418
  L 1058,418 1077,303
  Z">
  </path>

  <path  fill="#ef713812" d="
  M 1032,660
  Q 963.25,487.5 784,439
  L 784,439 892,426
  Q 961.25,487 954,579
  L 954,579 1032,660
  Z">
  </path>

  <path  fill="#643df175" d="
  M 784,439
  Q 948.75,475.75 1077,366
  L 1077,366 1023,456
  Q 950,473.75 892,426
  L 892,426 784,439
  Z">
  </path>

  <path  fill="#b63c9e4b" d="
  M 1077,366
  Q 966.25,470 983,621
  L 983,621 946,526
  Q 967,471.75 1023,456
  L 1023,456 1077,366
  Z">
  </path>

  <path  fill="#c617550d" d="
  M 983,621
  Q 962,486.75 842,423
  L 842,423 937,451
  Q 960.25,486.25 946,526
  L 946,526 983,621
  Z">
  </path>

  <path  fill="#fd58d053" d="
  M 842,423
  Q 951.25,474.5 1058,418
  L 1058,418 980,475
  Q 952.5,473.75 937,451
  L 937,451 842,423
  Z">
  </path>

  <path  fill="#9435e871" d="
  M 1058,418
  Q 965.75,472.5 954,579
  L 954,579 956,483
  Q 966,473 980,475
  L 980,475 1058,418
  Z">
  </path>

  <path  fill="#c253d902" d="
  M 954,579
  Q 961.25,487 892,426
  L 892,426 960,478
  Q 959.25,481.5 956,483
  L 956,483 954,579
  Z">
  </path>

</g>
</svg>
