<svg viewBox="0 0 1920 957" id="svg-aea218" fill="none" preserveAspectRatio="xMinYMid slice" xmlns="http://www.w3.org/2000/svg" xmlns:xlink="http://www.w3.org/1999/xlink" >
<style>
* { transform-box: fill-box; } text { font-size:0.65em; }
#svg-aea218 {
  --c0:  #00000000; 
  --c1:  #d83ee834;  --c2:  #922f6652;  --c3:  #db6e5e61;  --c4:  #ba4b6943;  --c5:  #7a27ee4e;
  --c6:  #f76b4902;  --c7:  #80079631;  --c8:  #cd4c230e;  --c9:  #d0763c01;  --c10: #ce0cb53d;
  --c11: #d503e15e;  --c12: #bf035a55;  --c13: #941cc273;  --c14: #b05f9948;  --c15: #64333638;
  --c16: #c84f5f69;  --c17: #8330233b;  --c18: #b648db1c;  --c19: #d72bae03;  --c20: #a3259461;
  --c21: #a72d8778;  --c22: #bd05e505;  --c23: #c21e951c;  --c24: #f939e722;  --c25: #78266d40;
  --c26: #9254de70;  --c27: #dc275e51;  --c28: #df4cf21e;  --c29: #986ab112;  --c30: #a92de678;
  --c31: #603a7011;  --c32: #bd73f848;  --c33: #bc178120;  --c34: #d075ce05;  --c35: #9f2f0f5f;
  --c36: #a70bd859;  --c37: #ba1ff27e;  --c38: #83447d1c;  --c39: #65754408;  --c40: #9978c578;
  --c41: #cf31207e;  --c42: #d34b0e4c;  --c43: #6c5e643e;  --c44: #60516400;  --c45: #af3f6606;
  --c46: #6c521c0b;  --c47: #9660402b;  --c48: #c865fd38;  --c49: #d575ac54;  --c50: #7e47ba74;
  --c51: #cc52695d;  --c52: #a7019800;  --c53: #734fa515;  --c54: #910e5255;  --c55: #c471ba6c;
  --c56: #ab110b11;  --c57: #e4302f73;  --c58: #aa328e7b;  --c59: #a83cd26f;  --c60: #7a0bbb67;
  --c61: #8853262e;  --c62: #68282459;  --c63: #615b3244;  --c64: #ab34ab2c;  --c65: #c800d536;
  --c66: #975fa25f;  --c67: #ff63f10a;  --c68: #6b55f47f;  --c69: #ca41e611;  --c70: #b877500d;
  --c71: #ea714032;  --c72: #f819ac41;  --c73: #921a9f36;  --c74: #941c1e36;  --c75: #d2660b20;
  --c76: #bc186d02;  --c77: #dd6e7765;  --c78: #e951f503;  --c79: #ed5c3a70;  --c80: #ae6daf46;
  --c81: #f21b524e;  --c82: #b857073c;  --c83: #d123b529;  --c84: #9c1dcc2b;  --c85: #c87f1e06;
  --c86: #6a22ef64;  --c87: #8231694e;  --c88: #f4017f09;  --c89: #673a5c3a;  --c90: #ef710454;
  --c91: #7677b94a;  --c92: #91071a35;  --c93: #8e0b2d1f;  --c94: #7b0c9e0f;  --c95: #bc4be526;
  --c96: #db3b036c;  --c97: #e869c42f;  --c98: #651ea664;  --c99: #ec31b325;  --c100: #8439a974;
  --c-count: 100;
}
</style>
<defs>
  <radialGradient id="corner-tlc" gradientUnits="userSpaceOnUse" cx="0" cy="0" r="957">
    <stop offset="0.00" stop-opacity="0.50" stop-color="#7a62b4c5"/>
    <stop offset="0.25" stop-opacity="0.33" stop-color="#7a62b4c5"/>
    <stop offset="0.75" stop-opacity="0.15" stop-color="#b3c0a131"/>
    <stop offset="1.00" stop-opacity="0.0"  stop-color="#34577f3b"/>
  </radialGradient>
  <radialGradient id="corner-trc" gradientUnits="userSpaceOnUse" cx="1920" cy="0" r="957">
    <stop offset="0.00" stop-opacity="0.50" stop-color="#c32cb394"/>
    <stop offset="0.25" stop-opacity="0.33" stop-color="#c32cb394"/>
    <stop offset="0.75" stop-opacity="0.15" stop-color="#b5947a28"/>
    <stop offset="1.00" stop-opacity="0.0"  stop-color="#5b3f5617"/>
  </radialGradient>
  <radialGradient id="corner-blc" gradientUnits="userSpaceOnUse" cx="0" cy="957" r="957">
    <stop offset="0.00" stop-opacity="0.50" stop-color="#c56471b2"/>
    <stop offset="0.25" stop-opacity="0.33" stop-color="#c56471b2"/>
    <stop offset="0.75" stop-opacity="0.15" stop-color="#74b07c37"/>
    <stop offset="1.00" stop-opacity="0.0"  stop-color="#64742811"/>
  </radialGradient>
  <radialGradient id="corner-brc" gradientUnits="userSpaceOnUse" cx="1920" cy="957" r="957">
    <stop offset="0.00" stop-opacity="0.50" stop-color="#a75689c3"/>
    <stop offset="0.25" stop-opacity="0.33" stop-color="#a75689c3"/>
    <stop offset="0.75" stop-opacity="0.15" stop-color="#a5a5a224"/>
    <stop offset="1.00" stop-opacity="0.0"  stop-color="#6e304406"/>
  </radialGradient>
  <linearGradient id="grad-aea218-1" gradientUnits="userSpaceOnUse" x1="480" y1="220" x2="1920" y2="957">
    <stop offset="0.00" stop-color="var(--c4)"/>
    <stop offset="0.25" stop-color="var(--c1)"/>
    <stop offset="0.50" stop-color="var(--c15)"/>
    <stop offset="0.75" stop-color="var(--c42)"/>
    <stop offset="1.00" stop-color="var(--c99)"/>
  </linearGradient>
  <radialGradient id="grad-aea218-2" gradientUnits="userSpaceOnUse" cx="1050" cy="190" r="1670">
    <stop offset="0.00" stop-color="var(--c94)"/>
    <stop offset="0.25" stop-color="var(--c67)"/>
    <stop offset="0.50" stop-color="var(--c12)"/>
    <stop offset="0.75" stop-color="var(--c54)"/>
    <stop offset="1.00" stop-color="var(--c80)"/>
  </radialGradient>
  <linearGradient id="grad-aea218-3" gradientUnits="userSpaceOnUse" x1="730" y1="180" x2="1920" y2="957">
    <stop offset="0.00" stop-color="var(--c13)"/>
    <stop offset="0.25" stop-color="var(--c36)"/>
    <stop offset="0.50" stop-color="var(--c88)"/>
    <stop offset="0.75" stop-color="var(--c74)"/>
    <stop offset="1.00" stop-color="var(--c20)"/>
  </linearGradient>
  <radialGradient id="grad-aea218-4" gradientUnits="userSpaceOnUse" cx="480" cy="600" r="1150">
    <stop offset="0.00" stop-color="var(--c18)"/>
    <stop offset="0.25" stop-color="var(--c63)"/>
    <stop offset="0.50" stop-color="var(--c32)"/>
    <stop offset="0.75" stop-color="var(--c85)"/>
    <stop offset="1.00" stop-color="var(--c37)"/>
  </radialGradient>
  <linearGradient id="grad-aea218-5" gradientUnits="userSpaceOnUse" x1="460" y1="220" x2="1920" y2="957">
    <stop offset="0.00" stop-color="var(--c51)"/>
    <stop offset="0.25" stop-color="var(--c26)"/>
    <stop offset="0.50" stop-color="var(--c17)"/>
    <stop offset="0.75" stop-color="var(--c77)"/>
    <stop offset="1.00" stop-color="var(--c94)"/>
  </linearGradient>
</defs>
<rect x="0" y="0" id="box-aea218"  width="1920" height="957"   fill="#333F" ></rect>
  <path id="aea218-1" class="corner tlc"  fill="url(#corner-tlc)"  d="M 0,0
  L 0,0 1920,0
  Q 1267,803 0,957
  L 0,957 0,0
  Z">
  </path>

  <path id="aea218-2" class="corner trc"  fill="url(#corner-trc)"  d="M 1920,0
  L 1920,0 0,0
  Q 653,803 1920,957
  L 1920,957 1920,0
  Z">
  </path>

  <path id="aea218-3" class="corner blc"  fill="url(#corner-blc)"  d="M 0,957
  L 0,957 0,0
  Q 1267,154 1920,957
  L 1920,957 0,957
  Z">
  </path>

  <path id="aea218-4" class="corner brc"  fill="url(#corner-brc)"  d="M 1920,957
  L 1920,957 1920,0
  Q 653,154 0,957
  L 0,957 1920,957
  Z">
  </path>

<g id="aea218-5" class="nautilus p145"  onclick="this.style.fill = randomColor()" >
  <path  fill="#83471d73" d="
  M 814,942
  Q 902.5,991.25 995,950
  L 995,950 1257,189
  Q 1335.25,229.25 1350,316
  L 1350,316 814,942
  Z">
  </path>

  <path  fill="#bd4f3e6a" d="
  M 995,950
  Q 1092.25,963 1161,893
  L 1161,893 1127,106
  Q 1212.75,115 1257,189
  L 1257,189 995,950
  Z">
  </path>

  <path  fill="#b6014670" d="
  M 1161,893
  Q 1254.25,870.25 1292,782
  L 1292,782 978,76
  Q 1060,53.75 1127,106
  L 1127,106 1161,893
  Z">
  </path>

  <path  fill="#ba440d1a" d="
  M 1292,782
  Q 1368.5,727.75 1371,634
  L 1371,634 830,103
  Q 897.25,52.5 978,76
  L 978,76 1292,782
  Z">
  </path>

  <path  fill="#d077f110" d="
  M 1371,634
  Q 1421.25,557.25 1390,471
  L 1390,471 705,181
  Q 748,110.75 830,103
  L 830,103 1371,634
  Z">
  </path>

  <path  fill="#9c5cba4d" d="
  M 1390,471
  Q 1408.75,383.5 1350,316
  L 1350,316 617,298
  Q 631.75,217.5 705,181
  L 705,181 1390,471
  Z">
  </path>

  <path  fill="#86086d1a" d="
  M 1350,316
  Q 1335.25,229.25 1257,189
  L 1257,189 579,437
  Q 563.25,358 617,298
  L 617,298 1350,316
  Z">
  </path>

  <path  fill="#b9654c78" d="
  M 1257,189
  Q 1212.75,115 1127,106
  L 1127,106 594,580
  Q 550.75,512.25 579,437
  L 579,437 1257,189
  Z">
  </path>

  <path  fill="#9819ec4e" d="
  M 1127,106
  Q 1060,53.75 978,76
  L 978,76 660,705
  Q 595.75,659 594,580
  L 594,580 1127,106
  Z">
  </path>

  <path  fill="#ea3da844" d="
  M 978,76
  Q 897.25,52.5 830,103
  L 830,103 766,797
  Q 690,777.5 660,705
  L 660,705 978,76
  Z">
  </path>

  <path  fill="#8a69ca27" d="
  M 830,103
  Q 748,110.75 705,181
  L 705,181 898,844
  Q 820.25,853.5 766,797
  L 766,797 830,103
  Z">
  </path>

  <path  fill="#b57f865d" d="
  M 705,181
  Q 631.75,217.5 617,298
  L 617,298 1036,833
  Q 969.75,873 898,844
  L 898,844 705,181
  Z">
  </path>

  <path  fill="#cc205164" d="
  M 617,298
  Q 563.25,358 579,437
  L 579,437 1155,769
  Q 1111.5,830.75 1036,833
  L 1036,833 617,298
  Z">
  </path>

  <path  fill="#fb474870" d="
  M 579,437
  Q 550.75,512.25 594,580
  L 594,580 1238,669
  Q 1221.5,739.75 1155,769
  L 1155,769 579,437
  Z">
  </path>

  <path  fill="#8d26c920" d="
  M 594,580
  Q 595.75,659 660,705
  L 660,705 1278,551
  Q 1287.5,620 1238,669
  L 1238,669 594,580
  Z">
  </path>

  <path  fill="#a47fdd5f" d="
  M 660,705
  Q 690,777.5 766,797
  L 766,797 1273,429
  Q 1306,488.75 1278,551
  L 1278,551 660,705
  Z">
  </path>

  <path  fill="#9d0dd769" d="
  M 766,797
  Q 820.25,853.5 898,844
  L 898,844 1225,322
  Q 1275.75,363.5 1273,429
  L 1273,429 766,797
  Z">
  </path>

  <path  fill="#e63be46a" d="
  M 898,844
  Q 969.75,873 1036,833
  L 1036,833 1143,242
  Q 1204,261.5 1225,322
  L 1225,322 898,844
  Z">
  </path>

  <path  fill="#7f4b950f" d="
  M 1036,833
  Q 1111.5,830.75 1155,769
  L 1155,769 1041,198
  Q 1103,194.5 1143,242
  L 1143,242 1036,833
  Z">
  </path>

  <path  fill="#c6671729" d="
  M 1155,769
  Q 1221.5,739.75 1238,669
  L 1238,669 933,194
  Q 988,169 1041,198
  L 1041,198 1155,769
  Z">
  </path>

  <path  fill="#f708bd22" d="
  M 1238,669
  Q 1287.5,620 1278,551
  L 1278,551 833,230
  Q 874,187 933,194
  L 933,194 1238,669
  Z">
  </path>

  <path  fill="#b4106c08" d="
  M 1278,551
  Q 1306,488.75 1273,429
  L 1273,429 755,297
  Q 777.25,244 833,230
  L 833,230 1278,551
  Z">
  </path>

  <path  fill="#c351460b" d="
  M 1273,429
  Q 1275.75,363.5 1225,322
  L 1225,322 708,387
  Q 709,330.25 755,297
  L 755,297 1273,429
  Z">
  </path>

  <path  fill="#8e4d4044" d="
  M 1225,322
  Q 1204,261.5 1143,242
  L 1143,242 697,486
  Q 677.75,433.75 708,387
  L 708,387 1225,322
  Z">
  </path>

  <path  fill="#e132ba52" d="
  M 1143,242
  Q 1103,194.5 1041,198
  L 1041,198 722,581
  Q 685.75,539.75 697,486
  L 697,486 1143,242
  Z">
  </path>

  <path  fill="#bb395d5d" d="
  M 1041,198
  Q 988,169 933,194
  L 933,194 779,659
  Q 731,634.25 722,581
  L 722,581 1041,198
  Z">
  </path>

  <path  fill="#e9609f5a" d="
  M 933,194
  Q 874,187 833,230
  L 833,230 860,710
  Q 806.75,704.75 779,659
  L 779,659 933,194
  Z">
  </path>

  <path  fill="#cc2d1d66" d="
  M 833,230
  Q 777.25,244 755,297
  L 755,297 953,728
  Q 902,742.25 860,710
  L 860,710 833,230
  Z">
  </path>

  <path  fill="#6c1df33e" d="
  M 755,297
  Q 709,330.25 708,387
  L 708,387 1045,710
  Q 1003.5,742 953,728
  L 953,728 755,297
  Z">
  </path>

  <path  fill="#d75dfe47" d="
  M 708,387
  Q 677.75,433.75 697,486
  L 697,486 1119,657
  Q 1095.25,702 1045,710
  L 1045,710 708,387
  Z">
  </path>

  <path  fill="#ef43b038" d="
  M 697,486
  Q 685.75,539.75 722,581
  L 722,581 1162,579
  Q 1160,628.75 1119,657
  L 1119,657 697,486
  Z">
  </path>

  <path  fill="#aa333e23" d="
  M 722,581
  Q 731,634.25 779,659
  L 779,659 1174,496
  Q 1188.75,540.5 1162,579
  L 1162,579 722,581
  Z">
  </path>

  <path  fill="#eb789474" d="
  M 779,659
  Q 806.75,704.75 860,710
  L 860,710 1155,419
  Q 1183.75,452.75 1174,496
  L 1174,496 779,659
  Z">
  </path>

  <path  fill="#d71deb59" d="
  M 860,710
  Q 902,742.25 953,728
  L 953,728 1111,358
  Q 1148.25,377.5 1155,419
  L 1155,419 860,710
  Z">
  </path>

  <path  fill="#c10d104d" d="
  M 953,728
  Q 1003.5,742 1045,710
  L 1045,710 1052,318
  Q 1091.5,323.25 1111,358
  L 1111,358 953,728
  Z">
  </path>

  <path  fill="#761bc001" d="
  M 1045,710
  Q 1095.25,702 1119,657
  L 1119,657 985,304
  Q 1022,294.25 1052,318
  L 1052,318 1045,710
  Z">
  </path>

  <path  fill="#f0141255" d="
  M 1119,657
  Q 1160,628.75 1162,579
  L 1162,579 921,314
  Q 950.5,293 985,304
  L 985,304 1119,657
  Z">
  </path>

  <path  fill="#e64e3478" d="
  M 1162,579
  Q 1188.75,540.5 1174,496
  L 1174,496 868,345
  Q 886.75,316.25 921,314
  L 921,314 1162,579
  Z">
  </path>

  <path  fill="#bf38c94e" d="
  M 1174,496
  Q 1183.75,452.75 1155,419
  L 1155,419 831,392
  Q 837.75,359.25 868,345
  L 868,345 1174,496
  Z">
  </path>

  <path  fill="#d66e565b" d="
  M 1155,419
  Q 1148.25,377.5 1111,358
  L 1111,358 814,447
  Q 808.75,415.25 831,392
  L 831,392 1155,419
  Z">
  </path>

  <path  fill="#a24f4476" d="
  M 1111,358
  Q 1091.5,323.25 1052,318
  L 1052,318 818,502
  Q 802.25,475.5 814,447
  L 814,447 1111,358
  Z">
  </path>

  <path  fill="#c36cb16a" d="
  M 1052,318
  Q 1022,294.25 985,304
  L 985,304 840,550
  Q 817,531.5 818,502
  L 818,502 1052,318
  Z">
  </path>

  <path  fill="#c012004f" d="
  M 985,304
  Q 950.5,293 921,314
  L 921,314 878,586
  Q 850,577.5 840,550
  L 840,550 985,304
  Z">
  </path>

  <path  fill="#ae39b510" d="
  M 921,314
  Q 886.75,316.25 868,345
  L 868,345 925,605
  Q 896.75,607.25 878,586
  L 878,586 921,314
  Z">
  </path>

  <path  fill="#bb0ffc6a" d="
  M 868,345
  Q 837.75,359.25 831,392
  L 831,392 974,606
  Q 949.25,617.75 925,605
  L 925,605 868,345
  Z">
  </path>

  <path  fill="#7768d43c" d="
  M 831,392
  Q 808.75,415.25 814,447
  L 814,447 1019,590
  Q 1000.5,609.25 974,606
  L 974,606 831,392
  Z">
  </path>

  <path  fill="#a779aa40" d="
  M 814,447
  Q 802.25,475.5 818,502
  L 818,502 1054,558
  Q 1044.5,582.75 1019,590
  L 1019,590 814,447
  Z">
  </path>

  <path  fill="#96301647" d="
  M 818,502
  Q 817,531.5 840,550
  L 840,550 1070,515
  Q 1072.75,540.5 1054,558
  L 1054,558 818,502
  Z">
  </path>

  <path  fill="#a36ca60c" d="
  M 840,550
  Q 850,577.5 878,586
  L 878,586 1063,472
  Q 1077.25,491.75 1070,515
  L 1070,515 840,550
  Z">
  </path>

  <path  fill="#ec7a9f09" d="
  M 878,586
  Q 896.75,607.25 925,605
  L 925,605 1043,439
  Q 1061.25,450.5 1063,472
  L 1063,472 878,586
  Z">
  </path>

  <path  fill="#713b9a42" d="
  M 925,605
  Q 949.25,617.75 974,606
  L 974,606 1015,419
  Q 1034,422 1043,439
  L 1043,439 925,605
  Z">
  </path>

  <path  fill="#843da034" d="
  M 974,606
  Q 1000.5,609.25 1019,590
  L 1019,590 986,413
  Q 1002,408.75 1015,419
  L 1015,419 974,606
  Z">
  </path>

  <path  fill="#8f355b28" d="
  M 1019,590
  Q 1044.5,582.75 1054,558
  L 1054,558 960,417
  Q 972,408.5 986,413
  L 986,413 1019,590
  Z">
  </path>

  <path  fill="#b1468734" d="
  M 1054,558
  Q 1072.75,540.5 1070,515
  L 1070,515 941,429
  Q 947.5,418.25 960,417
  L 960,417 1054,558
  Z">
  </path>

  <path  fill="#d306d510" d="
  M 1070,515
  Q 1077.25,491.75 1063,472
  L 1063,472 929,445
  Q 931,434 941,429
  L 941,429 1070,515
  Z">
  </path>

  <path  fill="#6e3e8e5a" d="
  M 1063,472
  Q 1061.25,450.5 1043,439
  L 1043,439 926,461
  Q 923.5,452.25 929,445
  L 929,445 1063,472
  Z">
  </path>

  <path  fill="#8d5eba64" d="
  M 1043,439
  Q 1034,422 1015,419
  L 1015,419 928,475
  Q 923.5,468.5 926,461
  L 926,461 1043,439
  Z">
  </path>

  <path  fill="#a0419678" d="
  M 1015,419
  Q 1002,408.75 986,413
  L 986,413 935,485
  Q 929,481.75 928,475
  L 928,475 1015,419
  Z">
  </path>

  <path  fill="#8b56a169" d="
  M 986,413
  Q 972,408.5 960,417
  L 960,417 944,491
  Q 938,490.25 935,485
  L 935,485 986,413
  Z">
  </path>

  <path  fill="#c26ff32c" d="
  M 960,417
  Q 947.5,418.25 941,429
  L 941,429 952,492
  Q 947.75,493.5 944,491
  L 944,491 960,417
  Z">
  </path>

  <path  fill="#750e0b62" d="
  M 941,429
  Q 931,434 929,445
  L 929,445 958,490
  Q 955.5,492.5 952,492
  L 952,492 941,429
  Z">
  </path>

  <path  fill="#f83c0f7b" d="
  M 929,445
  Q 923.5,452.25 926,461
  L 926,461 962,486
  Q 961,489 958,490
  L 958,490 929,445
  Z">
  </path>

  <path  fill="#8f208029" d="
  M 926,461
  Q 923.5,468.5 928,475
  L 928,475 963,482
  Q 963.5,484.25 962,486
  L 962,486 926,461
  Z">
  </path>

  <path  fill="#dd00ec73" d="
  M 928,475
  Q 929,481.75 935,485
  L 935,485 962,479
  Q 963.25,480.25 963,482
  L 963,482 928,475
  Z">
  </path>

  <path  fill="#6833b445" d="
  M 935,485
  Q 938,490.25 944,491
  L 944,491 961,478
  Q 961.75,478.25 962,479
  L 962,479 935,485
  Z">
  </path>

  <path  fill="#c6701245" d="
  M 944,491
  Q 947.75,493.5 952,492
  L 952,492 960,478
  Q 960.5,477.75 961,478
  L 961,478 944,491
  Z">
  </path>
</g>
</svg>
