<svg viewBox="0 0 1920 957" id="svg-5dc100" fill="none" preserveAspectRatio="xMinYMid slice" xmlns="http://www.w3.org/2000/svg" xmlns:xlink="http://www.w3.org/1999/xlink" >
<style>
* { transform-box: fill-box; } text { font-size:0.65em; }
#svg-5dc100 {
  --c0:  #00000000; 
  --c1:  #98098207;  --c2:  #b418f44e;  --c3:  #dc31ff3a;  --c4:  #da6d0e5c;  --c5:  #9f471c6f;
  --c6:  #942dca2f;  --c7:  #e533d36a;  --c8:  #77588537;  --c9:  #b31b3b5b;  --c10: #c136287a;
  --c11: #d175444f;  --c12: #eb77e87c;  --c13: #fd361729;  --c14: #8d0bc334;  --c15: #d0643133;
  --c16: #a976ee0a;  --c17: #7730154d;  --c18: #9955675d;  --c19: #6a648338;  --c20: #bb79bd0b;
  --c21: #ed3a4730;  --c22: #867cd70b;  --c23: #c306e859;  --c24: #9531af78;  --c25: #75034042;
  --c26: #a82d6314;  --c27: #ea1dee7a;  --c28: #e5567668;  --c29: #9f69bf47;  --c30: #a1432377;
  --c31: #7d63321c;  --c32: #862b2e39;  --c33: #8a5aef5e;  --c34: #790f672b;  --c35: #6d1ebf06;
  --c36: #98131c10;  --c37: #e60a3c29;  --c38: #637e0e49;  --c39: #b5522061;  --c40: #756b2951;
  --c41: #ba32f666;  --c42: #ca21bb76;  --c43: #6819ab6b;  --c44: #bc2ef733;  --c45: #87153915;
  --c46: #d653b54e;  --c47: #9d5c561d;  --c48: #964a6106;  --c49: #bf77042a;  --c50: #777ff82c;
  --c51: #7e0a4f5e;  --c52: #bc4ca065;  --c53: #9b09cd1e;  --c54: #a07ea333;  --c55: #7661025a;
  --c56: #a10a9e31;  --c57: #7032a36e;  --c58: #ee2bd84a;  --c59: #ef78d96b;  --c60: #c003153d;
  --c61: #6f29bc6e;  --c62: #c120416a;  --c63: #9b36005c;  --c64: #c60b8b21;  --c65: #f406c175;
  --c66: #670d2571;  --c67: #de3d405d;  --c68: #e13b2a00;  --c69: #cf68f86e;  --c70: #9322c008;
  --c71: #da5a8b38;  --c72: #6916624b;  --c73: #ee4f7158;  --c74: #733afc08;  --c75: #ad177b77;
  --c76: #b3586171;  --c77: #692cd84e;  --c78: #8074ac7b;  --c79: #a7352b5f;  --c80: #db7f2031;
  --c81: #ae666463;  --c82: #7c7d6837;  --c83: #9f17433b;  --c84: #dc5ba61d;  --c85: #650dbc6f;
  --c86: #f343ea5c;  --c87: #c3781f40;  --c88: #8775bd3b;  --c89: #cb1d4470;  --c90: #a810d063;
  --c91: #a6518b7d;  --c92: #dd3f6b4e;  --c93: #b129ff15;  --c94: #9f58be49;  --c95: #8027a938;
  --c96: #6e4da339;  --c97: #f2265c13;  --c98: #63022d6c;  --c99: #6b15fa4a;  --c100: #f31c6c02;
  --c-count: 100;
}
</style>
<defs>
  <radialGradient id="corner-tlc" gradientUnits="userSpaceOnUse" cx="0" cy="0" r="957">
    <stop offset="0.00" stop-opacity="0.50" stop-color="#872478b1"/>
    <stop offset="0.25" stop-opacity="0.33" stop-color="#872478b1"/>
    <stop offset="0.75" stop-opacity="0.15" stop-color="#4e9b8834"/>
    <stop offset="1.00" stop-opacity="0.0"  stop-color="#376b580a"/>
  </radialGradient>
  <radialGradient id="corner-trc" gradientUnits="userSpaceOnUse" cx="1920" cy="0" r="957">
    <stop offset="0.00" stop-opacity="0.50" stop-color="#6d7ad78d"/>
    <stop offset="0.25" stop-opacity="0.33" stop-color="#6d7ad78d"/>
    <stop offset="0.75" stop-opacity="0.15" stop-color="#a5508054"/>
    <stop offset="1.00" stop-opacity="0.0"  stop-color="#313b313c"/>
  </radialGradient>
  <radialGradient id="corner-blc" gradientUnits="userSpaceOnUse" cx="0" cy="957" r="957">
    <stop offset="0.00" stop-opacity="0.50" stop-color="#9f366b8c"/>
    <stop offset="0.25" stop-opacity="0.33" stop-color="#9f366b8c"/>
    <stop offset="0.75" stop-opacity="0.15" stop-color="#975e815b"/>
    <stop offset="1.00" stop-opacity="0.0"  stop-color="#38647804"/>
  </radialGradient>
  <radialGradient id="corner-brc" gradientUnits="userSpaceOnUse" cx="1920" cy="957" r="957">
    <stop offset="0.00" stop-opacity="0.50" stop-color="#7f7dbd9c"/>
    <stop offset="0.25" stop-opacity="0.33" stop-color="#7f7dbd9c"/>
    <stop offset="0.75" stop-opacity="0.15" stop-color="#787d4428"/>
    <stop offset="1.00" stop-opacity="0.0"  stop-color="#704f2438"/>
  </radialGradient>
  <linearGradient id="grad-5dc100-1" gradientUnits="userSpaceOnUse" x1="810" y1="170" x2="1920" y2="957">
    <stop offset="0.00" stop-color="var(--c36)"/>
    <stop offset="0.25" stop-color="var(--c70)"/>
    <stop offset="0.50" stop-color="var(--c57)"/>
    <stop offset="0.75" stop-color="var(--c43)"/>
    <stop offset="1.00" stop-color="var(--c68)"/>
  </linearGradient>
  <radialGradient id="grad-5dc100-2" gradientUnits="userSpaceOnUse" cx="1020" cy="430" r="1330">
    <stop offset="0.00" stop-color="var(--c92)"/>
    <stop offset="0.25" stop-color="var(--c5)"/>
    <stop offset="0.50" stop-color="var(--c93)"/>
    <stop offset="0.75" stop-color="var(--c85)"/>
    <stop offset="1.00" stop-color="var(--c12)"/>
  </radialGradient>
  <linearGradient id="grad-5dc100-3" gradientUnits="userSpaceOnUse" x1="930" y1="210" x2="1920" y2="957">
    <stop offset="0.00" stop-color="var(--c84)"/>
    <stop offset="0.25" stop-color="var(--c25)"/>
    <stop offset="0.50" stop-color="var(--c15)"/>
    <stop offset="0.75" stop-color="var(--c10)"/>
    <stop offset="1.00" stop-color="var(--c31)"/>
  </linearGradient>
  <radialGradient id="grad-5dc100-4" gradientUnits="userSpaceOnUse" cx="610" cy="840" r="1570">
    <stop offset="0.00" stop-color="var(--c44)"/>
    <stop offset="0.25" stop-color="var(--c28)"/>
    <stop offset="0.50" stop-color="var(--c28)"/>
    <stop offset="0.75" stop-color="var(--c65)"/>
    <stop offset="1.00" stop-color="var(--c9)"/>
  </radialGradient>
  <linearGradient id="grad-5dc100-5" gradientUnits="userSpaceOnUse" x1="760" y1="100" x2="1920" y2="957">
    <stop offset="0.00" stop-color="var(--c28)"/>
    <stop offset="0.25" stop-color="var(--c38)"/>
    <stop offset="0.50" stop-color="var(--c31)"/>
    <stop offset="0.75" stop-color="var(--c74)"/>
    <stop offset="1.00" stop-color="var(--c67)"/>
  </linearGradient>
</defs>
<rect x="0" y="0" id="box-5dc100"  width="1920" height="957"   fill="#333F" ></rect>
  <path id="5dc100-1" class="corner tlc"  fill="url(#corner-tlc)"  d="M 0,0
  L 0,0 1920,0
  Q 1267,803 0,957
  L 0,957 0,0
  Z">
  </path>

  <path id="5dc100-2" class="corner trc"  fill="url(#corner-trc)"  d="M 1920,0
  L 1920,0 0,0
  Q 653,803 1920,957
  L 1920,957 1920,0
  Z">
  </path>

  <path id="5dc100-3" class="corner blc"  fill="url(#corner-blc)"  d="M 0,957
  L 0,957 0,0
  Q 1267,154 1920,957
  L 1920,957 0,957
  Z">
  </path>

  <path id="5dc100-4" class="corner brc"  fill="url(#corner-brc)"  d="M 1920,957
  L 1920,957 1920,0
  Q 653,154 0,957
  L 0,957 1920,957
  Z">
  </path>

<g id="5dc100-5" class="nautilus p169"  onclick="this.style.fill = randomColor()" >
  <path  fill="#8376b65d" d="
  M 648,974
  Q 782,1089.75 955,1052
  L 955,1052 873,-41
  Q 1023.75,-99.5 1161,-14
  L 1161,-14 648,974
  Z">
  </path>

  <path  fill="#cd3c6a13" d="
  M 955,1052
  Q 1126.5,1080.25 1252,960
  L 1252,960 617,85
  Q 713.5,-42 873,-41
  L 873,-41 955,1052
  Z">
  </path>

  <path  fill="#f0272377" d="
  M 1252,960
  Q 1410,895.25 1453,730
  L 1453,730 466,324
  Q 481.75,166.75 617,85
  L 617,85 1252,960
  Z">
  </path>

  <path  fill="#7c28f134" d="
  M 1453,730
  Q 1552.25,595.25 1504,435
  L 1504,435 463,605
  Q 394.25,463.75 466,324
  L 466,324 1453,730
  Z">
  </path>

  <path  fill="#ab529779" d="
  M 1504,435
  Q 1517.75,270 1394,160
  L 1394,160 606,844
  Q 474.75,760.25 463,605
  L 463,605 1504,435
  Z">
  </path>

  <path  fill="#e565957c" d="
  M 1394,160
  Q 1321,14.75 1161,-14
  L 1161,-14 852,967
  Q 698.25,967 606,844
  L 606,844 1394,160
  Z">
  </path>

  <path  fill="#bd2dba4a" d="
  M 1161,-14
  Q 1023.75,-99.5 873,-41
  L 873,-41 1121,940
  Q 993.25,1020.75 852,967
  L 852,967 1161,-14
  Z">
  </path>

  <path  fill="#fb53866b" d="
  M 873,-41
  Q 713.5,-42 617,85
  L 617,85 1332,780
  Q 1266.5,912.75 1121,940
  L 1121,940 873,-41
  Z">
  </path>

  <path  fill="#ee6e0057" d="
  M 617,85
  Q 481.75,166.75 466,324
  L 466,324 1425,538
  Q 1439,682.25 1332,780
  L 1332,780 617,85
  Z">
  </path>

  <path  fill="#ea16e12b" d="
  M 466,324
  Q 394.25,463.75 463,605
  L 463,605 1380,288
  Q 1465,401.75 1425,538
  L 1425,538 466,324
  Z">
  </path>

  <path  fill="#fe53347a" d="
  M 463,605
  Q 474.75,760.25 606,844
  L 606,844 1214,102
  Q 1343.5,153.5 1380,288
  L 1380,288 463,605
  Z">
  </path>

  <path  fill="#8f6a8d20" d="
  M 606,844
  Q 698.25,967 852,967
  L 852,967 979,31
  Q 1114.25,7.75 1214,102
  L 1214,102 606,844
  Z">
  </path>

  <path  fill="#db5b200f" d="
  M 852,967
  Q 993.25,1020.75 1121,940
  L 1121,940 745,92
  Q 846.75,3 979,31
  L 979,31 852,967
  Z">
  </path>

  <path  fill="#b24a557c" d="
  M 1121,940
  Q 1266.5,912.75 1332,780
  L 1332,780 579,264
  Q 619,136.5 745,92
  L 745,92 1121,940
  Z">
  </path>

  <path  fill="#7c19c155" d="
  M 1332,780
  Q 1439,682.25 1425,538
  L 1425,538 528,496
  Q 495.5,367.25 579,264
  L 579,264 1332,780
  Z">
  </path>

  <path  fill="#923c5137" d="
  M 1425,538
  Q 1465,401.75 1380,288
  L 1380,288 605,717
  Q 511.25,625.75 528,496
  L 528,496 1425,538
  Z">
  </path>

  <path  fill="#c1015656" d="
  M 1380,288
  Q 1343.5,153.5 1214,102
  L 1214,102 785,865
  Q 658,836 605,717
  L 605,717 1380,288
  Z">
  </path>

  <path  fill="#c267e624" d="
  M 1214,102
  Q 1114.25,7.75 979,31
  L 979,31 1013,891
  Q 892.5,935 785,865
  L 785,865 1214,102
  Z">
  </path>

  <path  fill="#fe621d50" d="
  M 979,31
  Q 846.75,3 745,92
  L 745,92 1214,792
  Q 1138.25,891.75 1013,891
  L 1013,891 979,31
  Z">
  </path>

  <path  fill="#c944850e" d="
  M 745,92
  Q 619,136.5 579,264
  L 579,264 1332,608
  Q 1319,729.5 1214,792
  L 1214,792 745,92
  Z">
  </path>

  <path  fill="#85006a15" d="
  M 579,264
  Q 495.5,367.25 528,496
  L 528,496 1336,396
  Q 1387,503 1332,608
  L 1332,608 579,264
  Z">
  </path>

  <path  fill="#ec39f615" d="
  M 528,496
  Q 511.25,625.75 605,717
  L 605,717 1231,216
  Q 1328.5,279.75 1336,396
  L 1336,396 528,496
  Z">
  </path>

  <path  fill="#7203162b" d="
  M 605,717
  Q 658,836 785,865
  L 785,865 1052,120
  Q 1165.5,123.25 1231,216
  L 1231,216 605,717
  Z">
  </path>

  <path  fill="#ee37982d" d="
  M 785,865
  Q 892.5,935 1013,891
  L 1013,891 852,131
  Q 949.25,75.5 1052,120
  L 1052,120 785,865
  Z">
  </path>

  <path  fill="#b40e1551" d="
  M 1013,891
  Q 1138.25,891.75 1214,792
  L 1214,792 691,243
  Q 743.5,146.75 852,131
  L 852,131 1013,891
  Z">
  </path>

  <path  fill="#694d357a" d="
  M 1214,792
  Q 1319,729.5 1332,608
  L 1332,608 612,419
  Q 607.5,311.25 691,243
  L 691,243 1214,792
  Z">
  </path>

  <path  fill="#645c2770" d="
  M 1332,608
  Q 1387,503 1336,396
  L 1336,396 638,608
  Q 577.75,520 612,419
  L 612,419 1332,608
  Z">
  </path>

  <path  fill="#e2044a20" d="
  M 1336,396
  Q 1328.5,279.75 1231,216
  L 1231,216 756,755
  Q 660.25,711 638,608
  L 638,608 1336,396
  Z">
  </path>

  <path  fill="#bc762b76" d="
  M 1231,216
  Q 1165.5,123.25 1052,120
  L 1052,120 932,816
  Q 828.75,829.5 756,755
  L 756,755 1231,216
  Z">
  </path>

  <path  fill="#ed737f18" d="
  M 1052,120
  Q 949.25,75.5 852,131
  L 852,131 1110,773
  Q 1031.75,839 932,816
  L 932,816 1052,120
  Z">
  </path>

  <path  fill="#c011725e" d="
  M 852,131
  Q 743.5,146.75 691,243
  L 691,243 1233,644
  Q 1203.75,739.25 1110,773
  L 1110,773 852,131
  Z">
  </path>

  <path  fill="#cb7cc717" d="
  M 691,243
  Q 607.5,311.25 612,419
  L 612,419 1269,476
  Q 1293,569 1233,644
  L 1233,644 691,243
  Z">
  </path>

  <path  fill="#ec354e27" d="
  M 612,419
  Q 577.75,520 638,608
  L 638,608 1215,318
  Q 1281.5,383.5 1269,476
  L 1269,476 612,419
  Z">
  </path>

  <path  fill="#f94f7057" d="
  M 638,608
  Q 660.25,711 756,755
  L 756,755 1089,216
  Q 1177.5,235.5 1215,318
  L 1215,318 638,608
  Z">
  </path>

  <path  fill="#b054486a" d="
  M 756,755
  Q 828.75,829.5 932,816
  L 932,816 933,194
  Q 1016.5,166 1089,216
  L 1089,216 756,755
  Z">
  </path>

  <path  fill="#8f351662" d="
  M 932,816
  Q 1031.75,839 1110,773
  L 1110,773 793,255
  Q 847.75,189.5 933,194
  L 933,194 932,816
  Z">
  </path>

  <path  fill="#c857e654" d="
  M 1110,773
  Q 1203.75,739.25 1233,644
  L 1233,644 706,378
  Q 718.75,294.75 793,255
  L 793,255 1110,773
  Z">
  </path>

  <path  fill="#a3030e1f" d="
  M 1233,644
  Q 1293,569 1269,476
  L 1269,476 696,525
  Q 664.25,449 706,378
  L 706,378 1233,644
  Z">
  </path>

  <path  fill="#8469ff3b" d="
  M 1269,476
  Q 1281.5,383.5 1215,318
  L 1215,318 764,653
  Q 698,606 696,525
  L 696,525 1269,476
  Z">
  </path>

  <path  fill="#901fce55" d="
  M 1215,318
  Q 1177.5,235.5 1089,216
  L 1089,216 886,726
  Q 806.75,720 764,653
  L 764,653 1215,318
  Z">
  </path>

  <path  fill="#9c11c324" d="
  M 1089,216
  Q 1016.5,166 933,194
  L 933,194 1026,724
  Q 956.5,760 886,726
  L 886,726 1089,216
  Z">
  </path>

  <path  fill="#cd764c5e" d="
  M 933,194
  Q 847.75,189.5 793,255
  L 793,255 1140,647
  Q 1102.25,714 1026,724
  L 1026,724 933,194
  Z">
  </path>

  <path  fill="#b75c1222" d="
  M 793,255
  Q 718.75,294.75 706,378
  L 706,378 1191,525
  Q 1196,598.75 1140,647
  L 1140,647 793,255
  Z">
  </path>

  <path  fill="#852e401c" d="
  M 706,378
  Q 664.25,449 696,525
  L 696,525 1171,400
  Q 1212.25,457.5 1191,525
  L 1191,525 706,378
  Z">
  </path>

  <path  fill="#8953c51d" d="
  M 696,525
  Q 698,606 764,653
  L 764,653 1093,308
  Q 1155,334.5 1171,400
  L 1171,400 696,525
  Z">
  </path>

  <path  fill="#626dbb4c" d="
  M 764,653
  Q 806.75,720 886,726
  L 886,726 984,271
  Q 1047.75,262.25 1093,308
  L 1093,308 764,653
  Z">
  </path>

  <path  fill="#a57a9169" d="
  M 886,726
  Q 956.5,760 1026,724
  L 1026,724 875,296
  Q 923.25,256.25 984,271
  L 984,271 886,726
  Z">
  </path>

  <path  fill="#a353bd3f" d="
  M 1026,724
  Q 1102.25,714 1140,647
  L 1140,647 798,371
  Q 817.75,314.25 875,296
  L 875,296 1026,724
  Z">
  </path>

  <path  fill="#85030e13" d="
  M 1140,647
  Q 1196,598.75 1191,525
  L 1191,525 772,472
  Q 759.75,415 798,371
  L 798,371 1140,647
  Z">
  </path>

  <path  fill="#9f5b9e0f" d="
  M 1191,525
  Q 1212.25,457.5 1171,400
  L 1171,400 801,568
  Q 762.5,527.25 772,472
  L 772,472 1191,525
  Z">
  </path>

  <path  fill="#ec2d3b59" d="
  M 1171,400
  Q 1155,334.5 1093,308
  L 1093,308 874,634
  Q 821,619.25 801,568
  L 801,568 1171,400
  Z">
  </path>

  <path  fill="#e914dd43" d="
  M 1093,308
  Q 1047.75,262.25 984,271
  L 984,271 969,652
  Q 917,666.75 874,634
  L 874,634 1093,308
  Z">
  </path>

  <path  fill="#b96f460c" d="
  M 984,271
  Q 923.25,256.25 875,296
  L 875,296 1057,618
  Q 1021.5,657 969,652
  L 969,652 984,271
  Z">
  </path>

  <path  fill="#cf09f867" d="
  M 875,296
  Q 817.75,314.25 798,371
  L 798,371 1109,543
  Q 1101.75,593.5 1057,618
  L 1057,618 875,296
  Z">
  </path>

  <path  fill="#e876546c" d="
  M 798,371
  Q 759.75,415 772,472
  L 772,472 1109,456
  Q 1130.75,499.5 1109,543
  L 1109,543 798,371
  Z">
  </path>

  <path  fill="#bf58fa0a" d="
  M 772,472
  Q 762.5,527.25 801,568
  L 801,568 1068,388
  Q 1105.5,411.75 1109,456
  L 1109,456 772,472
  Z">
  </path>

  <path  fill="#8f547750" d="
  M 801,568
  Q 821,619.25 874,634
  L 874,634 1002,353
  Q 1043.75,354 1068,388
  L 1068,388 801,568
  Z">
  </path>

  <path  fill="#aa3a397d" d="
  M 874,634
  Q 917,666.75 969,652
  L 969,652 932,358
  Q 965.75,338 1002,353
  L 1002,353 874,634
  Z">
  </path>

  <path  fill="#76678a5a" d="
  M 969,652
  Q 1021.5,657 1057,618
  L 1057,618 878,395
  Q 895.75,363 932,358
  L 932,358 969,652
  Z">
  </path>

  <path  fill="#f95a822d" d="
  M 1057,618
  Q 1101.75,593.5 1109,543
  L 1109,543 854,452
  Q 851.75,417.5 878,395
  L 878,395 1057,618
  Z">
  </path>

  <path  fill="#c0348b61" d="
  M 1109,543
  Q 1130.75,499.5 1109,456
  L 1109,456 861,509
  Q 843.25,482.25 854,452
  L 854,452 1109,543
  Z">
  </path>

  <path  fill="#bf42ea7a" d="
  M 1109,456
  Q 1105.5,411.75 1068,388
  L 1068,388 896,552
  Q 867.75,539.25 861,509
  L 861,509 1109,456
  Z">
  </path>

  <path  fill="#b4317744" d="
  M 1068,388
  Q 1043.75,354 1002,353
  L 1002,353 945,570
  Q 916,573.25 896,552
  L 896,552 1068,388
  Z">
  </path>

  <path  fill="#ca2b6164" d="
  M 1002,353
  Q 965.75,338 932,358
  L 932,358 994,560
  Q 972,577.25 945,570
  L 945,570 1002,353
  Z">
  </path>

  <path  fill="#8c0e1e57" d="
  M 932,358
  Q 895.75,363 878,395
  L 878,395 1030,528
  Q 1020,553 994,560
  L 994,560 932,358
  Z">
  </path>

  <path  fill="#b413317e" d="
  M 878,395
  Q 851.75,417.5 854,452
  L 854,452 1038,483
  Q 1045.25,507.5 1030,528
  L 1030,528 878,395
  Z">
  </path>

  <path  fill="#6d2ab215" d="
  M 854,452
  Q 843.25,482.25 861,509
  L 861,509 1019,446
  Q 1037.75,459.75 1038,483
  L 1038,483 854,452
  Z">
  </path>

  <path  fill="#ff5f3405" d="
  M 861,509
  Q 867.75,539.25 896,552
  L 896,552 988,429
  Q 1007.75,429.75 1019,446
  L 1019,446 861,509
  Z">
  </path>

  <path  fill="#b84be914" d="
  M 896,552
  Q 916,573.25 945,570
  L 945,570 959,431
  Q 973,422.75 988,429
  L 988,429 896,552
  Z">
  </path>

  <path  fill="#d938220f" d="
  M 945,570
  Q 972,577.25 994,560
  L 994,560 939,445
  Q 945.5,433 959,431
  L 959,431 945,570
  Z">
  </path>

  <path  fill="#cf5e197b" d="
  M 994,560
  Q 1020,553 1030,528
  L 1030,528 932,464
  Q 930.75,452.75 939,445
  L 939,445 994,560
  Z">
  </path>

  <path  fill="#942dde2f" d="
  M 1030,528
  Q 1045.25,507.5 1038,483
  L 1038,483 935,480
  Q 929.5,472.75 932,464
  L 932,464 1030,528
  Z">
  </path>

  <path  fill="#676faa74" d="
  M 1038,483
  Q 1037.75,459.75 1019,446
  L 1019,446 945,489
  Q 937.75,487 935,480
  L 935,480 1038,483
  Z">
  </path>

  <path  fill="#b264480a" d="
  M 1019,446
  Q 1007.75,429.75 988,429
  L 988,429 955,490
  Q 949.75,492 945,489
  L 945,489 1019,446
  Z">
  </path>

  <path  fill="#955c3c7b" d="
  M 988,429
  Q 973,422.75 959,431
  L 959,431 961,486
  Q 959,489.5 955,490
  L 955,490 988,429
  Z">
  </path>

  <path  fill="#7a01fc1f" d="
  M 959,431
  Q 945.5,433 939,445
  L 939,445 963,481
  Q 963.25,484 961,486
  L 961,486 959,431
  Z">
  </path>

  <path  fill="#9b6e4e4c" d="
  M 939,445
  Q 930.75,452.75 932,464
  L 932,464 961,478
  Q 962.75,479 963,481
  L 963,481 939,445
  Z">
  </path>

  <path  fill="#74271a4f" d="
  M 932,464
  Q 929.5,472.75 935,480
  L 935,480 960,478
  Q 960.5,477.75 961,478
  L 961,478 932,464
  Z">
  </path>

</g>
</svg>
