<svg viewBox="0 0 1920 957" id="svg-ae5249" fill="none" preserveAspectRatio="xMinYMid slice" xmlns="http://www.w3.org/2000/svg" xmlns:xlink="http://www.w3.org/1999/xlink" >
<style>
* { transform-box: fill-box; } text { font-size:0.65em; }
#svg-ae5249 {
  --c0:  #00000000; 
  --c1:  #c8635e06;  --c2:  #cd42a525;  --c3:  #67147c62;  --c4:  #7648872f;  --c5:  #850a7c00;
  --c6:  #d11ca227;  --c7:  #af7e2e7f;  --c8:  #ce326c33;  --c9:  #d95d246e;  --c10: #6f56c15d;
  --c11: #9b1ae038;  --c12: #a006423f;  --c13: #8b5f0177;  --c14: #d13ea54a;  --c15: #b83fb74a;
  --c16: #cf0eee45;  --c17: #60584361;  --c18: #764fc009;  --c19: #77258e08;  --c20: #aa11d86f;
  --c21: #7e1a3a67;  --c22: #ed571918;  --c23: #c9358a5c;  --c24: #981ce624;  --c25: #820dd877;
  --c26: #77030e23;  --c27: #e3499e1f;  --c28: #e66f9b3e;  --c29: #771a833d;  --c30: #e0609026;
  --c31: #be340a25;  --c32: #e1253b7e;  --c33: #88247226;  --c34: #721fb062;  --c35: #d70c3f66;
  --c36: #df57a624;  --c37: #7476a23a;  --c38: #6942c157;  --c39: #f6524a3e;  --c40: #e46e2656;
  --c41: #95428b2d;  --c42: #8976927d;  --c43: #85032c1a;  --c44: #c753a238;  --c45: #7025d678;
  --c46: #945dbf3d;  --c47: #9f05f952;  --c48: #d8253e7d;  --c49: #b038cc03;  --c50: #881b8041;
  --c51: #78569851;  --c52: #6824e255;  --c53: #ad4e396c;  --c54: #ba1e706f;  --c55: #634b1e18;
  --c56: #b8665804;  --c57: #9c0d076f;  --c58: #cd7b7614;  --c59: #9a2c3540;  --c60: #f35acc14;
  --c61: #a3641119;  --c62: #df0d5845;  --c63: #e623e555;  --c64: #995e3618;  --c65: #7c194d60;
  --c66: #906e9a7f;  --c67: #9267d102;  --c68: #670ed369;  --c69: #d43fc132;  --c70: #745c8576;
  --c71: #8b680f40;  --c72: #fb6fc330;  --c73: #bd17d84c;  --c74: #c5758d6a;  --c75: #6d323d31;
  --c76: #e23c3352;  --c77: #a23c3a0a;  --c78: #f41bf30c;  --c79: #bf45ea43;  --c80: #e55c0f1b;
  --c81: #6475137d;  --c82: #ed1a4068;  --c83: #be40ca4b;  --c84: #fc6f6474;  --c85: #ef45fc1e;
  --c86: #ce47ee77;  --c87: #661dc33b;  --c88: #ae159c46;  --c89: #78394875;  --c90: #803f8605;
  --c91: #a64d8a3d;  --c92: #c9128e59;  --c93: #ec73aa17;  --c94: #6f18b160;  --c95: #a1007839;
  --c96: #727d576b;  --c97: #9524fc42;  --c98: #a1367e30;  --c99: #ec0e9479;  --c100: #b3649257;
  --c-count: 100;
}
</style>
<defs>
  <radialGradient id="corner-tlc" gradientUnits="userSpaceOnUse" cx="0" cy="0" r="957">
    <stop offset="0.00" stop-opacity="0.50" stop-color="#ba7f878d"/>
    <stop offset="0.25" stop-opacity="0.33" stop-color="#ba7f878d"/>
    <stop offset="0.75" stop-opacity="0.15" stop-color="#4a545d4f"/>
    <stop offset="1.00" stop-opacity="0.0"  stop-color="#327f483b"/>
  </radialGradient>
  <radialGradient id="corner-trc" gradientUnits="userSpaceOnUse" cx="1920" cy="0" r="957">
    <stop offset="0.00" stop-opacity="0.50" stop-color="#d92d787f"/>
    <stop offset="0.25" stop-opacity="0.33" stop-color="#d92d787f"/>
    <stop offset="0.75" stop-opacity="0.15" stop-color="#bc49c23b"/>
    <stop offset="1.00" stop-opacity="0.0"  stop-color="#266d491a"/>
  </radialGradient>
  <radialGradient id="corner-blc" gradientUnits="userSpaceOnUse" cx="0" cy="957" r="957">
    <stop offset="0.00" stop-opacity="0.50" stop-color="#7473b47e"/>
    <stop offset="0.25" stop-opacity="0.33" stop-color="#7473b47e"/>
    <stop offset="0.75" stop-opacity="0.15" stop-color="#9666425d"/>
    <stop offset="1.00" stop-opacity="0.0"  stop-color="#4129450b"/>
  </radialGradient>
  <radialGradient id="corner-brc" gradientUnits="userSpaceOnUse" cx="1920" cy="957" r="957">
    <stop offset="0.00" stop-opacity="0.50" stop-color="#d862afa0"/>
    <stop offset="0.25" stop-opacity="0.33" stop-color="#d862afa0"/>
    <stop offset="0.75" stop-opacity="0.15" stop-color="#477f842f"/>
    <stop offset="1.00" stop-opacity="0.0"  stop-color="#68335024"/>
  </radialGradient>
  <linearGradient id="grad-ae5249-1" gradientUnits="userSpaceOnUse" x1="280" y1="110" x2="1920" y2="957">
    <stop offset="0.00" stop-color="var(--c70)"/>
    <stop offset="0.25" stop-color="var(--c78)"/>
    <stop offset="0.50" stop-color="var(--c49)"/>
    <stop offset="0.75" stop-color="var(--c85)"/>
    <stop offset="1.00" stop-color="var(--c59)"/>
  </linearGradient>
  <radialGradient id="grad-ae5249-2" gradientUnits="userSpaceOnUse" cx="1570" cy="230" r="1300">
    <stop offset="0.00" stop-color="var(--c88)"/>
    <stop offset="0.25" stop-color="var(--c83)"/>
    <stop offset="0.50" stop-color="var(--c31)"/>
    <stop offset="0.75" stop-color="var(--c34)"/>
    <stop offset="1.00" stop-color="var(--c94)"/>
  </radialGradient>
  <linearGradient id="grad-ae5249-3" gradientUnits="userSpaceOnUse" x1="890" y1="250" x2="1920" y2="957">
    <stop offset="0.00" stop-color="var(--c51)"/>
    <stop offset="0.25" stop-color="var(--c94)"/>
    <stop offset="0.50" stop-color="var(--c97)"/>
    <stop offset="0.75" stop-color="var(--c96)"/>
    <stop offset="1.00" stop-color="var(--c38)"/>
  </linearGradient>
  <radialGradient id="grad-ae5249-4" gradientUnits="userSpaceOnUse" cx="1770" cy="590" r="1500">
    <stop offset="0.00" stop-color="var(--c24)"/>
    <stop offset="0.25" stop-color="var(--c34)"/>
    <stop offset="0.50" stop-color="var(--c2)"/>
    <stop offset="0.75" stop-color="var(--c22)"/>
    <stop offset="1.00" stop-color="var(--c94)"/>
  </radialGradient>
  <linearGradient id="grad-ae5249-5" gradientUnits="userSpaceOnUse" x1="550" y1="270" x2="1920" y2="957">
    <stop offset="0.00" stop-color="var(--c70)"/>
    <stop offset="0.25" stop-color="var(--c69)"/>
    <stop offset="0.50" stop-color="var(--c97)"/>
    <stop offset="0.75" stop-color="var(--c32)"/>
    <stop offset="1.00" stop-color="var(--c28)"/>
  </linearGradient>
</defs>
<rect x="0" y="0" id="box-ae5249"  width="1920" height="957"   fill="#333F" ></rect>
<path id="ae5249-1" class="corner tlc"  fill="url(#corner-tlc)"  d="M 0,0
  L 0,0 1920,0
  Q 1267,803 0,957
  L 0,957 0,0
  Z">
  </path>

<path id="ae5249-2" class="corner trc"  fill="url(#corner-trc)"  d="M 1920,0
  L 1920,0 0,0
  Q 653,803 1920,957
  L 1920,957 1920,0
  Z">
  </path>

<path id="ae5249-3" class="corner blc"  fill="url(#corner-blc)"  d="M 0,957
  L 0,957 0,0
  Q 1267,154 1920,957
  L 1920,957 0,957
  Z">
  </path>

<path id="ae5249-4" class="corner brc"  fill="url(#corner-brc)"  d="M 1920,957
  L 1920,957 1920,0
  Q 653,154 0,957
  L 0,957 1920,957
  Z">
  </path>

<g id="ae5249-5" class="nautilus p145"  onclick="this.style.fill = randomColor()" >
<path  fill="#d3234c08" d="
  M 852,967
  Q 993.25,1020.75 1121,940
  L 1121,940 745,92
  Q 846.75,3 979,31
  L 979,31 852,967
  Z">
  </path>

<path  fill="#d91ca553" d="
  M 1121,940
  Q 1266.5,912.75 1332,780
  L 1332,780 579,264
  Q 619,136.5 745,92
  L 745,92 1121,940
  Z">
  </path>

<path  fill="#f37ff714" d="
  M 1332,780
  Q 1439,682.25 1425,538
  L 1425,538 528,496
  Q 495.5,367.25 579,264
  L 579,264 1332,780
  Z">
  </path>

<path  fill="#8307d65a" d="
  M 1425,538
  Q 1465,401.75 1380,288
  L 1380,288 605,717
  Q 511.25,625.75 528,496
  L 528,496 1425,538
  Z">
  </path>

<path  fill="#6852301e" d="
  M 1380,288
  Q 1343.5,153.5 1214,102
  L 1214,102 785,865
  Q 658,836 605,717
  L 605,717 1380,288
  Z">
  </path>

<path  fill="#6f2f5151" d="
  M 1214,102
  Q 1114.25,7.75 979,31
  L 979,31 1013,891
  Q 892.5,935 785,865
  L 785,865 1214,102
  Z">
  </path>

<path  fill="#83503f58" d="
  M 979,31
  Q 846.75,3 745,92
  L 745,92 1214,792
  Q 1138.25,891.75 1013,891
  L 1013,891 979,31
  Z">
  </path>

<path  fill="#cb3a8862" d="
  M 745,92
  Q 619,136.5 579,264
  L 579,264 1332,608
  Q 1319,729.5 1214,792
  L 1214,792 745,92
  Z">
  </path>

<path  fill="#b33ebc2a" d="
  M 579,264
  Q 495.5,367.25 528,496
  L 528,496 1336,396
  Q 1387,503 1332,608
  L 1332,608 579,264
  Z">
  </path>

<path  fill="#be74cd3b" d="
  M 528,496
  Q 511.25,625.75 605,717
  L 605,717 1231,216
  Q 1328.5,279.75 1336,396
  L 1336,396 528,496
  Z">
  </path>

<path  fill="#c4547328" d="
  M 605,717
  Q 658,836 785,865
  L 785,865 1052,120
  Q 1165.5,123.25 1231,216
  L 1231,216 605,717
  Z">
  </path>

<path  fill="#a169551e" d="
  M 785,865
  Q 892.5,935 1013,891
  L 1013,891 852,131
  Q 949.25,75.5 1052,120
  L 1052,120 785,865
  Z">
  </path>

<path  fill="#ff59b947" d="
  M 1013,891
  Q 1138.25,891.75 1214,792
  L 1214,792 691,243
  Q 743.5,146.75 852,131
  L 852,131 1013,891
  Z">
  </path>

<path  fill="#ee2bf340" d="
  M 1214,792
  Q 1319,729.5 1332,608
  L 1332,608 612,419
  Q 607.5,311.25 691,243
  L 691,243 1214,792
  Z">
  </path>

<path  fill="#cd0ae559" d="
  M 1332,608
  Q 1387,503 1336,396
  L 1336,396 638,608
  Q 577.75,520 612,419
  L 612,419 1332,608
  Z">
  </path>

<path  fill="#af663570" d="
  M 1336,396
  Q 1328.5,279.75 1231,216
  L 1231,216 756,755
  Q 660.25,711 638,608
  L 638,608 1336,396
  Z">
  </path>

<path  fill="#c8683f2f" d="
  M 1231,216
  Q 1165.5,123.25 1052,120
  L 1052,120 932,816
  Q 828.75,829.5 756,755
  L 756,755 1231,216
  Z">
  </path>

<path  fill="#7f259159" d="
  M 1052,120
  Q 949.25,75.5 852,131
  L 852,131 1110,773
  Q 1031.75,839 932,816
  L 932,816 1052,120
  Z">
  </path>

<path  fill="#eb2e523b" d="
  M 852,131
  Q 743.5,146.75 691,243
  L 691,243 1233,644
  Q 1203.75,739.25 1110,773
  L 1110,773 852,131
  Z">
  </path>

<path  fill="#ee56ad0b" d="
  M 691,243
  Q 607.5,311.25 612,419
  L 612,419 1269,476
  Q 1293,569 1233,644
  L 1233,644 691,243
  Z">
  </path>

<path  fill="#976b2023" d="
  M 612,419
  Q 577.75,520 638,608
  L 638,608 1215,318
  Q 1281.5,383.5 1269,476
  L 1269,476 612,419
  Z">
  </path>

<path  fill="#a803d816" d="
  M 638,608
  Q 660.25,711 756,755
  L 756,755 1089,216
  Q 1177.5,235.5 1215,318
  L 1215,318 638,608
  Z">
  </path>

<path  fill="#f54ac40f" d="
  M 756,755
  Q 828.75,829.5 932,816
  L 932,816 933,194
  Q 1016.5,166 1089,216
  L 1089,216 756,755
  Z">
  </path>

<path  fill="#e6672b69" d="
  M 932,816
  Q 1031.75,839 1110,773
  L 1110,773 793,255
  Q 847.75,189.5 933,194
  L 933,194 932,816
  Z">
  </path>

<path  fill="#cc4a6d74" d="
  M 1110,773
  Q 1203.75,739.25 1233,644
  L 1233,644 706,378
  Q 718.75,294.75 793,255
  L 793,255 1110,773
  Z">
  </path>

<path  fill="#7d7bf52d" d="
  M 1233,644
  Q 1293,569 1269,476
  L 1269,476 696,525
  Q 664.25,449 706,378
  L 706,378 1233,644
  Z">
  </path>

<path  fill="#c2290a60" d="
  M 1269,476
  Q 1281.5,383.5 1215,318
  L 1215,318 764,653
  Q 698,606 696,525
  L 696,525 1269,476
  Z">
  </path>

<path  fill="#ac384208" d="
  M 1215,318
  Q 1177.5,235.5 1089,216
  L 1089,216 886,726
  Q 806.75,720 764,653
  L 764,653 1215,318
  Z">
  </path>

<path  fill="#7859540a" d="
  M 1089,216
  Q 1016.5,166 933,194
  L 933,194 1026,724
  Q 956.5,760 886,726
  L 886,726 1089,216
  Z">
  </path>

<path  fill="#7626b078" d="
  M 933,194
  Q 847.75,189.5 793,255
  L 793,255 1140,647
  Q 1102.25,714 1026,724
  L 1026,724 933,194
  Z">
  </path>

<path  fill="#bb175a08" d="
  M 793,255
  Q 718.75,294.75 706,378
  L 706,378 1191,525
  Q 1196,598.75 1140,647
  L 1140,647 793,255
  Z">
  </path>

<path  fill="#fe47265d" d="
  M 706,378
  Q 664.25,449 696,525
  L 696,525 1171,400
  Q 1212.25,457.5 1191,525
  L 1191,525 706,378
  Z">
  </path>

<path  fill="#d67ad52a" d="
  M 696,525
  Q 698,606 764,653
  L 764,653 1093,308
  Q 1155,334.5 1171,400
  L 1171,400 696,525
  Z">
  </path>

<path  fill="#cf23306b" d="
  M 764,653
  Q 806.75,720 886,726
  L 886,726 984,271
  Q 1047.75,262.25 1093,308
  L 1093,308 764,653
  Z">
  </path>

<path  fill="#bf265219" d="
  M 886,726
  Q 956.5,760 1026,724
  L 1026,724 875,296
  Q 923.25,256.25 984,271
  L 984,271 886,726
  Z">
  </path>

<path  fill="#a1113e06" d="
  M 1026,724
  Q 1102.25,714 1140,647
  L 1140,647 798,371
  Q 817.75,314.25 875,296
  L 875,296 1026,724
  Z">
  </path>

<path  fill="#bf1f8f11" d="
  M 1140,647
  Q 1196,598.75 1191,525
  L 1191,525 772,472
  Q 759.75,415 798,371
  L 798,371 1140,647
  Z">
  </path>

<path  fill="#b975c73d" d="
  M 1191,525
  Q 1212.25,457.5 1171,400
  L 1171,400 801,568
  Q 762.5,527.25 772,472
  L 772,472 1191,525
  Z">
  </path>

<path  fill="#ea414815" d="
  M 1171,400
  Q 1155,334.5 1093,308
  L 1093,308 874,634
  Q 821,619.25 801,568
  L 801,568 1171,400
  Z">
  </path>

<path  fill="#8d638b0e" d="
  M 1093,308
  Q 1047.75,262.25 984,271
  L 984,271 969,652
  Q 917,666.75 874,634
  L 874,634 1093,308
  Z">
  </path>

<path  fill="#79721e50" d="
  M 984,271
  Q 923.25,256.25 875,296
  L 875,296 1057,618
  Q 1021.5,657 969,652
  L 969,652 984,271
  Z">
  </path>

<path  fill="#96221870" d="
  M 875,296
  Q 817.75,314.25 798,371
  L 798,371 1109,543
  Q 1101.75,593.5 1057,618
  L 1057,618 875,296
  Z">
  </path>

<path  fill="#b62a2537" d="
  M 798,371
  Q 759.75,415 772,472
  L 772,472 1109,456
  Q 1130.75,499.5 1109,543
  L 1109,543 798,371
  Z">
  </path>

<path  fill="#980aca75" d="
  M 772,472
  Q 762.5,527.25 801,568
  L 801,568 1068,388
  Q 1105.5,411.75 1109,456
  L 1109,456 772,472
  Z">
  </path>

<path  fill="#cd726140" d="
  M 801,568
  Q 821,619.25 874,634
  L 874,634 1002,353
  Q 1043.75,354 1068,388
  L 1068,388 801,568
  Z">
  </path>

<path  fill="#8a679135" d="
  M 874,634
  Q 917,666.75 969,652
  L 969,652 932,358
  Q 965.75,338 1002,353
  L 1002,353 874,634
  Z">
  </path>

<path  fill="#e872d149" d="
  M 969,652
  Q 1021.5,657 1057,618
  L 1057,618 878,395
  Q 895.75,363 932,358
  L 932,358 969,652
  Z">
  </path>

<path  fill="#6a79ab6c" d="
  M 1057,618
  Q 1101.75,593.5 1109,543
  L 1109,543 854,452
  Q 851.75,417.5 878,395
  L 878,395 1057,618
  Z">
  </path>

<path  fill="#af2d612c" d="
  M 1109,543
  Q 1130.75,499.5 1109,456
  L 1109,456 861,509
  Q 843.25,482.25 854,452
  L 854,452 1109,543
  Z">
  </path>

<path  fill="#fb6bc915" d="
  M 1109,456
  Q 1105.5,411.75 1068,388
  L 1068,388 896,552
  Q 867.75,539.25 861,509
  L 861,509 1109,456
  Z">
  </path>

<path  fill="#c6347412" d="
  M 1068,388
  Q 1043.75,354 1002,353
  L 1002,353 945,570
  Q 916,573.25 896,552
  L 896,552 1068,388
  Z">
  </path>

<path  fill="#aa4fee43" d="
  M 1002,353
  Q 965.75,338 932,358
  L 932,358 994,560
  Q 972,577.25 945,570
  L 945,570 1002,353
  Z">
  </path>

<path  fill="#9a604048" d="
  M 932,358
  Q 895.75,363 878,395
  L 878,395 1030,528
  Q 1020,553 994,560
  L 994,560 932,358
  Z">
  </path>

<path  fill="#9d7dc375" d="
  M 878,395
  Q 851.75,417.5 854,452
  L 854,452 1038,483
  Q 1045.25,507.5 1030,528
  L 1030,528 878,395
  Z">
  </path>

<path  fill="#d61ff974" d="
  M 854,452
  Q 843.25,482.25 861,509
  L 861,509 1019,446
  Q 1037.75,459.75 1038,483
  L 1038,483 854,452
  Z">
  </path>

<path  fill="#c7580a56" d="
  M 861,509
  Q 867.75,539.25 896,552
  L 896,552 988,429
  Q 1007.75,429.75 1019,446
  L 1019,446 861,509
  Z">
  </path>

<path  fill="#bd50d131" d="
  M 896,552
  Q 916,573.25 945,570
  L 945,570 959,431
  Q 973,422.75 988,429
  L 988,429 896,552
  Z">
  </path>

<path  fill="#fd014126" d="
  M 945,570
  Q 972,577.25 994,560
  L 994,560 939,445
  Q 945.5,433 959,431
  L 959,431 945,570
  Z">
  </path>

<path  fill="#9f25b312" d="
  M 994,560
  Q 1020,553 1030,528
  L 1030,528 932,464
  Q 930.75,452.75 939,445
  L 939,445 994,560
  Z">
  </path>

<path  fill="#c662725f" d="
  M 1030,528
  Q 1045.25,507.5 1038,483
  L 1038,483 935,480
  Q 929.5,472.75 932,464
  L 932,464 1030,528
  Z">
  </path>

<path  fill="#8f046968" d="
  M 1038,483
  Q 1037.75,459.75 1019,446
  L 1019,446 945,489
  Q 937.75,487 935,480
  L 935,480 1038,483
  Z">
  </path>

<path  fill="#dd708f22" d="
  M 1019,446
  Q 1007.75,429.75 988,429
  L 988,429 955,490
  Q 949.75,492 945,489
  L 945,489 1019,446
  Z">
  </path>

<path  fill="#e7639031" d="
  M 988,429
  Q 973,422.75 959,431
  L 959,431 961,486
  Q 959,489.5 955,490
  L 955,490 988,429
  Z">
  </path>

<path  fill="#f02edf00" d="
  M 959,431
  Q 945.5,433 939,445
  L 939,445 963,481
  Q 963.25,484 961,486
  L 961,486 959,431
  Z">
  </path>

<path  fill="#960ebd0e" d="
  M 939,445
  Q 930.75,452.75 932,464
  L 932,464 961,478
  Q 962.75,479 963,481
  L 963,481 939,445
  Z">
  </path>

<path  fill="#d12c082a" d="
  M 932,464
  Q 929.5,472.75 935,480
  L 935,480 960,478
  Q 960.5,477.75 961,478
  L 961,478 932,464
  Z">
  </path>
</g>
</svg>
